<?xml version="1.0" standalone="no"?>
<!DOCTYPE svg PUBLIC "-//W3C//DTD SVG 1.1//EN" "http://www.w3.org/Graphics/SVG/1.1/DTD/svg11.dtd" >
<svg>
<metadata>
Created by FontForge 20090914 at Thu Apr 13 12:30:18 2017
 By www-data
 Copyright by Oleg Sharafutdinov. Chimkent, 1995.
</metadata>
<defs>
<font id="FKFuturis" horiz-adv-x="1020" >
  <font-face 
    font-family="FK Futuris"
    font-weight="400"
    font-stretch="normal"
    units-per-em="2048"
    panose-1="2 11 5 0 0 0 0 0 0 0"
    ascent="1638"
    descent="-410"
    x-height="889"
    cap-height="1434"
    bbox="0 -516 2353 1743"
    underline-thickness="50"
    underline-position="-55"
    unicode-range="U+0020-U+201E"
  />
<missing-glyph horiz-adv-x="1536" 
d="M256 0v1280h1024v-1280h-1024zM1248 32v1216h-960v-1216h960z" />
    <glyph glyph-name=".notdef" horiz-adv-x="1536" 
d="M256 0v1280h1024v-1280h-1024zM1248 32v1216h-960v-1216h960z" />
    <glyph glyph-name="space" unicode=" " horiz-adv-x="719" 
 />
    <glyph glyph-name="exclam" unicode="!" horiz-adv-x="475" 
d="M170 137c19.333 19.333 41.999 28.999 67.999 28.999c24 0 45.667 -8.5 65 -25.5s29 -39.833 29 -68.5c0 -24.667 -9 -46 -27 -64c-19.333 -18.667 -41.666 -28 -66.999 -28c-26 0 -48 8.66699 -66 26c-19.333 18 -29 40 -29 66c0 24.667 9 46.334 27 65.001z
M175.999 1434h123v-1147h-123v1147z" />
    <glyph glyph-name="quotedbl" unicode="&#x22;" horiz-adv-x="692" 
d="M244 1018h-86l-56 416h201zM530 1018h-86l-55 416h201z" />
    <glyph glyph-name="numbersign" unicode="#" horiz-adv-x="1630" 
d="M573 1055l52 297h114l-51 -297h371l51 297h115l-51 -297h276l-25 -140h-276l-68 -397h275l-23 -139h-276l-51 -297h-115l51 297h-371l-51 -297h-114l51 297h-277l23 139h278l68 397h-277l23 140h278zM1034 915h-370l-68 -397h371z" />
    <glyph glyph-name="dollar" unicode="$" horiz-adv-x="1067" 
d="M584 -244h-110.995v207c-36.667 0 -74.334 7.66699 -113.001 23c-38 13.333 -77.333 32.333 -118 57c-72.667 48 -134.334 127.333 -185.001 238l131 65l21 -51l35 -57c26 -36 62.667 -71.667 110 -107c22 -14.667 48 -26.334 78 -35.001c30 -8 64.333 -12 103 -12
c90 0 162.333 30.667 217 92c54.667 60 82 131 82 213c0 80.667 -23.333 142.667 -70 186c-48 42.667 -102.667 79 -164 109l-43 21l-41 20l-6 2c-101.333 49.333 -188 102.666 -260 159.999c-72.667 56 -109 139.333 -109 250c0 90 24 158.667 72 206
c45.333 48 97.333 82.333 156 103l53 14l51 8v181h111v-181c18.667 0 38.334 -2.66699 59.001 -8l64 -18c36.667 -12.667 72.667 -34.667 108 -66c34 -27.333 65.333 -68.333 94 -123l-112 -65c-14 32.667 -32 60.667 -54 84c-22.667 22 -46.334 39 -71.001 51
c-24.667 10.667 -49.334 18.334 -74.001 23.001l-57 6c-76.667 0 -133.334 -15.667 -170.001 -47c-38.667 -32 -63.334 -67.667 -74.001 -107l-6 -29l-2 -28c0 -68.667 26.667 -124.667 80 -168c51.333 -40 109.333 -75.667 174 -107l35 -16l34 -16l11 -7
c6.66699 -1.33301 10.667 -2.66602 12 -3.99902c86 -40.667 165 -91 237 -151c72.667 -60 109 -151.667 109 -275c0 -110.667 -35.667 -206.667 -107 -288c-72 -83.333 -168.667 -131.333 -290 -144v-209z" />
    <glyph glyph-name="percent" unicode="%" horiz-adv-x="1622" 
d="M1155 1477h100l-845 -1520h-101zM1012 567c34 30 69.332 53.333 105.999 70c37.333 14.667 76.333 22 117 22h6c88.667 0 165.834 -31.333 231.501 -94s98.5 -141 98.5 -235c0 -86 -32 -162.667 -96 -230c-64.667 -66.667 -142.667 -100 -234 -100s-169 32 -233 96
c-64.667 64.667 -97 142.667 -97 234c0 96.667 33.667 175.667 101 237zM1087 168c42.667 -46.667 93.999 -69.998 153.999 -69.998c57.333 0 108 22 152 66c42 46 63 101.333 63 166c0 61.333 -21.167 115.166 -63.5 161.499s-92.833 69.5 -151.5 69.5
c-61.333 0 -112.666 -22.333 -153.999 -67c-40.667 -46.667 -61 -101.334 -61 -164.001c0 -60 20.333 -114 61 -162zM151.998 1370c34 30 69.333 53.333 106 70c36.667 14.667 75.667 22 117 22h6c88.667 0 165.667 -31.333 231 -94c66 -62.667 99 -141 99 -235
c0 -86 -32.333 -162.667 -97 -230c-64 -66.667 -141.667 -100 -233 -100s-169.333 32 -234 96c-64 64 -96 142 -96 234c0 96.667 33.667 175.667 101 237zM228.998 967.002c41.333 -44 92.001 -66.001 152.001 -66.001c57.333 0 107.666 22 150.999 66
c42.667 46 64 101.333 64 166c0 65.333 -20.333 120.333 -61 165c-42.667 44 -94 66 -154 66c-56 0 -106.667 -22.667 -152 -68c-42 -44.667 -63 -99 -63 -163c0 -67.333 21 -122.666 63 -165.999z" />
    <glyph glyph-name="ampersand" unicode="&#x26;" horiz-adv-x="1280" 
d="M950 207l-37.001 -43.002l-51 -53l-26 -25l-25 -23l-49 -36l-47 -27c-26 -10.667 -56.667 -19.667 -92 -27l-105 -8c-65.333 0 -121.333 7.66699 -168 23c-46 14.667 -87 39 -123 73c-64 64.667 -105.667 136.334 -125 215.001l-6 39l-2 41c0 108 29.333 194.5 88 259.5
s133.334 126.833 224.001 185.5l22 14l25 16l-37 43l-35 44c-23.333 32.667 -46.666 69.334 -69.999 110.001c-17.333 39.333 -26 80.333 -26 123c0 86 32 155 96 207c62.667 50.667 135 76 217 76c95.333 0 166.333 -28 213 -84c46.667 -57.333 70 -123 70 -197l-7 -55
c-2.66699 -18 -7.33398 -35 -14.001 -51c-16 -36 -42.667 -72.333 -80 -109c-38 -38 -92 -81.667 -162 -131l343 -428l192 227l86 -69l-209 -246l227 -291h-143zM517.999 747.998l-74 -54.001l-65 -51c-46.667 -35.333 -83.667 -75.666 -111 -120.999
c-28.667 -44.667 -43 -100 -43 -166c0 -76 29.333 -144 88 -204c57.333 -60.667 127 -91 209 -91l66 7l59 18c32.667 16.667 67 40.667 103 72l131 133zM593.999 910.997l37 27.001c38 30 68 62.667 90 98c22 34 33 75 33 123c0 42.667 -14.333 83 -43 121
c-30 36.667 -69.667 55 -119 55h-6c-41.333 0 -81 -15 -119 -45c-38 -31.333 -57 -77 -57 -137v-18l4 -19c4 -28.667 14 -57.334 30 -86.001l52 -78l30 -37l29 -28z" />
    <glyph glyph-name="quotesingle" unicode="'" horiz-adv-x="406" 
d="M244 1018h-86l-56 416h201z" />
    <glyph glyph-name="parenleft" unicode="(" horiz-adv-x="446" 
d="M291 -457l-53 146.001l-41 143c-33.333 127.333 -57.333 253.666 -72 378.999c-16.667 124 -25 233.333 -25 328v123l9 81c6.66699 76.667 15.334 147 26.001 211c18 105.333 40 205 66 299c24.667 93.333 54.667 186.333 90 279l98 -27
c-58.667 -196.667 -101 -381.667 -127 -555c-20.667 -163.333 -31 -300.333 -31 -411c0 -109.333 10.333 -247.333 31 -414c11.333 -88.667 26.333 -174.667 45 -258c19.333 -84.667 46.666 -183 81.999 -295z" />
    <glyph glyph-name="parenright" unicode=")" horiz-adv-x="446" 
d="M156 1532c35.333 -91.333 65.3311 -183.17 89.998 -275.503s46.334 -193.166 65.001 -302.499l25 -211c5.33301 -65.333 8.66602 -109.666 9.99902 -132.999v-71c0 -108 -6.66699 -220.667 -20 -338c-15.333 -117.333 -40.666 -240.333 -75.999 -369l-43 -143
c-8 -27.333 -15.667 -50.666 -23 -69.999c-6.66699 -19.333 -16 -44 -28 -74l-99 25c68.667 226.667 112.334 424.667 131.001 594c18 168 27 293 27 375c0 44.667 -2 97.667 -6 159c-4 60 -11 134 -21 222c-16 162 -59.667 357 -131 585z" />
    <glyph glyph-name="asterisk" unicode="*" horiz-adv-x="834" 
d="M467 1505v-258l223 129l49 -86l-221 -129l221 -129l-49 -86l-223 129v-258h-100v258l-222 -129l-51 86l223 129l-223 129l51 86l222 -129v258h100z" />
    <glyph glyph-name="plus" unicode="+" horiz-adv-x="1229" 
d="M102 774h455v455h115v-455h454v-115h-454v-454h-115v454h-455v115z" />
    <glyph glyph-name="comma" unicode="," horiz-adv-x="518" 
d="M281 229l143 -67l-256 -471l-74 35z" />
    <glyph glyph-name="hyphen" unicode="-" horiz-adv-x="631" 
d="M545 590v-123h-459v123h459z" />
    <glyph glyph-name="period" unicode="." horiz-adv-x="475" 
d="M170 139c20.667 18 43.333 27.001 68 27.001c27.333 0 49.666 -9 66.999 -27c18 -18.667 27 -41 27 -67c0 -24.667 -9 -46 -27 -64c-17.333 -18.667 -39.666 -28 -66.999 -28c-26 0 -48 8.66699 -66 26c-19.333 18 -29 40 -29 66c0 27.333 9 49.666 27 66.999z" />
    <glyph glyph-name="slash" unicode="/" horiz-adv-x="975" 
d="M817 1505h115l-774 -1935h-115z" />
    <glyph glyph-name="zero" unicode="0" horiz-adv-x="1122" 
d="M471 -31c-35.333 4 -72.998 18.3359 -112.998 43.0029c-62.667 37.333 -120 109 -172 215c-51.333 105.333 -77 268.666 -77 489.999c0 214 24.333 373.667 73 479c49.333 104 103.333 176.333 162 217c42.667 28.667 85 46.334 127 53.001l90 9l88 -9
c23.333 -2.66699 44.666 -7.33398 63.999 -14.001c18.667 -8 40.334 -21 65.001 -39c57.333 -38 111.333 -109 162 -213c49.333 -105.333 74 -266.333 74 -483c0 -113.333 -6.33301 -210.333 -19 -291c-12 -80.667 -31.667 -148.334 -59 -203.001
c-50.667 -100.667 -108 -171.667 -172 -213c-32.667 -18.667 -70.334 -32.334 -113.001 -41.001l-90 -8h-18h-10c-18.667 0 -39.334 2.66699 -62.001 8zM604.002 74.0029l43.001 11.998c56 20.667 108 76 156 166c47.333 88.667 71 243.667 71 465
c0 222.667 -23.833 378.334 -71.5 467.001s-100.834 144 -159.501 166l-41 8l-41 4l-63 -6c-15.333 -2.66699 -27.666 -6 -36.999 -10c-11.333 -6 -24.333 -14.333 -39 -25c-42.667 -30 -82.334 -90 -119.001 -180c-36.667 -91.333 -55 -232.666 -55 -423.999
c0 -195.333 18.333 -336.666 55 -423.999c35.333 -88.667 75 -148.667 119 -180c22 -16.667 47.333 -28.334 76 -35.001l63 -6z" />
    <glyph glyph-name="one" unicode="1" horiz-adv-x="1122" 
d="M543 1319h-244l55 115h328v-1434h-139v1319z" />
    <glyph glyph-name="two" unicode="2" horiz-adv-x="1122" 
d="M997 0l-895 -0.000976562l342 367c130 137.333 222.333 241 277 311c61.333 75.333 103 146.333 125 213l14 70l6 73c0 101.333 -25 181.333 -75 240c-52 57.333 -118.333 86 -199 86c-97.333 0 -170.333 -26.667 -219 -80
c-50.667 -54.667 -84.334 -115.334 -101.001 -182.001l-12 -66l-2 -59h-139c0 130.667 39.667 247.334 119 350.001c77.333 101.333 198.666 152 363.999 152c128.667 0 228.334 -43 299.001 -129c70 -88 105 -192.667 105 -314l-7 -90c-4 -28.667 -10.667 -56 -20 -82
c-23.333 -65.333 -63 -135.666 -119 -210.999c-57.333 -76 -135.666 -166 -234.999 -270l-76 -80l-62 -66l-4 -6l-4 -4l-47 -51l-51 -57h616v-115z" />
    <glyph glyph-name="three" unicode="3" horiz-adv-x="1122" 
d="M240 358l2.00098 -40.999l10 -43c13.333 -48.667 43.333 -94.334 90 -137.001c45.333 -42 112.333 -63 201 -63c95.333 0 173 28.667 233 86s90 131 90 221c0 91.333 -21.667 159 -65 203c-44 42 -93.333 71.333 -148 88c-12 4 -24.333 7.33301 -37 10
c-12 2.66699 -25.667 4 -41 4l-69 4h-17h-12v115h8h13l8 -2h12l43 2l43 6c58.667 8 110.667 32 156 72c47.333 36.667 71 100.667 71 192c0 90 -26.333 160.333 -79 211c-54.667 49.333 -123 74 -205 74c-79.333 0 -138 -19 -176 -57c-40 -40 -68 -84.667 -84 -134l-13 -43
l-6 -41h-129l6 50l13 53c20 70.667 61.667 136 125 196c62.667 60.667 156 91 280 91c114.667 0 209.667 -32.333 285 -97c75.333 -64 113 -158.667 113 -284l-3 -56c0 -20 -3.33301 -39.667 -10 -59c-10.667 -44 -32.334 -86.333 -65.001 -127
c-30 -40.667 -80.667 -74 -152 -100l51 -21c19.333 -6.66699 38.666 -15.334 57.999 -26.001c38 -23.333 76 -60.333 114 -111c16.667 -23.333 29.5 -52.666 38.5 -87.999s13.5 -74.333 13.5 -117c0 -124 -43 -226.333 -129 -307s-198.667 -121 -338 -121
s-244.166 36.833 -314.499 110.5s-110.5 157.167 -120.5 250.5l-2 16v20h138z" />
    <glyph glyph-name="four" unicode="4" horiz-adv-x="1122" 
d="M696 338h-645l744 1137h32v-1022h152v-115h-152v-338h-131v338zM696 1143l-440 -690h440v690z" />
    <glyph glyph-name="five" unicode="5" horiz-adv-x="1122" 
d="M465 1319l-107.002 -440.003l31 12l31 10l61 14l62 7c110.667 0 212.334 -38.333 305.001 -115c91.333 -78 137 -194 137 -348c0 -144.667 -42.333 -263.667 -127 -357c-86 -94 -200 -141 -342 -141l-41 2l-41 4c-61.333 8.66699 -122.666 33.334 -183.999 74.001
c-62.667 40.667 -118.667 107.667 -168 201l106 59c19.333 -39.333 39.333 -70.666 60 -93.999l61 -64c34 -27.333 68.167 -45.666 102.5 -54.999s66.5 -14 96.5 -14c116 0 201.333 38.667 256 116c54.667 78 82 169.667 82 275c0 109.333 -28.667 194 -86 254
c-58.667 58.667 -138.667 88 -240 88h-53c-19.333 -4 -40.833 -7.33301 -64.5 -10s-56.167 -15 -97.5 -37l-41 -27l-39 -33l-37 11l172 723h570v-115h-465z" />
    <glyph glyph-name="six" unicode="6" horiz-adv-x="1122" 
d="M827 1409l-419.002 -600c14.667 6.66699 29.667 12.667 45 18c13.333 4.66699 27 9 41 13c12 2.66699 23.833 4.66699 35.5 6s29.167 2 52.5 2c128 0 231 -40.333 309 -121c76.667 -80.667 115 -180.334 115 -299.001l-7 -74c0 -9.33301 -0.666992 -20 -2 -32
c-2.66699 -12.667 -6.66699 -28 -12 -46c-23.333 -78.667 -67.666 -151 -132.999 -217c-65.333 -65.333 -161.666 -98 -288.999 -98c-143.333 0 -253.5 41.667 -330.5 125s-115.5 189 -115.5 317c0 89.333 14.333 164 43 224c27.333 58.667 60 115.334 98 170.001l4 8l6 8
l449 662zM787.998 174c52 66.667 78 146.667 78 240c0 84.667 -24.333 159 -73 223c-50.667 64 -128 96 -232 96c-84.667 0 -156.334 -27.333 -215.001 -82c-60 -56 -90 -135 -90 -237c0 -92 26 -171.333 78 -238c50.667 -68 126.334 -102 227.001 -102
c101.333 0 177 33.333 227 100z" />
    <glyph glyph-name="seven" unicode="7" horiz-adv-x="1122" 
d="M831 1319h-700v115h903l-717 -1475l-112 51z" />
    <glyph glyph-name="eight" unicode="8" horiz-adv-x="1122" 
d="M922 633c51.333 -68.667 77.001 -147.333 77.001 -236c0 -120 -38 -222.333 -114 -307c-76.667 -86 -184.667 -129 -324 -129c-142 0 -250.333 43 -325 129c-75.333 84.667 -113 187 -113 307c0 108 29.333 192.667 88 254c58.667 60 125 99 199 117l-19 8l-16 8
c-48 20.667 -94.333 56.334 -139 107.001c-41.333 49.333 -62 119.666 -62 210.999c0 109.333 28 192 84 248c56 54.667 118 90.667 186 108l60 12l57 5c23.333 0 41.666 -1.66699 54.999 -5l62 -12c66.667 -16 128.667 -51.333 186 -106c56 -56 84 -139.333 84 -250
c0 -90 -20.333 -159.667 -61 -209c-42.667 -50.667 -89 -87 -139 -109l-19 -8l-16 -4c87.333 -24.667 157 -71 209 -139zM784.001 168.001c53.333 64 80.002 139.666 80.002 226.999c0 90 -28.667 164.333 -86 223c-58.667 58 -131 87 -217 87
c-84.667 0 -156.334 -28 -215.001 -84c-60 -57.333 -90 -132.666 -90 -225.999c0 -86 27.333 -161 82 -225c53.333 -64 127.666 -96 222.999 -96c96 0 170.333 31.333 223 94zM743.003 893c50.667 50.667 75.999 116.333 75.999 197v14l-2 16
c0 54.667 -20.333 108.667 -61 162c-42.667 52 -107.667 78 -195 78c-69.333 0 -122.666 -16.333 -159.999 -49c-38 -34 -63.667 -71 -77 -111l-17 -59l-4 -51c0 -80.667 26.667 -145.667 80 -195c52 -50.667 111.333 -76 178 -76c70 0 130.667 24.667 182 74z" />
    <glyph glyph-name="nine" unicode="9" horiz-adv-x="1122" 
d="M295 25l420.003 600.001c-24.667 -12.667 -51.334 -23 -80.001 -31l-94 -8c-128.667 0 -231.5 40.167 -308.5 120.5s-115.5 180.166 -115.5 299.499v32c0 11.333 1.33301 25 4 41l16 78c23.333 79.333 68.166 152.166 134.499 218.499s162.166 99.5 287.499 99.5
c142 0 252 -41 330 -123c78 -83.333 117 -190.666 117 -321.999c0 -91.333 -15 -167 -45 -227c-12.667 -26 -27 -54 -43 -84c-18 -30 -36 -57.333 -54 -82l-6 -8l-4 -8l-448 -662zM332.003 1260c-50.667 -67.333 -76 -147.334 -76 -240.001c0 -84.667 25.333 -159 76 -223
c49.333 -64.667 125.666 -97 228.999 -97c84.667 0 157 28 217 84c58.667 54.667 88 133.334 88 236.001c0 94 -25 174.667 -75 242c-52 65.333 -128.667 98 -230 98c-99.333 0 -175.666 -33.333 -228.999 -100z" />
    <glyph glyph-name="colon" unicode=":" horiz-adv-x="475" 
d="M170 137c19.333 19.333 41.999 28.999 67.999 28.999c24 0 45.667 -8.5 65 -25.5s29 -39.833 29 -68.5c0 -24.667 -9 -46 -27 -64c-19.333 -18.667 -41.666 -28 -66.999 -28c-26 0 -48 8.66699 -66 26c-19.333 18 -29 40 -29 66c0 24.667 9 46.334 27 65.001z
M169.999 882.999c19.333 18.667 41.999 28 67.999 28c24 0 45.667 -8 65 -24c19.333 -18 29 -41.333 29 -70c0 -26 -9 -47.667 -27 -65c-19.333 -19.333 -41.666 -29 -66.999 -29c-26 0 -48.667 9 -68 27c-18 20 -27 42.333 -27 67s9 46.667 27 66z" />
    <glyph glyph-name="semicolon" unicode=";" horiz-adv-x="518" 
d="M281 229l143 -67l-256 -471l-74 35zM248 885c20.667 17.333 43 26 67 26c24.667 0 46.667 -8 66 -24c19.333 -18 29 -41.333 29 -70c0 -26 -9 -47.667 -27 -65c-19.333 -19.333 -42 -29 -68 -29s-48.333 9 -67 27c-18 20 -27 42.333 -27 67c0 27.333 9 50 27 68z" />
    <glyph glyph-name="less" unicode="&#x3c;" horiz-adv-x="1024" 
d="M922 381v-115l-820 410v82l820 409v-114l-680 -336z" />
    <glyph glyph-name="equal" unicode="=" horiz-adv-x="1229" 
d="M102 639h1024v-115h-1024v115zM102 909h1024v-114h-1024v114z" />
    <glyph glyph-name="greater" unicode="&#x3e;" horiz-adv-x="1024" 
d="M102 1053v114l820 -409v-82l-820 -410v115l680 336z" />
    <glyph glyph-name="question" unicode="?" horiz-adv-x="940" 
d="M399 139c20.667 18 43.333 27.001 68 27.001c27.333 0 49.833 -9.16699 67.5 -27.5s26.5 -40.5 26.5 -66.5c0 -24.667 -8.83301 -46.167 -26.5 -64.5s-40.167 -27.5 -67.5 -27.5c-26 0 -48 8.66699 -66 26c-18.667 18 -28 40 -28 66c0 27.333 8.66699 49.666 26 66.999z
M99.999 1102l2.00098 48.999l11 51c16 68.667 52.667 131.667 110 189c56 56 142 84 258 84c101.333 0 186.5 -28.667 255.5 -86s103.5 -139.333 103.5 -246c0 -75.333 -16.333 -135.333 -49 -180c-34.667 -45.333 -83.334 -87 -146.001 -125l-49 -29l-53 -29l-84 -47
l-66 -43c-26 -18.667 -47.667 -41 -65 -67c-14 -23.333 -21 -50.666 -21 -81.999v-11l2 -10c0 -30 14.333 -59.333 43 -88s73 -43 133 -43c56 0 98.333 12.333 127 37s47.334 51.334 56.001 80.001l6 31l2 26h112c0 -20.667 -1.33301 -37 -4 -49
c0 -19.333 -3.33301 -35.666 -10 -48.999c-13.333 -46.667 -42 -89.667 -86 -129c-43.333 -41.333 -110.333 -62 -201 -62h-20l-21 2c-66.667 7.33301 -128 31.333 -184 72c-57.333 41.333 -86 100.666 -86 177.999c0 70 16.333 126 49 168c31.333 41.333 77 80.333 137 117
l48 29l55 30l84 48c24.667 14.667 45.667 29.667 63 45c31.333 25.333 54 52.333 68 81c13.333 27.333 20 61.666 20 102.999c0 56 -11.333 99.667 -34 131c-24.667 30 -51.334 50.333 -80.001 61c-14 6 -34.667 11.667 -62 17l-43 4c-69.333 0 -121 -14.333 -155 -43
c-36 -30 -62 -62 -78 -96l-21 -68l-6 -51h-121z" />
    <glyph glyph-name="at" unicode="@" horiz-adv-x="1798" 
d="M1192 555c0 -10.667 -1.33301 -18.999 -4 -24.999l-2 -20c0 -26 5.33301 -46.333 16 -61l39 -31l21 -6l18 -2l33 2l35 10c48.667 16 93.5 52.667 134.5 110s61.5 132.666 61.5 225.999c0 202 -67 352.667 -201 452c-134.667 100 -286 150 -454 150
s-315.667 -56 -443 -168c-126.667 -112 -190 -270.333 -190 -475c0 -212 63.333 -373.333 190 -484c67.333 -55.333 135.666 -98.333 204.999 -129c70 -30 143 -45 219 -45l19 -2h20c68.667 0 129 9 181 27c50 18 96.333 40.667 139 68l59 -91l-74 -41l-71 -26
c-37.333 -12.667 -75 -21 -113 -25l-121 -8c-252.667 0 -445 74.333 -577 223c-134 148 -201 325.667 -201 533c0 232 75 416.333 225 553c76.667 68 158.667 119 246 153c87.333 34.667 183 52 287 52c224 0 394 -51.333 510 -154c116 -104 194.333 -218.667 235 -344
l25 -113l8 -106c0 -117.333 -27.333 -209.666 -82 -276.999c-56 -66.667 -119.333 -114.334 -190 -143.001l-74 -21l-66 -6c-47.333 0 -82.666 9 -105.999 27s-41.666 39 -54.999 63l-9 19l-6 18c-27.333 -31.333 -63.333 -60 -108 -86
c-46.667 -27.333 -103.334 -41 -170.001 -41c-100 0 -175.333 30.667 -226 92c-50 62 -75 136.667 -75 224l2 47c0 16 2.66699 31.667 8 47c20.667 96.667 68.167 186 142.5 268s169.5 123 285.5 123c68 0 118.667 -11.667 152 -35c32.667 -20 57.667 -46 75 -78l19 86h123z
M993 483.001c40 46.667 71.333 98.667 94 156c3.33301 6.66699 8.33301 23 15 49c6.66699 24.667 10.667 41 12 49l8 82c0 52 -12.5 97.5 -37.5 136.5s-69.167 58.5 -132.5 58.5c-90 0 -165 -37 -225 -111c-54.667 -72 -86 -153.333 -94 -244v-16v-12
c0 -70 15.667 -124.667 47 -164c34 -38 79 -57 135 -57h4h4c67.333 0 124 24.333 170 73z" />
    <glyph glyph-name="A" unicode="A" horiz-adv-x="1329" 
d="M666 1475l641 -1475h-144l-198 467h-600l-199 -467h-143zM915 582l-249 587l-252 -587h501z" />
    <glyph glyph-name="B" unicode="B" horiz-adv-x="1155" 
d="M475 1434l8.00098 -0.000976562l90 -4c36 0 81.333 -7 136 -21c52.667 -15.333 103.667 -46.666 153 -93.999c52 -45.333 78 -119 78 -221c0 -72.667 -19.833 -136.334 -59.5 -191.001s-91.5 -95.667 -155.5 -123l29 -8c13.333 0 23.333 -1.33301 30 -4
c67.333 -16.667 129.666 -53.667 186.999 -111c56 -58.667 84 -141 84 -247c0 -135.333 -39 -233.666 -117 -294.999s-164 -98.333 -258 -111l-43 -4h-43h-10h-9h-10h-8h-377v1434h295zM557.001 114.999c128.667 0 219.334 29.3311 272.001 87.998
c26 28.667 46.667 59.334 62 92.001c13.333 32.667 20 66.667 20 102v13c0 88.667 -29.333 160.334 -88 215.001s-149.334 82 -272.001 82h-232v-592h238zM502.001 820.997l52.998 4c24.667 0 55.334 8.16699 92.001 24.5s70.834 43 102.501 80s47.5 89.5 47.5 157.5
c0 60.667 -20.833 114.5 -62.5 161.5s-118.5 70.5 -230.5 70.5h-185v-498h183z" />
    <glyph glyph-name="C" unicode="C" horiz-adv-x="1434" 
d="M1376 127l-49 -35l-78 -43c-16 -6.66699 -38.333 -15.334 -67 -26.001c-30 -11.333 -63.667 -22.333 -101 -33c-68 -19.333 -143.667 -29 -227 -29c-229.333 0 -409.833 75.5 -541.5 226.5s-197.5 327.5 -197.5 529.5c0 233.333 75 418.333 225 555
c150 135.333 321.333 203 514 203c72.667 0 152.667 -10.333 240 -31s181.333 -67.667 282 -141v-162c-64 64 -139.667 116.333 -227 157c-87.333 41.333 -184.333 62 -291 62c-176 0 -317.333 -63.667 -424 -191c-54.667 -65.333 -97 -132.666 -127 -201.999
c-30 -71.333 -45 -143 -45 -215v-19v-16c0 -161.333 54 -309 162 -443c106.667 -133.333 250.667 -200 432 -200c100 0 194.333 19 283 57s167.667 90 237 156v-160z" />
    <glyph glyph-name="D" unicode="D" horiz-adv-x="1434" 
d="M180 1434l357 -0.000976562c242.667 0 423.334 -58.167 542.001 -174.5s193.334 -245.5 224.001 -387.5l12 -77l4 -78v-23c0 -9.33301 -1.33301 -23.666 -4 -42.999l-6 -63c-24.667 -148.667 -96.334 -284 -215.001 -406c-120.667 -121.333 -306.334 -182 -557.001 -182
h-357v1434zM522 114.999c238 0 406 61.999 504 185.999c96.667 122.667 145 261.334 145 416.001c0 174.667 -57.333 318.667 -172 432c-116 113.333 -275 170 -477 170h-203v-1204h203z" />
    <glyph glyph-name="E" unicode="E" horiz-adv-x="1063" 
d="M180 1434h768v-115h-629v-459h607v-115h-607v-630h629v-115h-768v1434z" />
    <glyph glyph-name="F" unicode="F" horiz-adv-x="922" 
d="M180 1434h676v-115h-537v-459h523v-115h-523v-745h-139v1434z" />
    <glyph glyph-name="G" unicode="G" horiz-adv-x="1669" 
d="M1554 696l0.00195312 -71c-4 -23.333 -6.66699 -44.666 -8 -63.999c-2.66699 -20.667 -5.33398 -38.334 -8.00098 -53.001c-4 -16.667 -10.667 -39.334 -20 -68.001c-33.333 -118.667 -99.666 -227.667 -198.999 -327c-101.333 -101.333 -253 -152 -455 -152
c-216.667 0 -395.334 67 -536.001 201c-142 133.333 -213 316.333 -213 549c0 237.333 69 424.333 207 561c137.333 135.333 305.666 203 504.999 203c138 0 261 -28.667 369 -86c108 -59.333 196 -140.666 264 -243.999l-106 -78l-25 33l-29 37
c-44.667 56 -106.667 107 -186 153c-80.667 46.667 -177 70 -289 70c-173.333 0 -310.333 -64.333 -411 -193c-101.333 -128 -152 -280 -152 -456c0 -180.667 53.333 -331.667 160 -453c106.667 -122.667 252.667 -184 438 -184c166.667 0 300 51.667 400 155
c98 104 147 221.667 147 353h-516v114h663z" />
    <glyph glyph-name="H" unicode="H" horiz-adv-x="1464" 
d="M180 1434h139v-588h826v588h139v-1434h-139v731h-826v-731h-139v1434z" />
    <glyph glyph-name="I" unicode="I" horiz-adv-x="500" 
d="M180 1434h139v-1434h-139v1434z" />
    <glyph glyph-name="J" unicode="J" horiz-adv-x="846" 
d="M268 188l8 -12l11 -10c34 -38 68.667 -62.833 104 -74.5s65.333 -17.5 90 -17.5c88.667 0 144.667 29.333 168 88c23.333 57.333 35 131.666 35 222.999v1049h139v-1057l-2 -51l-2 -54c-8 -77.333 -34.667 -148.333 -80 -213c-44.667 -65.333 -132.667 -98 -264 -98
c-48 0 -91.667 7 -131 21c-20.667 6.66699 -39 15.334 -55 26.001c-18 10 -37.333 23 -58 39l-26 23l-25 26z" />
    <glyph glyph-name="K" unicode="K" horiz-adv-x="1169" 
d="M180 1434h139v-666l642 666h172l-680 -695l694 -739h-186l-642 696v-696h-139v1434z" />
    <glyph glyph-name="L" unicode="L" horiz-adv-x="805" 
d="M180 1434h139v-1319h463v-115h-602v1434z" />
    <glyph glyph-name="M" unicode="M" horiz-adv-x="1757" 
d="M281 1491l598 -1278l598 1278l194 -1491h-129l-137 1061l-526 -1118l-527 1118l-137 -1061h-129z" />
    <glyph glyph-name="N" unicode="N" horiz-adv-x="1587" 
d="M180 1491l1088 -1198v1141h139v-1491l-1088 1198v-1141h-139v1491z" />
    <glyph glyph-name="O" unicode="O" horiz-adv-x="1778" 
d="M324 1249c138.667 150.667 327 226 565 226c206 0 387 -67.667 543 -203c154 -136.667 231 -321.667 231 -555s-77 -417.666 -231 -552.999c-156 -135.333 -337 -203 -543 -203c-207.333 0 -388.333 68.333 -543 205c-154 135.333 -231 319 -231 551
c0 203.333 69.667 380.666 209 531.999zM449 250c124 -117.333 270.667 -175.998 440 -175.998c168 0 314.5 58.667 439.5 176s187.5 273 187.5 467c0 195.333 -62.333 351.666 -187 468.999c-124 116 -270.667 174 -440 174c-168 0 -314 -58.667 -438 -176
c-126 -117.333 -189 -273 -189 -467c0 -192.667 62.333 -348.334 187 -467.001z" />
    <glyph glyph-name="P" unicode="P" horiz-adv-x="1102" 
d="M180 1434h397.999h36c12.667 0 27.667 -1.33301 45 -4c26 0 57.667 -5.66699 95 -17c61.333 -16 119.333 -50.667 174 -104c53.333 -53.333 80 -138 80 -254c0 -113.333 -26 -197.333 -78 -252s-110.667 -91 -176 -109c-16.667 -4 -34 -7.33301 -52 -10
c-17.333 -2.66699 -31.666 -4.66699 -42.999 -6l-81 -4h-259v-674h-139v1434zM318.999 788h252l56 3l67 12c41.333 12 80.333 37.333 117 76c35.333 36.667 53 95.334 53 176.001c0 77.333 -17.667 135.166 -53 173.499s-75 63.833 -119 76.5l-65 10l-56 4h-252v-531z" />
    <glyph glyph-name="Q" unicode="Q" horiz-adv-x="1778" 
d="M1464 -100l-149 174c-27.333 -16.667 -57.333 -31.667 -90 -45c-32.667 -15.333 -67 -28.333 -103 -39c-68 -19.333 -145.667 -29 -233 -29c-207.333 0 -388.333 68.333 -543 205c-154 135.333 -231 319 -231 551c0 233.333 77 418.333 231 555
c154.667 135.333 335.667 203 543 203c206 0 387 -67.667 543 -203c154 -136.667 231 -321.667 231 -555c0 -60 -4.83301 -114.667 -14.5 -164s-26.834 -102 -51.501 -158c-39.333 -100.667 -104.666 -186 -195.999 -256l207 -239h-144zM1315 238
c64 54 113.5 124.168 148.5 210.501s52.5 175.833 52.5 268.5c0 195.333 -62.333 351.666 -187 468.999c-124 116 -270.667 174 -440 174c-168 0 -314 -58.667 -438 -176c-126 -117.333 -189 -273 -189 -467c0 -192.667 62.333 -347.667 187 -465
c124 -118.667 270.667 -178 440 -178c83.333 0 150.333 9.33301 201 28c50 19.333 97 42 141 68l-311 360h143z" />
    <glyph glyph-name="R" unicode="R" horiz-adv-x="1057" 
d="M180 1434h383l82 -7c32.667 -4 67 -12.667 103 -26c55.333 -20.667 106.333 -58.334 153 -113.001s70 -135 70 -241c0 -93.333 -33 -178.666 -99 -255.999c-34 -40 -80.333 -71.667 -139 -95c-58.667 -22.667 -129.667 -34 -213 -34l508 -662h-164l-491 659h-54v-659
h-139v1434zM463 774c140.667 0 237 27.333 289 82c50 53.333 75 117 75 191c0 116 -33.333 190.333 -100 223s-143.667 49 -231 49h-177v-545h144z" />
    <glyph glyph-name="S" unicode="S" horiz-adv-x="1067" 
d="M797 1192l-3.99902 10l-7 10c-17.333 37.333 -46 71.666 -86 102.999c-40.667 30 -94.334 45 -161.001 45c-71.333 0 -125.333 -14.333 -162 -43c-38.667 -30 -64.667 -62 -78 -96l-14 -41l-2 -39c0 -70 26.333 -126.667 79 -170c52 -40 112.333 -75.667 181 -107l32 -16
l33 -14l10 -7c7.33301 -1.33301 11.666 -2.66602 12.999 -3.99902c90 -42 169.667 -92.333 239 -151c74 -57.333 111 -149 111 -275c0 -117.333 -41 -219 -123 -305c-83.333 -87.333 -196 -131 -338 -131c-102 0 -184.667 21.333 -248 64c-62.667 40.667 -113 87 -151 139
l-37 59l-27 58l131 65l7 -18l8 -17c23.333 -57.333 61.833 -111.166 115.5 -161.499s124.834 -75.5 213.501 -75.5c90.667 0 164 31.333 220 94c54.667 61.333 82 135 82 221c0 66.667 -16 118.667 -48 156c-27.333 38 -72.333 75.333 -135 112l-63 33l-76 37
c-98 48 -184.667 101.333 -260 160s-113 142 -113 250c0 26 1.33301 46.333 4 61l19 66c20.667 52.667 59.667 101 117 145s141.666 66 252.999 66l80 -7c28.667 0 60.334 -7.33301 95.001 -22c39.333 -14 76 -35.333 110 -64c32.667 -28.667 62.667 -70.334 90 -125.001z
" />
    <glyph glyph-name="T" unicode="T" horiz-adv-x="950" 
d="M406 1319h-383v115h905v-115h-383v-1319h-139v1319z" />
    <glyph glyph-name="U" unicode="U" horiz-adv-x="1333" 
d="M297 1434l0.00195312 -919.998c0 -147.333 31.333 -253.666 94 -318.999c61.333 -66 131.666 -105 210.999 -117c10.667 0 19 -1.33301 25 -4h28h13h6h4h29c13.333 0 24 1.33301 32 4c74 12 142.333 51.667 205 119c61.333 65.333 92 171 92 317v920h140v-899
c0 -180.667 -33.833 -310.834 -101.5 -390.501s-144.5 -133.167 -230.5 -160.5c-16.667 -4.66699 -33.834 -8.33398 -51.501 -11.001l-40.5 -6l-84 -6l-84 6c-24.667 0 -54.667 5.66699 -90 17c-83.333 21.333 -160 73.666 -230 156.999c-70.667 82 -106 213.333 -106 394
v899h139z" />
    <glyph glyph-name="V" unicode="V" horiz-adv-x="1163" 
d="M23 1434h151l408 -1133l407 1133h152l-559 -1491z" />
    <glyph glyph-name="W" unicode="W" horiz-adv-x="1921" 
d="M524 -57l-510 1491h158l354 -1133l435 1174l434 -1174l354 1133h158l-510 -1491l-436 1196z" />
    <glyph glyph-name="X" unicode="X" horiz-adv-x="1032" 
d="M170 0h-156l430 731l-397 703h156l313 -586l315 586h156l-399 -703l430 -731h-154l-348 623z" />
    <glyph glyph-name="Y" unicode="Y" horiz-adv-x="1077" 
d="M469 659l-455 775h156l369 -648l368 648h156l-455 -775v-659h-139v659z" />
    <glyph glyph-name="Z" unicode="Z" horiz-adv-x="1133" 
d="M848 1319h-733v115h960l-817 -1319h817v-115h-1046z" />
    <glyph glyph-name="bracketleft" unicode="[" horiz-adv-x="655" 
d="M180 -430v1935h418v-114h-287v-1706h287v-115h-418z" />
    <glyph glyph-name="backslash" unicode="\" horiz-adv-x="975" 
d="M817 -430l-774 1935h115l774 -1935h-115z" />
    <glyph glyph-name="bracketright" unicode="]" horiz-adv-x="655" 
d="M475 1505v-1935h-418v115h287v1706h-287v114h418z" />
    <glyph glyph-name="asciicircum" unicode="^" horiz-adv-x="983" 
d="M221 1024h-139l319 410h181l319 -410h-139l-270 340z" />
    <glyph glyph-name="underscore" unicode="_" horiz-adv-x="1024" 
d="M1024 -315v-115h-1024v115h1024z" />
    <glyph glyph-name="grave" unicode="`" horiz-adv-x="512" 
d="M238 1305l151 -258h-115l-237 258h201z" />
    <glyph glyph-name="a" unicode="a" horiz-adv-x="1151" 
d="M885 889l113.999 -0.000976562v-889h-114v152c-36 -64.667 -84 -112 -144 -142s-121.333 -45 -184 -45c-120 0 -227 41 -321 123c-94.667 80.667 -142 199.334 -142 356.001c0 134 42.333 248 127 342c83.333 93.333 196 140 338 140l68 -6
c10.667 0 19.834 -0.833008 27.501 -2.5s25.167 -7.16699 52.5 -16.5c27.333 -10.667 58 -31 92 -61c34 -26 62.667 -62.333 86 -109v158zM787.999 161.999c64.667 68 97 162 97 282c0 100 -28.667 188.833 -86 266.5s-136.666 116.5 -237.999 116.5
c-99.333 0 -180 -36.667 -242 -110c-62.667 -75.333 -94 -166.333 -94 -273c0 -98 29.333 -186 88 -264c57.333 -79.333 138.666 -119 243.999 -119c88.667 0 165.667 33.667 231 101z" />
    <glyph glyph-name="b" unicode="b" horiz-adv-x="1151" 
d="M274 1505l-0.000976562 -760c20.667 36 43.334 64.667 68.001 86c13.333 12.667 26.333 23 39 31c10.667 8 23.667 16.333 39 25c32.667 16 65.334 26.333 98.001 31l80 8c139.333 0 250.666 -46 333.999 -138c83.333 -91.333 125 -206 125 -344
c0 -155.333 -45.667 -274 -137 -356c-93.333 -82 -199.333 -123 -318 -123c-66.667 0 -128.667 14.333 -186 43c-58.667 28.667 -108.667 76.667 -150 144v-152h-114v1505h122zM841.999 174c56 76.667 83.999 166.667 83.999 270l-2 41l-4 41
c-12.667 72.667 -45 141 -97 205c-53.333 64 -132.333 96 -237 96c-97.333 0 -174.666 -38 -231.999 -114c-58.667 -78 -88 -167.667 -88 -269c0 -120 33.667 -213.333 101 -280c66.667 -68.667 145 -103 235 -103c105.333 0 185.333 37.667 240 113z" />
    <glyph glyph-name="c" unicode="c" horiz-adv-x="936" 
d="M879 43l-19 -10l-18 -10c-27.333 -14 -61.166 -27.167 -101.499 -39.5s-85.833 -18.5 -136.5 -18.5c-152.667 0 -275.334 45.667 -368.001 137c-94.667 90.667 -142 204.667 -142 342c0 139.333 48 255 144 347c94 90 215.333 135 364 135c57.333 0 106 -5.66699 146 -17
c38 -10.667 70.667 -23.667 98 -39l18 -12l15 -8v-121c-58.667 41.333 -108.834 68 -150.501 80s-81.167 18 -118.5 18c-103.333 0 -193.333 -32.667 -270 -98c-76.667 -66.667 -115 -161.667 -115 -285c0 -118.667 37.667 -212 113 -280c74 -68.667 160.667 -103 260 -103
c61.333 0 115.333 11.667 162 35c44.667 22 84.334 47.333 119.001 76v-129z" />
    <glyph glyph-name="d" unicode="d" horiz-adv-x="1151" 
d="M885 0v151.999c-36 -64.667 -84 -112 -144 -142s-121.333 -45 -184 -45c-120 0 -227 41 -321 123c-94.667 80.667 -142 199.334 -142 356.001c0 134 43 248 129 342c84.667 93.333 197.334 140 338.001 140h43c15.333 -4 29.666 -6.66699 42.999 -8l37 -9
c10.667 -4 27 -10.667 49 -20c22 -11.333 46.667 -29.666 74 -54.999c24.667 -20.667 48 -50.334 70 -89.001v758h122v-1503h-114zM791 161.999c62.667 69.333 94 163.333 94 282c0 100 -28.667 188.833 -86 266.5s-136.666 116.5 -237.999 116.5
c-98 0 -178.667 -36.667 -242 -110c-62.667 -74 -94 -165 -94 -273c0 -99.333 29.333 -188 88 -266c57.333 -78 138.666 -117 243.999 -117c92.667 0 170.667 33.667 234 101z" />
    <glyph glyph-name="e" unicode="e" horiz-adv-x="1055" 
d="M961 233c-34.667 -70.667 -84.668 -132.671 -150.001 -186.004c-66.667 -54.667 -153.334 -82 -260.001 -82c-144.667 0 -256.667 49.333 -336 148c-80.667 98 -121 208.333 -121 331c0 28.667 1.33301 51.334 4 68.001c0 13.333 1.83301 26.833 5.5 40.5
s6.83398 24.834 9.50098 33.501c22.667 84.667 69 162.334 139 233.001c69.333 71.333 169 107 299 107c117.333 0 207.333 -33.167 270 -99.5s104.334 -139.833 125.001 -220.5l10 -57l5 -55v-60h-736v-4v-6l2 -37c0 -16.667 1.33301 -29.667 4 -39
c12.667 -69.333 45.667 -134 99 -194c53.333 -62 127 -93 221 -93h37c18.667 4.66699 39 8.33398 61 11.001c20.667 2.66699 48 16.334 82 41.001c22 16 45.333 37 70 63c8 9.33301 16.667 21.666 26 36.999c10 13.333 23 36 39 68zM837.999 531.996
c0 71.333 -25.332 138.333 -75.999 201c-52 62.667 -121.667 94 -209 94s-158.333 -27.333 -213 -82c-54.667 -54 -89.334 -125 -104.001 -213h602z" />
    <glyph glyph-name="f" unicode="f" horiz-adv-x="532" 
d="M180 791h-143v98h143v397v14v17c0 26 4.33301 49 13 69c6.66699 20.667 18.667 44.667 36 72c28.667 44 80.667 66 156 66c23.333 0 40.333 -1.33301 51 -4l37 -7l21 -6l10 -2v-104l-39 14l-33 8l-12 2h-10c-30 0 -52.667 -8 -68 -24
c-16.667 -18 -27.667 -38.667 -33 -62l-6 -30v-27v-393h201v-98h-201v-791h-123v791z" />
    <glyph glyph-name="g" unicode="g" horiz-adv-x="1151" 
d="M268 -166c16.667 -65.333 52.999 -113.67 108.999 -145.003s116.667 -47 182 -47c92.667 0 161 21 205 63c42 42.667 72 92 90 148c4 13.333 8 29.5 12 48.5s6 36.167 6 51.5l5 76v108l-25 -35c-5.33301 -6.66699 -11.5 -14 -18.5 -22s-14.5 -15.667 -22.5 -23
c-24.667 -21.333 -58 -41.666 -100 -60.999c-44 -20.667 -95.333 -31 -154 -31c-120 0 -227 41 -321 123c-94.667 80.667 -142 199.334 -142 356.001c0 134 42.333 248 127 342c83.333 93.333 196.666 140 339.999 140l68 -6c10.667 0 20 -0.666992 28 -2
c8.66699 -2 26.667 -8.33301 54 -19s57.333 -30.334 90 -59.001c30 -23.333 58 -59.666 84 -108.999v158h114v-860l-6 -90c-4 -48 -17.167 -99.333 -39.5 -154s-64.5 -108.667 -126.5 -162c-61.333 -53.333 -150.666 -80 -267.999 -80c-131.333 0 -228.333 27.333 -291 82
s-105 116.334 -127 185.001l-4 14c-1.33301 6.66699 -2.66602 10.667 -3.99902 12zM787.999 161.996c64.667 68 97 162 97 282c0 100 -28.667 188.833 -86 266.5s-136.666 116.5 -237.999 116.5c-98 0 -178.667 -36.667 -242 -110c-62.667 -74 -94 -165 -94 -273
c0 -98 29.333 -186 88 -264c57.333 -79.333 138.666 -119 243.999 -119c88.667 0 165.667 33.667 231 101z" />
    <glyph glyph-name="h" unicode="h" horiz-adv-x="1034" 
d="M152 1505l121.998 -0.000976562v-764l21 35l33 43c20 22 51.333 46 94 72c42 23.333 92.333 35 151 35c98.667 0 175.334 -30.667 230.001 -92c53.333 -63.333 80 -151.666 80 -264.999v-569h-123v553l-2 37l-2 39c0 23.333 -4.33301 46.333 -13 69
c-8 22 -19.333 44 -34 66c-26 42 -76 63 -150 63c-84.667 0 -151.667 -32.667 -201 -98c-43.333 -64 -70.666 -136.333 -81.999 -217l-2 -25v-24v-463h-122v1505z" />
    <glyph glyph-name="i" unicode="i" horiz-adv-x="426" 
d="M274 889v-889h-122v889h122zM143 1255c16.667 19.333 40 28.999 70 28.999c27.333 0 50 -9 68 -27c17.333 -17.333 26 -39.666 26 -66.999s-8.66699 -50 -26 -68c-19.333 -17.333 -42 -26 -68 -26s-48 8.66699 -66 26c-18.667 18 -28 40.667 -28 68c0 23.333 8 45 24 65z
" />
    <glyph glyph-name="j" unicode="j" horiz-adv-x="426" 
d="M274 889v-1319h-122v1319h122zM143 1255c16.667 19.333 40 28.999 70 28.999c27.333 0 50 -9 68 -27c17.333 -17.333 26 -39.666 26 -66.999s-8.66699 -50 -26 -68c-19.333 -17.333 -42 -26 -68 -26s-48 8.66699 -66 26c-18.667 18 -28 40.667 -28 68
c0 23.333 8 45 24 65z" />
    <glyph glyph-name="k" unicode="k" horiz-adv-x="944" 
d="M152 1505h122v-977l398 361h168l-437 -383l519 -506h-179l-428 430l-41 -35v-395h-122v1505z" />
    <glyph glyph-name="l" unicode="l" horiz-adv-x="426" 
d="M152 1505h122v-1505h-122v1505z" />
    <glyph glyph-name="m" unicode="m" horiz-adv-x="1556" 
d="M348 834c23.333 22.667 48.668 41.667 76.001 57c26 13.333 52 22.333 78 27l73 8c72.667 0 128.667 -19.333 168 -58c40 -35.333 66 -78.333 78 -129c19.333 36 40.666 65.333 63.999 88c23.333 23.333 45 41.333 65 54c19.333 10.667 36.333 18.667 51 24
c14 4 31.333 8.33301 52 13l80 8l53 -4c12 -1.33301 24.333 -3.66602 37 -6.99902c10.667 -2.66699 23 -8 37 -16c35.333 -16.667 68.666 -48 99.999 -94c30 -48 45 -121 45 -219v-586h-123v586l-2 47v33l-8 24c-8 31.333 -24.333 62 -49 92s-63.667 45 -117 45l-35 -4
c-12 0 -23.667 -2.66699 -35 -8c-48.667 -16 -93.667 -50.667 -135 -104c-40.667 -54.667 -61 -133.334 -61 -236.001v-475h-123v580l-2 32l-2 33c-4 46.667 -17.667 89 -41 127c-23.333 36.667 -65.666 55 -126.999 55c-72.667 0 -132.167 -30.667 -178.5 -92
s-75.5 -129 -87.5 -203l-5 -28v-29v-475h-122v889h122v-154c23.333 41.333 48 74.333 74 99z" />
    <glyph glyph-name="n" unicode="n" horiz-adv-x="1034" 
d="M152 889l121.998 -0.000976562v-148l21 35l33 43c20 22 51.333 46 94 72c42 23.333 92.333 35 151 35c98.667 0 175.334 -30.667 230.001 -92c53.333 -63.333 80 -151.666 80 -264.999v-569h-123v553l-2 37l-2 39c0 23.333 -4.33301 46.333 -13 69
c-8 22 -19.333 44 -34 66c-26 42 -76 63 -150 63c-84.667 0 -151.667 -32.667 -201 -98c-43.333 -64 -70.666 -136.333 -81.999 -217l-2 -25v-24v-463h-122v889z" />
    <glyph glyph-name="o" unicode="o" horiz-adv-x="1155" 
d="M240 90c-97.333 84.667 -146.002 202.666 -146.002 353.999c0 134 44.333 247.833 133 341.5s205.667 140.5 351 140.5c144.667 0 261.334 -46.833 350.001 -140.5s133 -207.5 133 -341.5c0 -133.333 -43.667 -246.666 -131 -339.999
c-87.333 -92.667 -204.666 -139 -351.999 -139h-13c-122.667 0 -231 41.667 -325 125zM837.998 179.999c61.333 80.667 92 168.666 92 263.999c0 96 -30.667 184.333 -92 265c-63.333 78.667 -150 118 -260 118c-110.667 0 -197 -38.667 -259 -116
c-62.667 -79.333 -94 -168.333 -94 -267c0 -95.333 31.333 -182.666 94 -261.999c62 -80.667 148.333 -121 259 -121c110 0 196.667 39.667 260 119z" />
    <glyph glyph-name="p" unicode="p" horiz-adv-x="1151" 
d="M266 889l0.000976562 -158c27.333 53.333 68.333 99 123 137c53.333 38.667 123 58 209 58c139.333 0 250.666 -46 333.999 -138c83.333 -91.333 125 -206 125 -344c0 -155.333 -45.667 -274 -137 -356c-93.333 -82 -199.333 -123 -318 -123
c-70.667 0 -128 11.667 -172 35c-43.333 23.333 -80.333 50 -111 80l-26 31l-19 26v-567h-122v1319h114zM842.001 174c56 76.667 83.999 166.667 83.999 270l-2 41l-4 41c-12.667 72.667 -45 141 -97 205c-53.333 64 -132.333 96 -237 96
c-97.333 0 -174.666 -38 -231.999 -114c-58.667 -78 -88 -167.667 -88 -269c0 -120 33.667 -213.333 101 -280c66.667 -68.667 145 -103 235 -103c105.333 0 185.333 37.667 240 113z" />
    <glyph glyph-name="q" unicode="q" horiz-adv-x="1151" 
d="M877 -430l-0.000976562 566.998l-25 -35c-5.33301 -6.66699 -11.5 -14 -18.5 -22s-14.5 -15.667 -22.5 -23c-24.667 -21.333 -58 -41.666 -100 -60.999c-44 -20.667 -95.333 -31 -154 -31c-120 0 -227 41 -321 123c-94.667 80.667 -142 199.334 -142 356.001
c0 134 43 248 129 342c84.667 93.333 197.334 140 338.001 140l68 -6c10.667 0 20 -0.666992 28 -2c8.66699 -2 26.667 -8.33301 54 -19s57.333 -30.334 90 -59.001c30 -23.333 58 -59.666 84 -108.999v158h114v-1319h-122zM790.999 161.998
c62.667 69.333 94 163.333 94 282c0 100 -28.667 188.833 -86 266.5s-136.666 116.5 -237.999 116.5c-98 0 -178.667 -36.667 -242 -110c-62.667 -74 -94 -165 -94 -273c0 -99.333 29.333 -188 88 -266c57.333 -78 138.666 -117 243.999 -117
c92.667 0 170.667 33.667 234 101z" />
    <glyph glyph-name="r" unicode="r" horiz-adv-x="666" 
d="M152 889l122.001 0.00195312v-187c11.333 23.333 23.666 45.333 36.999 66c12.667 19.333 25.667 36.333 39 51c23.333 27.333 48 48.666 74 63.999l53 20l58 6c22.667 0 41.667 -1.33301 57 -4c13.333 -2.66699 24.333 -6 33 -10l10 -4l8 -2l-37 -115l-8 4l-35 13l-45 6
h-6c-52 0 -100.333 -30 -145 -90c-46.667 -60.667 -76 -128.334 -88 -203.001l-5 -23v-22v-459h-122v889z" />
    <glyph glyph-name="s" unicode="s" horiz-adv-x="782" 
d="M166 236c14.667 -42.667 40.6621 -82.9971 77.9951 -120.997c38 -36 86.333 -54 145 -54s104.334 16.667 137.001 50c32.667 31.333 49 73.666 49 126.999c0 44.667 -14.333 80.667 -43 108c-30 26 -62 44.333 -96 55l-37 13l-34 10l-13 4
c-58.667 18 -114 44.667 -166 80c-53.333 34 -80 90 -80 168s28 139.333 84 184c54.667 44 121.667 66 201 66l62 -6c10.667 -1.33301 21.834 -3.83301 33.501 -7.5s26.834 -9.5 45.501 -17.5c18 -9.33301 40 -25.666 66 -48.999c26 -24.667 49.333 -59 70 -103l-93 -49
c-16 41.333 -41.667 73.666 -77 96.999c-32.667 24 -71.667 36 -117 36c-48 0 -85 -13.667 -111 -41c-27.333 -28.667 -41 -62 -41 -100c0 -40.667 12.333 -71.334 37 -92.001c24.667 -16.667 57.667 -33 99 -49l20 -6l25 -9l20 -8l23 -6
c62.667 -20.667 120 -49.334 172 -86.001c51.333 -38 77 -100.667 77 -188c0 -16.667 -1.33301 -29.667 -4 -39c0 -12.667 -2.66699 -26.334 -8 -41.001c-13.333 -49.333 -44 -94.333 -92 -135c-49.333 -41.333 -123 -62 -221 -62l-72 6
c-19.333 2.66699 -33.666 5.5 -42.999 8.5s-23.666 9.83301 -42.999 20.5c-28.667 13.333 -56 34.333 -82 63c-27.333 28.667 -51 68.334 -71 119.001z" />
    <glyph glyph-name="t" unicode="t" horiz-adv-x="512" 
d="M180 791h-143v98h143v344h123v-344h172v-98h-172v-791h-123v791z" />
    <glyph glyph-name="u" unicode="u" horiz-adv-x="1047" 
d="M274 889v-538.998l2 -57c0 -24.667 6.33301 -51.334 19 -80.001c12 -38 36 -72.667 72 -104c34 -32 86.333 -48 157 -48c71.333 0 124 16.667 158 50c34 31.333 58.667 68 74 110l12 72l4 57v539h123v-524c0 -127.333 -24.667 -218.333 -74 -273
c-48.667 -54.667 -104.667 -91.334 -168 -110.001l-67 -13l-62 -4c-26 0 -46.333 1.33301 -61 4c-19.333 0 -41.333 4.33301 -66 13c-60 13.333 -116 49.333 -168 108c-51.333 57.333 -77 149 -77 275v524h122z" />
    <glyph glyph-name="v" unicode="v" horiz-adv-x="889" 
d="M14 889h138l297 -674l292 674h133l-430 -934z" />
    <glyph glyph-name="w" unicode="w" horiz-adv-x="1421" 
d="M424 -45l-410 934h144l272 -645l281 733l280 -733l273 645h143l-410 -934l-286 741z" />
    <glyph glyph-name="x" unicode="x" horiz-adv-x="854" 
d="M352 457l-315 432h158l237 -346l221 346h144l-295 -430l329 -459h-155l-252 373l-244 -373h-157z" />
    <glyph glyph-name="y" unicode="y" horiz-adv-x="928" 
d="M162 889l334 -752l284 752h125l-524 -1319h-133l184 438l-409 881h139z" />
    <glyph glyph-name="z" unicode="z" horiz-adv-x="870" 
d="M805 889l-559 -791h573v-98h-782l567 791h-526v98h727z" />
    <glyph glyph-name="braceleft" unicode="{" horiz-adv-x="678" 
d="M102 557c10 0 20.333 2.66699 31 8l37 17c31.333 16 60 46.667 86 92c26 43.333 39 107.333 39 192l-2 86l-2 35l-4 33v80v22l2 25c0 64 20.333 126.667 61 188c41.333 60 116.333 96.333 225 109v-94c-40.667 -4.66699 -72 -17.667 -94 -39
c-21.333 -22 -36.333 -46.667 -45 -74l-10 -53l-2 -41v-29v-29v-28l2 -29v-31l2 -30l2 -33v-31v-29v-24c-2.66699 -14 -4 -23.667 -4 -29c0 -20 -0.666992 -35.167 -2 -45.5s-6 -25.833 -14 -46.5c-12.667 -43.333 -36.667 -84.333 -72 -123
c-32.667 -39.333 -82.667 -72 -150 -98v-10c64.667 -24.667 114.667 -57.667 150 -99c30 -35.333 54 -76.333 72 -123c4 -16 7.33301 -33 10 -51c2.66699 -17.333 4.66699 -31 6 -41l4 -82v-30l-2 -31l-2 -33v-28l-2 -29v-29v-28v-29l2 -41c0 -18 3.33301 -36.333 10 -55
c6.66699 -20.667 21 -44 43 -70c19.333 -19.333 51.333 -33 96 -41v-96c-107.333 12 -180.333 46.667 -219 104c-38 57.333 -60.333 122.333 -67 195l-2 24v23v80c0 14.667 1.33301 24.667 4 30l2 35l2 86c0 86 -12.333 151 -37 195c-26 42 -55.333 72 -88 90l-37 16l-31 9
v108z" />
    <glyph glyph-name="bar" unicode="|" horiz-adv-x="319" 
d="M102 1698h115v-2157h-115v2157z" />
    <glyph glyph-name="braceright" unicode="}" horiz-adv-x="678" 
d="M575 449l-32.002 -9.00195l-35 -16c-30 -16.667 -58 -46.667 -84 -90c-27.333 -45.333 -41 -110.333 -41 -195v-86c0 -16 1.33301 -27.667 4 -35l2 -30l2 -80v-23l-2 -24c0 -64.667 -21.667 -128.334 -65 -191.001c-38.667 -58.667 -112.667 -94 -222 -106v92
c40 5.33301 70.833 19 92.5 41s37.5 46.667 47.5 74l10 53l2 41v29v28l-2 29v29l-2 28v33l-2 31v30l2 82c0 16.667 1.33301 30.334 4 41.001c1.33301 10 7.33301 32 18 66c10 32.667 32 68.667 66 108c32.667 40 83 73 151 99v10c-62.667 23.333 -113 56 -151 98
c-31.333 38.667 -54.666 79.667 -69.999 123l-18 92l-2 82v31l2 33v30l2 31v29l2 28v29v29l-2 41c0 17.333 -3.33301 36.333 -10 57c-8.66699 20.667 -23.167 41.834 -43.5 63.501s-52.5 36.834 -96.5 45.501v94c106.667 -11.333 180.667 -47 222 -107
c36.667 -54.667 58.334 -118 65.001 -190l2 -25v-22l-2 -80l-2 -33l-4 -35v-86c0 -86 12.333 -149.5 37 -190.5s54 -72.167 88 -93.5l35 -17l32 -8v-108z" />
    <glyph glyph-name="asciitilde" unicode="~" horiz-adv-x="1229" 
d="M102 754c24.667 24.667 52 45 82 61c28.667 16.667 61.667 29 99 37l22 2l23 2c43.333 0 91 -9 143 -27l172 -61l145 -55c45.333 -14 83 -21 113 -21c27.333 0 60.5 6.16699 99.5 18.5s80.833 40.5 125.5 84.5v-115c-22.667 -23.333 -50.667 -45.333 -84 -66
c-30 -16 -62 -26.667 -96 -32l-22 -4h-23c-43.333 0 -91 8.66699 -143 26l-172 62l-148 53c-42 14.667 -78.667 22 -110 22c-27.333 0 -60.5 -6 -99.5 -18s-81.167 -40 -126.5 -84v115z" />
    <glyph glyph-name="space.0" horiz-adv-x="0" 
 />
    <glyph glyph-name="F.0" horiz-adv-x="1411" 
d="M410 1319l-387 0.000976562v115h968v-115h-442v-494c60 19.333 113.333 31.666 160 36.999l118 8c139.333 0 256.333 -38 351 -114c92.667 -76.667 139 -187.334 139 -332.001c0 -138 -41 -243.167 -123 -315.5s-208.333 -108.5 -379 -108.5v115h80l51 4
c20.667 2.66699 40 8 58 16c42 16.667 80.667 47.334 116 92.001c36 45.333 54 111 54 197c0 99.333 -29.667 180 -89 242c-58.667 60 -145.334 90 -260.001 90h-67c-23.333 -4 -48.666 -7.66699 -75.999 -11c-28.667 -2.66699 -73 -17 -133 -43v-702h-139v1319z" />
    <glyph glyph-name="F.0" unicode="&#x402;" horiz-adv-x="1411" 
d="M410 1319l-387 0.000976562v115h968v-115h-442v-494c60 19.333 113.333 31.666 160 36.999l118 8c139.333 0 256.333 -38 351 -114c92.667 -76.667 139 -187.334 139 -332.001c0 -138 -41 -243.167 -123 -315.5s-208.333 -108.5 -379 -108.5v115h80l51 4
c20.667 2.66699 40 8 58 16c42 16.667 80.667 47.334 116 92.001c36 45.333 54 111 54 197c0 99.333 -29.667 180 -89 242c-58.667 60 -145.334 90 -260.001 90h-67c-23.333 -4 -48.666 -7.66699 -75.999 -11c-28.667 -2.66699 -73 -17 -133 -43v-702h-139v1319z" />
    <glyph glyph-name="asciitilde.0" horiz-adv-x="834" 
d="M180 1434h631v-115h-492v-1319h-139v1434z" />
    <glyph glyph-name="asciitilde.0" unicode="&#x403;" horiz-adv-x="834" 
d="M180 1434h631v-115h-492v-1319h-139v1434z" />
    <glyph glyph-name="D.0" horiz-adv-x="1169" 
d="M180 1434h139v-666l642 666h172l-680 -695l694 -739h-186l-642 696v-696h-139v1434z" />
    <glyph glyph-name="D.0" unicode="&#x40c;" horiz-adv-x="1169" 
d="M180 1434h139v-666l642 666h172l-680 -695l694 -739h-186l-642 696v-696h-139v1434z" />
    <glyph glyph-name="N.0" horiz-adv-x="1456" 
d="M410 1319h-387.001v115h970v-115h-444v-502l151 10l62 4h22h29h25h32c206.667 0 332.334 -36 377.001 -108c44 -74 66 -159.333 66 -256v-467h-139v434c0 142 -31 224.667 -93 248c-61.333 23.333 -133 35 -215 35h-10h-8h-21h-16l-18 -2h-17h-43
c-13.333 0 -29.666 -1.33301 -48.999 -4h-43c-10.667 0 -41.334 -3 -92.001 -9v-702h-139v1319z" />
    <glyph glyph-name="N.0" unicode="&#x40b;" horiz-adv-x="1456" 
d="M410 1319h-387.001v115h970v-115h-444v-502l151 10l62 4h22h29h25h32c206.667 0 332.334 -36 377.001 -108c44 -74 66 -159.333 66 -256v-467h-139v434c0 142 -31 224.667 -93 248c-61.333 23.333 -133 35 -215 35h-10h-8h-21h-16l-18 -2h-17h-43
c-13.333 0 -29.666 -1.33301 -48.999 -4h-43c-10.667 0 -41.334 -3 -92.001 -9v-702h-139v1319z" />
    <glyph glyph-name="bullet.0" horiz-adv-x="1468" 
d="M180 1434h139v-1319h830v1319h139v-1434h-489v-348h-129v348h-490v1434z" />
    <glyph glyph-name="bullet.0" unicode="&#x40f;" horiz-adv-x="1468" 
d="M180 1434h139v-1319h830v1319h139v-1434h-489v-348h-129v348h-490v1434z" />
    <glyph glyph-name="guilsinglleft.0" horiz-adv-x="995" 
d="M150 1167h-136v99h136v239h122v-239h459v-99h-459v-426l9 17l12 20c23.333 35.333 58 69 104 101c46.667 31.333 104.667 47 174 47c94.667 0 164.334 -26 209.001 -78c45.333 -53.333 78.333 -114.666 99 -183.999l18 -113l4 -90
c0 -88.667 -10.333 -169.334 -31 -242.001c-21.333 -72 -55.333 -143.667 -102 -215c-13.333 -22 -26.333 -41 -39 -57c-13.333 -18 -30.333 -38 -51 -60c-32.667 -40.667 -70.334 -82.334 -113.001 -125.001l-71 66l98 131c14.667 18 28.334 36.333 41.001 55l37 58
c31.333 56 55.666 115.333 72.999 178c18 62.667 27 138.334 27 227.001c0 113.333 -18.333 200 -55 260c-38.667 60 -91.334 90 -158.001 90c-16.667 0 -29 -1.33301 -37 -4c-13.333 0 -25.666 -2.66699 -36.999 -8c-53.333 -18 -101.833 -56.333 -145.5 -115
s-65.5 -137.667 -65.5 -237v-463h-122v1167z" />
    <glyph glyph-name="guilsinglleft.0" unicode="&#x452;" horiz-adv-x="995" 
d="M150 1167h-136v99h136v239h122v-239h459v-99h-459v-426l9 17l12 20c23.333 35.333 58 69 104 101c46.667 31.333 104.667 47 174 47c94.667 0 164.334 -26 209.001 -78c45.333 -53.333 78.333 -114.666 99 -183.999l18 -113l4 -90
c0 -88.667 -10.333 -169.334 -31 -242.001c-21.333 -72 -55.333 -143.667 -102 -215c-13.333 -22 -26.333 -41 -39 -57c-13.333 -18 -30.333 -38 -51 -60c-32.667 -40.667 -70.334 -82.334 -113.001 -125.001l-71 66l98 131c14.667 18 28.334 36.333 41.001 55l37 58
c31.333 56 55.666 115.333 72.999 178c18 62.667 27 138.334 27 227.001c0 113.333 -18.333 200 -55 260c-38.667 60 -91.334 90 -158.001 90c-16.667 0 -29 -1.33301 -37 -4c-13.333 0 -25.666 -2.66699 -36.999 -8c-53.333 -18 -101.833 -56.333 -145.5 -115
s-65.5 -137.667 -65.5 -237v-463h-122v1167z" />
    <glyph glyph-name="O.0" horiz-adv-x="877" 
d="M152 889h122v-397l398 397h147l-428 -414l463 -475h-158l-422 444v-444h-122v889z" />
    <glyph glyph-name="O.0" unicode="&#x45c;" horiz-adv-x="877" 
d="M152 889h122v-397l398 397h147l-428 -414l463 -475h-158l-422 444v-444h-122v889z" />
    <glyph glyph-name="tilde.0" horiz-adv-x="1032" 
d="M150 1167l-136.002 -0.000976562v99h136v239h122v-239h459v-99h-459v-426l21 35l33 43c20 22 51.333 46 94 72c42 23.333 92.333 35 151 35c98.667 0 175.334 -30.667 230.001 -92c53.333 -63.333 80 -151.666 80 -264.999v-569h-123v553l-2 37l-2 39
c0 23.333 -4.33301 46.333 -13 69c-8 22 -19.333 44 -34 66c-26 42 -76 63 -150 63c-84.667 0 -151.667 -32.667 -201 -98c-43.333 -64 -70.666 -136.333 -81.999 -217l-2 -25v-24v-463h-122v1167z" />
    <glyph glyph-name="tilde.0" unicode="&#x45b;" horiz-adv-x="1032" 
d="M150 1167l-136.002 -0.000976562v99h136v239h122v-239h459v-99h-459v-426l21 35l33 43c20 22 51.333 46 94 72c42 23.333 92.333 35 151 35c98.667 0 175.334 -30.667 230.001 -92c53.333 -63.333 80 -151.666 80 -264.999v-569h-123v553l-2 37l-2 39
c0 23.333 -4.33301 46.333 -13 69c-8 22 -19.333 44 -34 66c-26 42 -76 63 -150 63c-84.667 0 -151.667 -32.667 -201 -98c-43.333 -64 -70.666 -136.333 -81.999 -217l-2 -25v-24v-463h-122v1167z" />
    <glyph glyph-name="nonbreakingspace" unicode="&#xa0;" 
 />
    <glyph glyph-name="exclamdown" unicode="&#xa1;" horiz-adv-x="1149" 
d="M551 434l-522 1000h157l435 -854l387 854h141l-655 -1434h-142zM432 1743c12.667 -40 34.667 -68.6689 66 -86.002c30 -19.333 63.333 -31 100 -35h8h8c52 0 91.667 10.333 119 31c26 20 45.333 45.333 58 76l2 6l4 8l112 -45c-17.333 -44 -42.333 -80.333 -75 -109
c-27.333 -23.333 -59.666 -41 -96.999 -53c-14.667 -6.66699 -36.334 -12 -65.001 -16l-58 -4l-61 4l-68 18c-34 10.667 -65.333 28.334 -94 53.001s-51.667 60.334 -69 107.001z" />
    <glyph glyph-name="exclamdown" unicode="&#x40e;" horiz-adv-x="1149" 
d="M551 434l-522 1000h157l435 -854l387 854h141l-655 -1434h-142zM432 1743c12.667 -40 34.667 -68.6689 66 -86.002c30 -19.333 63.333 -31 100 -35h8h8c52 0 91.667 10.333 119 31c26 20 45.333 45.333 58 76l2 6l4 8l112 -45c-17.333 -44 -42.333 -80.333 -75 -109
c-27.333 -23.333 -59.666 -41 -96.999 -53c-14.667 -6.66699 -36.334 -12 -65.001 -16l-58 -4l-61 4l-68 18c-34 10.667 -65.333 28.334 -94 53.001s-51.667 60.334 -69 107.001z" />
    <glyph glyph-name="cent" unicode="&#xa2;" horiz-adv-x="928" 
d="M162 889l334 -752l284 752h125l-524 -1319h-133l184 438l-409 881h139zM313 1313l1.99902 -6c8.66699 -36 28 -69.667 58 -101s71 -47 123 -47c43.333 0 77.333 9.66699 102 29c24.667 17.333 43.667 38.333 57 63l15 33l8 29l113 -45
c-18 -60 -54.333 -109.333 -109 -148c-56 -39.333 -118 -59 -186 -59c-67.333 0 -127.666 18.333 -180.999 55c-54.667 35.333 -92 86 -112 152z" />
    <glyph glyph-name="cent" unicode="&#x45e;" horiz-adv-x="928" 
d="M162 889l334 -752l284 752h125l-524 -1319h-133l184 438l-409 881h139zM313 1313l1.99902 -6c8.66699 -36 28 -69.667 58 -101s71 -47 123 -47c43.333 0 77.333 9.66699 102 29c24.667 17.333 43.667 38.333 57 63l15 33l8 29l113 -45
c-18 -60 -54.333 -109.333 -109 -148c-56 -39.333 -118 -59 -186 -59c-67.333 0 -127.666 18.333 -180.999 55c-54.667 35.333 -92 86 -112 152z" />
    <glyph glyph-name="sterling" unicode="&#xa3;" horiz-adv-x="846" 
d="M268 188l8 -12l11 -10c34 -38 68.667 -62.833 104 -74.5s65.333 -17.5 90 -17.5c88.667 0 144.667 29.333 168 88c23.333 57.333 35 131.666 35 222.999v1049h139v-1057l-2 -51l-2 -54c-8 -77.333 -34.667 -148.333 -80 -213c-44.667 -65.333 -132.667 -98 -264 -98
c-48 0 -91.667 7 -131 21c-20.667 6.66699 -39 15.334 -55 26.001c-18 10 -37.333 23 -58 39l-26 23l-25 26z" />
    <glyph glyph-name="sterling" unicode="&#x408;" horiz-adv-x="846" 
d="M268 188l8 -12l11 -10c34 -38 68.667 -62.833 104 -74.5s65.333 -17.5 90 -17.5c88.667 0 144.667 29.333 168 88c23.333 57.333 35 131.666 35 222.999v1049h139v-1057l-2 -51l-2 -54c-8 -77.333 -34.667 -148.333 -80 -213c-44.667 -65.333 -132.667 -98 -264 -98
c-48 0 -91.667 7 -131 21c-20.667 6.66699 -39 15.334 -55 26.001c-18 10 -37.333 23 -58 39l-26 23l-25 26z" />
    <glyph glyph-name="currency" unicode="&#xa4;" horiz-adv-x="1352" 
d="M160 518c-24.667 57.333 -36.998 123.669 -36.998 199.002c0 73.333 13 139.333 39 198c24.667 57.333 53.334 108 86.001 152l-146 145l78 78l146 -145c42 34 92.333 63.333 151 88c57.333 24.667 123.666 37 198.999 37c73.333 0 139.333 -11.667 198 -35
c58 -24.667 108.667 -54.667 152 -90l145 145l78 -78l-145 -145c32.667 -40.667 62 -90.334 88 -149.001c24.667 -60.667 37 -127.667 37 -201c0 -72.667 -11.667 -137.667 -35 -195c-23.333 -58.667 -53.333 -110.334 -90 -155.001l145 -146l-78 -78l-145 146
c-40.667 -31.333 -90.334 -60 -149.001 -86c-60.667 -26 -127.667 -39 -201 -39c-72.667 0 -137.667 12.333 -195 37c-58.667 24.667 -110.334 54 -155.001 88l-146 -146l-78 78l146 146c-32.667 42 -62 92.333 -88 151zM362.002 408.003c84.667 -86 189.333 -129 314 -129
c121.333 0 225 43.667 311 131c84.667 86 127 188.333 127 307c0 121.333 -41.667 225 -125 311c-83.333 84.667 -187.666 127 -312.999 127c-122.667 0 -226.334 -43 -311.001 -129s-127 -189 -127 -309c0 -118.667 41.333 -221.667 124 -309z" />
    <glyph glyph-name="yen" unicode="&#xa5;" horiz-adv-x="834" 
d="M180 1434h502v243h129v-358h-492v-1319h-139v1434z" />
    <glyph glyph-name="yen" unicode="&#x490;" horiz-adv-x="834" 
d="M180 1434h502v243h129v-358h-492v-1319h-139v1434z" />
    <glyph glyph-name="brokenbar" unicode="&#xa6;" horiz-adv-x="1778" 
d="M1516 717c0 196 -62.332 352.332 -186.999 468.999c-124 116 -270.667 174 -440 174c-166.667 0 -312.667 -58.667 -438 -176l-127 65c71.333 76.667 153.666 133.5 246.999 170.5s199.333 55.5 318 55.5c206 0 387 -67.667 543 -203c154 -136.667 231 -321.667 231 -555
s-77 -417.666 -231 -552.999c-156 -135.333 -337 -203 -543 -203c-207.333 0 -388.333 68.333 -543 205c-154 136 -231 319.667 -231 551h1401zM272.001 589.999c12 -68 32.332 -130 60.999 -186s67.334 -107.333 116.001 -154c124 -117.333 270.667 -176 440 -176
c168 0 314.667 58.667 440 176c100.667 93.333 160 212 178 356z" />
    <glyph glyph-name="section" unicode="&#xa7;" horiz-adv-x="967" 
d="M262 0l0.00292969 -7.99902c0 -52 17.667 -99.333 53 -142c34.667 -42 93.667 -63 177 -63c50 0 95.5 14.333 136.5 43s61.5 73 61.5 133c0 65.333 -17.667 114.666 -53 147.999c-36.667 32.667 -77 57 -121 73l-37 13l-33 10l-65 20l-74 31
c-50.667 24.667 -98.334 61.667 -143.001 111c-42.667 50 -64 119.667 -64 209c0 76 20.5 141.333 61.5 196s97.833 95.667 170.5 123c-57.333 22 -101 55.333 -131 100c-24.667 42.667 -40.334 90 -47.001 142v10v10v25c0 10.667 1.33301 18.667 4 24
c9.33301 64.667 42 125.667 98 183c56 56 133 84 231 84c105.333 0 184.666 -31 237.999 -93c52 -61.333 83.333 -131.666 94 -210.999v-24l2 -25v-4v-6h-129v37l-4 41c-2.66699 18 -8 35.667 -16 53c-12.667 28.667 -33.334 55.334 -62.001 80.001s-68 37 -118 37
c-54.667 0 -102.667 -18.333 -144 -55c-42 -38.667 -63 -88.667 -63 -150c0 -48 14.333 -89.667 43 -125c28.667 -30 93.334 -59.333 194.001 -88l35 -10l35 -10c69.333 -23.333 132.666 -59 189.999 -107c56 -49.333 84 -124.333 84 -225c0 -82 -22.333 -151 -67 -207
c-46.667 -56 -103.334 -97 -170.001 -123c54.667 -20.667 100.334 -55.334 137.001 -104.001c36.667 -50.667 55 -112.334 55 -185.001c0 -87.333 -30 -159 -90 -215c-61.333 -56 -142.666 -84 -243.999 -84c-102 0 -177.667 20.5 -227 61.5s-84 87.5 -104 139.5l-19 70
l-4 57h129zM651.003 393.001c50.667 42.667 76 105.667 76 189c0 82 -25.333 144 -76 186s-106.667 63 -168 63c-69.333 0 -128 -24.333 -176 -73c-44.667 -49.333 -67 -108 -67 -176c0 -70 22.333 -129.667 67 -179c45.333 -48.667 104 -73 176 -73
c61.333 0 117.333 21 168 63z" />
    <glyph glyph-name="dieresis" unicode="&#xa8;" horiz-adv-x="1063" 
d="M180 1434h768v-115h-629v-459h607v-115h-607v-630h629v-115h-768v1434zM342 1706c18 18 37.667 26.998 59 26.998h7c24 0 45.667 -8.33301 65 -25c18 -18 27 -41.333 27 -70c0 -26 -9 -47.667 -27 -65c-19.333 -19.333 -41 -29 -65 -29h-9l-6 2
c-17.333 1.33301 -34.333 10.333 -51 27c-18 14.667 -27 36.334 -27 65.001s9 51.334 27 68.001zM672 1706c20 18 41.668 27 65.001 27c24.667 0 46.667 -8.33301 66 -25c17.333 -18 26 -41.333 26 -70c0 -26 -8.66699 -47.667 -26 -65c-19.333 -19.333 -41.333 -29 -66 -29
s-46.334 9 -65.001 27c-18 20.667 -27 43 -27 67c0 27.333 9 50 27 68z" />
    <glyph glyph-name="dieresis" unicode="&#x401;" horiz-adv-x="1063" 
d="M180 1434h768v-115h-629v-459h607v-115h-607v-630h629v-115h-768v1434zM342 1706c18 18 37.667 26.998 59 26.998h7c24 0 45.667 -8.33301 65 -25c18 -18 27 -41.333 27 -70c0 -26 -9 -47.667 -27 -65c-19.333 -19.333 -41 -29 -65 -29h-9l-6 2
c-17.333 1.33301 -34.333 10.333 -51 27c-18 14.667 -27 36.334 -27 65.001s9 51.334 27 68.001zM672 1706c20 18 41.668 27 65.001 27c24.667 0 46.667 -8.33301 66 -25c17.333 -18 26 -41.333 26 -70c0 -26 -8.66699 -47.667 -26 -65c-19.333 -19.333 -41.333 -29 -66 -29
s-46.334 9 -65.001 27c-18 20.667 -27 43 -27 67c0 27.333 9 50 27 68z" />
    <glyph glyph-name="copyright" unicode="&#xa9;" horiz-adv-x="1720" 
d="M322 1249c147.333 150.667 326.667 225.997 538 225.997c206 0 384.333 -73.333 535 -220c148.667 -147.333 223 -326.666 223 -537.999c0 -209.333 -74.5 -387.666 -223.5 -534.999s-327.167 -221 -534.5 -221c-210 0 -388.833 74.833 -536.5 224.5
s-221.5 326.834 -221.5 531.501s73.333 382 220 532zM403.001 263.997c123.333 -126.667 275.667 -189.999 457 -189.999c178.667 0 331 64 457 192c124 127.333 186 277.666 186 450.999s-61.333 324 -184 452c-124 127.333 -277 191 -459 191
c-178.667 0 -330 -63.667 -454 -191c-126 -128 -189 -278.667 -189 -452s62 -324.333 186 -453zM1038 263.998c-20 -5.33301 -42.998 -10 -68.998 -14c-27.333 -4 -54 -6 -80 -6c-142 0 -254.667 47.667 -338 143c-84.667 94 -127 204 -127 330v8v10c0 54.667 11 108 33 160
c20 52 51.333 102.667 94 152c83.333 95.333 196 143 338 143c31.333 0 53.666 -1.33301 66.999 -4c23.333 0 44.666 -3.33301 63.999 -10c20.667 -4.66699 44.667 -13 72 -25c13.333 -4 25.333 -8.66699 36 -14c11.333 -6 25.666 -14.333 42.999 -25v-160l-30 19l-31 16
c-35.333 19.333 -71.666 34.333 -108.999 45c-36.667 10 -74 15 -112 15c-91.333 0 -163 -32.333 -215 -97c-52 -64 -78 -141.667 -78 -233c0 -96 26 -174.667 78 -236c52 -62.667 123.667 -94 215 -94l80 6c26 4 52 11 78 21l61 24l63 37v-156
c-42 -22.667 -86.333 -41 -133 -55z" />
    <glyph glyph-name="ordfeminine" unicode="&#xaa;" horiz-adv-x="922" 
d="M180 1434h725v-115h-586v-459h523v-115h-523v-745h-139v1434z" />
    <glyph glyph-name="ordfeminine" unicode="&#x404;" horiz-adv-x="922" 
d="M180 1434h725v-115h-586v-459h523v-115h-523v-745h-139v1434z" />
    <glyph glyph-name="guillemotleft" unicode="&#xab;" horiz-adv-x="889" 
d="M393 883l86 -58l-268 -374l268 -377l-86 -58l-307 435zM709 883l86 -58l-269 -374l269 -377l-86 -58l-308 435z" />
    <glyph glyph-name="logicalnot" unicode="&#xac;" horiz-adv-x="1169" 
d="M1171 16v-172h-163v148c-6.66699 1.33301 -15.5 3 -26.5 5s-17.833 3 -20.5 3l-642 696v-696h-139v1434h139v-666l642 666h172l-680 -695l567 -604l151 4v-123z" />
    <glyph glyph-name="minus" unicode="&#xad;" horiz-adv-x="1464" 
d="M1286 0h-141v731h-826v-731h-139v1434h139v-588h826v588h139v-1295c14 1.33301 34.5 3 61.5 5s51.5 3 73.5 3c31.333 0 47 -2.66699 47 -8v-311h-180v172z" />
    <glyph glyph-name="registered" unicode="&#xae;" horiz-adv-x="1733" 
d="M334 1253c150 148 327.333 221.999 532 221.999c203.333 0 381 -73.333 533 -220c150 -147.333 225 -326.666 225 -537.999c0 -212 -75 -391 -225 -537s-327.667 -219 -533 -219c-204.667 0 -382 73 -532 219s-225 325 -225 537c0 211.333 75 390 225 536zM412 263.999
c125.333 -126.667 276.667 -190 454 -190c173.333 0 324.333 62 453 186c126.667 122.667 190 275 190 457c0 178.667 -63.333 331 -190 457c-128.667 124 -279.667 186 -453 186c-176 0 -326.667 -63.667 -452 -191c-127.333 -128 -191 -278.667 -191 -452
c0 -172 63 -323 189 -453zM588.001 1161l335.999 0.000976562l49 -4c20.667 -1.33301 45.334 -7.33301 74.001 -18c28.667 -12.667 58 -35.334 88 -68.001c28.667 -34 43 -83.667 43 -149c0 -62 -17.333 -112 -52 -150c-34 -38 -72.667 -63.333 -116 -76l-33 -8l-29 -2h-20
l280 -414h-168l-270 410h-39v-410h-143v889zM731 797l123 0.000976562c65.333 0 108.333 9.33301 129 28c19.333 19.333 32.333 42 39 68l2 14v15c0 35.333 -9.66699 64.666 -29 87.999c-16 24.667 -56.333 37 -121 37h-143v-250z" />
    <glyph glyph-name="macron" unicode="&#xaf;" horiz-adv-x="1778" 
d="M324 1249c138.667 150.667 327 226 565 226c206 0 387 -67.667 543 -203c154 -136.667 231 -321.667 231 -555s-77 -417.666 -231 -552.999c-156 -135.333 -337 -203 -543 -203c-207.333 0 -388.333 68.333 -543 205c-154 135.333 -231 319 -231 551
c0 203.333 69.667 380.666 209 531.999zM1513 649l-1259 15l16 -50l49 -188l130 -176c124 -117.333 270.667 -176 440 -176c168 0 314.667 58.667 440 176c108.667 103.333 170 236.333 184 399zM266 803h1245c-8 78 -27.167 149 -57.5 213s-71.833 120.667 -124.5 170
c-124 116 -270.667 174 -440 174c-168 0 -314 -58.667 -438 -176c-106 -100 -167.667 -227 -185 -381z" />
    <glyph glyph-name="macron" unicode="&#x407;" horiz-adv-x="1778" 
d="M324 1249c138.667 150.667 327 226 565 226c206 0 387 -67.667 543 -203c154 -136.667 231 -321.667 231 -555s-77 -417.666 -231 -552.999c-156 -135.333 -337 -203 -543 -203c-207.333 0 -388.333 68.333 -543 205c-154 135.333 -231 319 -231 551
c0 203.333 69.667 380.666 209 531.999zM1513 649l-1259 15l16 -50l49 -188l130 -176c124 -117.333 270.667 -176 440 -176c168 0 314.667 58.667 440 176c108.667 103.333 170 236.333 184 399zM266 803h1245c-8 78 -27.167 149 -57.5 213s-71.833 120.667 -124.5 170
c-124 116 -270.667 174 -440 174c-168 0 -314 -58.667 -438 -176c-106 -100 -167.667 -227 -185 -381z" />
    <glyph glyph-name="degree" unicode="&#xb0;" horiz-adv-x="618" 
d="M147 1409c45.333 45.333 99.334 68 162.001 68c60 0 113.333 -22 160 -66c46.667 -45.333 70 -100 70 -164c0 -61.333 -22.667 -116 -68 -164c-46.667 -43.333 -100.667 -65 -162 -65c-32.667 0 -61.334 4.66699 -86.001 14c-24.667 10 -50 27 -76 51
c-44.667 45.333 -67 100 -67 164c0 62.667 22.333 116.667 67 162zM180.001 1229l5.99902 -17c7.33301 -21.333 21 -43 41 -65c22 -19.333 49.333 -29 82 -29c37.333 0 68 13 92 39c24.667 24.667 37 54.667 37 90c0 37.333 -12.333 68 -37 92c-26 24.667 -56.667 37 -92 37
c-34 0 -61.333 -9.33301 -82 -28c-21.333 -20.667 -35.666 -44.667 -42.999 -72l-4 -14v-15v-18z" />
    <glyph glyph-name="plusminus" unicode="&#xb1;" horiz-adv-x="1077" 
d="M608 508c2.66699 2.66699 21.999 4 57.999 4c26.667 0 55.334 -0.333008 86.001 -1l67 -3v-148h-211v-360h-139v352h-215l-8 164l223 -8v151l-455 775h156l369 -648l368 648h156l-455 -775v-151z" />
    <glyph glyph-name="twosuperior" unicode="&#xb2;" horiz-adv-x="1077" 
d="M469 659l-455 775h156l369 -648l368 648h156l-455 -775v-659h-139v659z" />
    <glyph glyph-name="twosuperior" unicode="&#x406;" horiz-adv-x="1077" 
d="M469 659l-455 775h156l369 -648l368 648h156l-455 -775v-659h-139v659z" />
    <glyph glyph-name="threesuperior" unicode="&#xb3;" horiz-adv-x="1241" 
d="M117 1513h176.003v-768l31 35l45 43c31.333 23.333 76.333 47.333 135 72c62.667 23.333 135.667 35 219 35c143.333 0 252.666 -31.333 327.999 -94c39.333 -30 68.666 -66.333 87.999 -109c18.667 -45.333 28 -97.333 28 -156v-571h-176v555l-2 37l-2 41
c0 44.667 -23 89.667 -69 135c-34.667 40.667 -105.667 61 -213 61c-122 0 -219 -32 -291 -96c-64.667 -65.333 -104.334 -138.333 -119.001 -219l-2 -27v-22v-465h-176v1513z" />
    <glyph glyph-name="threesuperior" unicode="&#x456;" horiz-adv-x="1241" 
d="M117 1513h176.003v-768l31 35l45 43c31.333 23.333 76.333 47.333 135 72c62.667 23.333 135.667 35 219 35c143.333 0 252.666 -31.333 327.999 -94c39.333 -30 68.666 -66.333 87.999 -109c18.667 -45.333 28 -97.333 28 -156v-571h-176v555l-2 37l-2 41
c0 44.667 -23 89.667 -69 135c-34.667 40.667 -105.667 61 -213 61c-122 0 -219 -32 -291 -96c-64.667 -65.333 -104.334 -138.333 -119.001 -219l-2 -27v-22v-465h-176v1513z" />
    <glyph glyph-name="acute" unicode="&#xb4;" horiz-adv-x="1155" 
d="M924 516c-13.333 70 -42.002 134.332 -86.002 192.999c-63.333 78.667 -150 118 -260 118c-110.667 0 -197 -38.667 -259 -116l-92 75c88 93.333 205 140 351 140c144.667 0 261.334 -46.833 350.001 -140.5s133 -207.5 133 -341.5
c0 -133.333 -43.667 -246.666 -131 -339.999c-87.333 -92.667 -204.666 -139 -351.999 -139h-13c-122.667 0 -231 41.667 -325 125c-97.333 84 -146 202 -146 354zM923.998 368.999l-686.001 -25c13.333 -52.667 40.333 -106.667 81 -162c62 -80.667 148.333 -121 259 -121
c110 0 196.667 39.667 260 119c44.667 59.333 73.334 122.333 86.001 189z" />
    <glyph glyph-name="acute" unicode="&#x491;" horiz-adv-x="1155" 
d="M924 516c-13.333 70 -42.002 134.332 -86.002 192.999c-63.333 78.667 -150 118 -260 118c-110.667 0 -197 -38.667 -259 -116l-92 75c88 93.333 205 140 351 140c144.667 0 261.334 -46.833 350.001 -140.5s133 -207.5 133 -341.5
c0 -133.333 -43.667 -246.666 -131 -339.999c-87.333 -92.667 -204.666 -139 -351.999 -139h-13c-122.667 0 -231 41.667 -325 125c-97.333 84 -146 202 -146 354zM923.998 368.999l-686.001 -25c13.333 -52.667 40.333 -106.667 81 -162c62 -80.667 148.333 -121 259 -121
c110 0 196.667 39.667 260 119c44.667 59.333 73.334 122.333 86.001 189z" />
    <glyph glyph-name="mu" unicode="&#xb5;" horiz-adv-x="670" 
d="M274 430v-429.999h-122v889h495v-98h-373v-248h199c-2.66699 -14.667 -4 -26.334 -4 -35.001c0 -2.66699 1 -13 3 -31s3 -31 3 -39c0 -5.33301 -1.33301 -8 -4 -8h-197z" />
    <glyph glyph-name="paragraph" unicode="&#xb6;" horiz-adv-x="877" 
d="M696 0l-422 444v-444h-122v889h122v-397l398 397h147l-428 -414l371 -379l119 -4l10 -256l-143 10v144z" />
    <glyph glyph-name="cedilla" unicode="&#xb8;" horiz-adv-x="1055" 
d="M961 233c-34.667 -70.667 -84.668 -132.671 -150.001 -186.004c-66.667 -54.667 -153.334 -82 -260.001 -82c-144.667 0 -256.667 49.333 -336 148c-80.667 98 -121 208.333 -121 331c0 28.667 1.33301 51.334 4 68.001c0 13.333 1.83301 26.833 5.5 40.5
s6.83398 24.834 9.50098 33.501c22.667 84.667 69 162.334 139 233.001c69.333 71.333 169 107 299 107c117.333 0 207.333 -33.167 270 -99.5s104.334 -139.833 125.001 -220.5l10 -57l5 -55v-60h-736v-4v-6l2 -37c0 -16.667 1.33301 -29.667 4 -39
c12.667 -69.333 45.667 -134 99 -194c53.333 -62 127 -93 221 -93h37c18.667 4.66699 39 8.33398 61 11.001c20.667 2.66699 48 16.334 82 41.001c22 16 45.333 37 70 63c8 9.33301 16.667 21.666 26 36.999c10 13.333 23 36 39 68zM837.999 531.996
c0 71.333 -25.332 138.333 -75.999 201c-52 62.667 -121.667 94 -209 94s-158.333 -27.333 -213 -82c-54.667 -54 -89.334 -125 -104.001 -213h602zM293 1255c16 19.333 38.999 29 68.999 29c24.667 0 44.667 -7.33301 60 -22c16 -12.667 27 -28.667 33 -48l2 -12l2 -12
c0 -24.667 -9 -45.334 -27 -62.001c-17.333 -17.333 -38.333 -28 -63 -32h-7c-21.333 0 -41.666 8 -60.999 24c-20.667 16.667 -31 40 -31 70c0 24.667 7.66699 46.334 23 65.001zM620.999 1255c16 19.333 39.667 29 71 29c24.667 0 46.667 -8 66 -24
c17.333 -18 26 -41.333 26 -70s-8.83301 -51.5 -26.5 -68.5s-39.5 -25.5 -65.5 -25.5s-48.5 8.5 -67.5 25.5s-28.5 39.833 -28.5 68.5c0 23.333 8.33301 45 25 65z" />
    <glyph glyph-name="cedilla" unicode="&#x451;" horiz-adv-x="1055" 
d="M961 233c-34.667 -70.667 -84.668 -132.671 -150.001 -186.004c-66.667 -54.667 -153.334 -82 -260.001 -82c-144.667 0 -256.667 49.333 -336 148c-80.667 98 -121 208.333 -121 331c0 28.667 1.33301 51.334 4 68.001c0 13.333 1.83301 26.833 5.5 40.5
s6.83398 24.834 9.50098 33.501c22.667 84.667 69 162.334 139 233.001c69.333 71.333 169 107 299 107c117.333 0 207.333 -33.167 270 -99.5s104.334 -139.833 125.001 -220.5l10 -57l5 -55v-60h-736v-4v-6l2 -37c0 -16.667 1.33301 -29.667 4 -39
c12.667 -69.333 45.667 -134 99 -194c53.333 -62 127 -93 221 -93h37c18.667 4.66699 39 8.33398 61 11.001c20.667 2.66699 48 16.334 82 41.001c22 16 45.333 37 70 63c8 9.33301 16.667 21.666 26 36.999c10 13.333 23 36 39 68zM837.999 531.996
c0 71.333 -25.332 138.333 -75.999 201c-52 62.667 -121.667 94 -209 94s-158.333 -27.333 -213 -82c-54.667 -54 -89.334 -125 -104.001 -213h602zM293 1255c16 19.333 38.999 29 68.999 29c24.667 0 44.667 -7.33301 60 -22c16 -12.667 27 -28.667 33 -48l2 -12l2 -12
c0 -24.667 -9 -45.334 -27 -62.001c-17.333 -17.333 -38.333 -28 -63 -32h-7c-21.333 0 -41.666 8 -60.999 24c-20.667 16.667 -31 40 -31 70c0 24.667 7.66699 46.334 23 65.001zM620.999 1255c16 19.333 39.667 29 71 29c24.667 0 46.667 -8 66 -24
c17.333 -18 26 -41.333 26 -70s-8.83301 -51.5 -26.5 -68.5s-39.5 -25.5 -65.5 -25.5s-48.5 8.5 -67.5 25.5s-28.5 39.833 -28.5 68.5c0 23.333 8.33301 45 25 65z" />
    <glyph glyph-name="onesuperior" unicode="&#xb9;" horiz-adv-x="2374" 
d="M180 1491l1088 -1198v1141h139v-1491l-1088 1198v-1141h-139v1491zM1622 98h616v-98h-616v98zM1686 301c-52 56 -86.333 120.333 -103 193l-10 55l-2 53l2 53l10 56c15.333 70.667 50.333 134.667 105 192c52.667 57.333 133 86 241 86c117.333 0 207 -38.333 269 -115
c60 -76 90 -166.667 90 -272c0 -104 -30 -194 -90 -270c-62 -78 -151.667 -117 -269 -117c-104.667 0 -185.667 28.667 -243 86zM2109 395c42.667 58.667 64.0029 121 64.0029 187v6v8v10v6c0 74 -20.667 139 -62 195c-40.667 56 -101.334 84 -182.001 84
s-141.334 -29.333 -182.001 -88s-61 -121.667 -61 -189v-8v-10c0 -72.667 19.667 -137.667 59 -195c39.333 -58.667 100.666 -88 183.999 -88c78 0 138 27.333 180 82z" />
    <glyph glyph-name="onesuperior" unicode="&#x2116;" horiz-adv-x="2374" 
d="M180 1491l1088 -1198v1141h139v-1491l-1088 1198v-1141h-139v1491zM1622 98h616v-98h-616v98zM1686 301c-52 56 -86.333 120.333 -103 193l-10 55l-2 53l2 53l10 56c15.333 70.667 50.333 134.667 105 192c52.667 57.333 133 86 241 86c117.333 0 207 -38.333 269 -115
c60 -76 90 -166.667 90 -272c0 -104 -30 -194 -90 -270c-62 -78 -151.667 -117 -269 -117c-104.667 0 -185.667 28.667 -243 86zM2109 395c42.667 58.667 64.0029 121 64.0029 187v6v8v10v6c0 74 -20.667 139 -62 195c-40.667 56 -101.334 84 -182.001 84
s-141.334 -29.333 -182.001 -88s-61 -121.667 -61 -189v-8v-10c0 -72.667 19.667 -137.667 59 -195c39.333 -58.667 100.666 -88 183.999 -88c78 0 138 27.333 180 82z" />
    <glyph glyph-name="ordmasculine" unicode="&#xba;" horiz-adv-x="1049" 
d="M856 94h139v-327h-106v233h-156v406h-500v-406h-122v889h122v-385h500v385h123v-795z" />
    <glyph glyph-name="ordmasculine" unicode="&#x454;" horiz-adv-x="1049" 
d="M856 94h139v-327h-106v233h-156v406h-500v-406h-122v889h122v-385h500v385h123v-795z" />
    <glyph glyph-name="guillemotright" unicode="&#xbb;" horiz-adv-x="889" 
d="M180 16l-86 58l268 375l-268 376l86 58l307 -434zM496 16l-86 58l268 375l-268 376l86 58l307 -434z" />
    <glyph glyph-name="onequarter" unicode="&#xbc;" horiz-adv-x="1155" 
d="M240 90c-97.333 84.667 -146.002 202.666 -146.002 353.999c0 134 44.333 247.833 133 341.5s205.667 140.5 351 140.5c144.667 0 261.334 -46.833 350.001 -140.5s133 -207.5 133 -341.5c0 -133.333 -43.667 -246.666 -131 -339.999
c-87.333 -92.667 -204.666 -139 -351.999 -139h-13c-122.667 0 -231 41.667 -325 125zM925.998 491.999c-13.333 85.333 -42.667 157.667 -88 217c-63.333 78.667 -150 118 -260 118c-110.667 0 -197 -38.667 -259 -116c-55.333 -68 -86 -144.667 -92 -230zM228.997 385
c10.667 -71.333 40.668 -139 90.001 -203c62 -80.667 148.333 -121 259 -121c110 0 196.667 39.667 260 119c47.333 62 76.666 131 87.999 207z" />
    <glyph glyph-name="onequarter" unicode="&#x458;" horiz-adv-x="1155" 
d="M240 90c-97.333 84.667 -146.002 202.666 -146.002 353.999c0 134 44.333 247.833 133 341.5s205.667 140.5 351 140.5c144.667 0 261.334 -46.833 350.001 -140.5s133 -207.5 133 -341.5c0 -133.333 -43.667 -246.666 -131 -339.999
c-87.333 -92.667 -204.666 -139 -351.999 -139h-13c-122.667 0 -231 41.667 -325 125zM925.998 491.999c-13.333 85.333 -42.667 157.667 -88 217c-63.333 78.667 -150 118 -260 118c-110.667 0 -197 -38.667 -259 -116c-55.333 -68 -86 -144.667 -92 -230zM228.997 385
c10.667 -71.333 40.668 -139 90.001 -203c62 -80.667 148.333 -121 259 -121c110 0 196.667 39.667 260 119c47.333 62 76.666 131 87.999 207z" />
    <glyph glyph-name="onehalf" unicode="&#xbd;" horiz-adv-x="928" 
d="M553 -184c2.66699 -2.66699 13.667 -4 33 -4c18 0 38.5 1 61.5 3s40.5 3.66699 52.5 5v-82l-143 -4v-250h-123l-2 254h-170l4 82h166v188l-409 881h139l334 -752l284 752h125l-352 -887v-186z" />
    <glyph glyph-name="onehalf" unicode="&#x405;" horiz-adv-x="928" 
d="M553 -184c2.66699 -2.66699 13.667 -4 33 -4c18 0 38.5 1 61.5 3s40.5 3.66699 52.5 5v-82l-143 -4v-250h-123l-2 254h-170l4 82h166v188l-409 881h139l334 -752l284 752h125l-352 -887v-186z" />
    <glyph glyph-name="threequarters" unicode="&#xbe;" horiz-adv-x="928" 
d="M553 2l4 -518h-123l-2 524l-409 881h139l334 -752l284 752h125z" />
    <glyph glyph-name="threequarters" unicode="&#x455;" horiz-adv-x="928" 
d="M553 2l4 -518h-123l-2 524l-409 881h139l334 -752l284 752h125z" />
    <glyph glyph-name="questiondown" unicode="&#xbf;" horiz-adv-x="1034" 
d="M152 1505l121.998 -0.000976562v-764l21 35l33 43c20 22 51.333 46 94 72c42 23.333 92.333 35 151 35c98.667 0 175.334 -30.667 230.001 -92c53.333 -63.333 80 -151.666 80 -264.999v-569h-123v553l-2 37l-2 39c0 23.333 -4.33301 46.333 -13 69
c-8 22 -19.333 44 -34 66c-26 42 -76 63 -150 63c-84.667 0 -151.667 -32.667 -201 -98c-43.333 -64 -70.666 -136.333 -81.999 -217l-2 -25v-24v-463h-122v1505z" />
    <glyph glyph-name="questiondown" unicode="&#x457;" horiz-adv-x="1034" 
d="M152 1505l121.998 -0.000976562v-764l21 35l33 43c20 22 51.333 46 94 72c42 23.333 92.333 35 151 35c98.667 0 175.334 -30.667 230.001 -92c53.333 -63.333 80 -151.666 80 -264.999v-569h-123v553l-2 37l-2 39c0 23.333 -4.33301 46.333 -13 69
c-8 22 -19.333 44 -34 66c-26 42 -76 63 -150 63c-84.667 0 -151.667 -32.667 -201 -98c-43.333 -64 -70.666 -136.333 -81.999 -217l-2 -25v-24v-463h-122v1505z" />
    <glyph glyph-name="Agrave" unicode="&#xc0;" horiz-adv-x="1329" 
d="M666 1475l641 -1475h-144l-198 467h-600l-199 -467h-143zM915 582l-249 587l-252 -587h501z" />
    <glyph glyph-name="Agrave" unicode="&#x410;" horiz-adv-x="1329" 
d="M666 1475l641 -1475h-144l-198 467h-600l-199 -467h-143zM915 582l-249 587l-252 -587h501z" />
    <glyph glyph-name="Aacute" unicode="&#xc1;" horiz-adv-x="1143" 
d="M180 1434l721 0.000976562v-115h-582v-473h236l98 -4c24.667 0 48 -2.66699 70 -8l63 -19c67.333 -20.667 128.333 -60.334 183 -119.001c53.333 -60 80 -150 80 -270c0 -126.667 -31.667 -218.667 -95 -276c-64 -59.333 -135 -100.333 -213 -123
c-18.667 -6 -39 -10.333 -61 -13c-22 -4 -46.667 -7.33301 -74 -10l-110 -4h-316v1434zM518 115.001l78 2.00098c27.333 0 64.333 7.33301 111 22c46 15.333 91 44.666 135 87.999c42 42.667 63 109 63 199c0 86 -18.333 150 -55 192c-38 41.333 -78.333 70.333 -121 87
c-42 14.667 -77.333 22 -106 22l-70 4h-234v-616h199z" />
    <glyph glyph-name="Aacute" unicode="&#x411;" horiz-adv-x="1143" 
d="M180 1434l721 0.000976562v-115h-582v-473h236l98 -4c24.667 0 48 -2.66699 70 -8l63 -19c67.333 -20.667 128.333 -60.334 183 -119.001c53.333 -60 80 -150 80 -270c0 -126.667 -31.667 -218.667 -95 -276c-64 -59.333 -135 -100.333 -213 -123
c-18.667 -6 -39 -10.333 -61 -13c-22 -4 -46.667 -7.33301 -74 -10l-110 -4h-316v1434zM518 115.001l78 2.00098c27.333 0 64.333 7.33301 111 22c46 15.333 91 44.666 135 87.999c42 42.667 63 109 63 199c0 86 -18.333 150 -55 192c-38 41.333 -78.333 70.333 -121 87
c-42 14.667 -77.333 22 -106 22l-70 4h-234v-616h199z" />
    <glyph glyph-name="Acircumflex" unicode="&#xc2;" horiz-adv-x="1155" 
d="M475 1434l8.00098 -0.000976562l90 -4c36 0 81.333 -7 136 -21c52.667 -15.333 103.667 -46.666 153 -93.999c52 -45.333 78 -119 78 -221c0 -72.667 -19.833 -136.334 -59.5 -191.001s-91.5 -95.667 -155.5 -123l29 -8c13.333 0 23.333 -1.33301 30 -4
c67.333 -16.667 129.666 -53.667 186.999 -111c56 -58.667 84 -141 84 -247c0 -135.333 -39 -233.666 -117 -294.999s-164 -98.333 -258 -111l-43 -4h-43h-10h-9h-10h-8h-377v1434h295zM557.001 114.999c128.667 0 219.334 29.3311 272.001 87.998
c26 28.667 46.667 59.334 62 92.001c13.333 32.667 20 66.667 20 102v13c0 88.667 -29.333 160.334 -88 215.001s-149.334 82 -272.001 82h-232v-592h238zM502.001 820.997l52.998 4c24.667 0 55.334 8.16699 92.001 24.5s70.834 43 102.501 80s47.5 89.5 47.5 157.5
c0 60.667 -20.833 114.5 -62.5 161.5s-118.5 70.5 -230.5 70.5h-185v-498h183z" />
    <glyph glyph-name="Acircumflex" unicode="&#x412;" horiz-adv-x="1155" 
d="M475 1434l8.00098 -0.000976562l90 -4c36 0 81.333 -7 136 -21c52.667 -15.333 103.667 -46.666 153 -93.999c52 -45.333 78 -119 78 -221c0 -72.667 -19.833 -136.334 -59.5 -191.001s-91.5 -95.667 -155.5 -123l29 -8c13.333 0 23.333 -1.33301 30 -4
c67.333 -16.667 129.666 -53.667 186.999 -111c56 -58.667 84 -141 84 -247c0 -135.333 -39 -233.666 -117 -294.999s-164 -98.333 -258 -111l-43 -4h-43h-10h-9h-10h-8h-377v1434h295zM557.001 114.999c128.667 0 219.334 29.3311 272.001 87.998
c26 28.667 46.667 59.334 62 92.001c13.333 32.667 20 66.667 20 102v13c0 88.667 -29.333 160.334 -88 215.001s-149.334 82 -272.001 82h-232v-592h238zM502.001 820.997l52.998 4c24.667 0 55.334 8.16699 92.001 24.5s70.834 43 102.501 80s47.5 89.5 47.5 157.5
c0 60.667 -20.833 114.5 -62.5 161.5s-118.5 70.5 -230.5 70.5h-185v-498h183z" />
    <glyph glyph-name="Atilde" unicode="&#xc3;" horiz-adv-x="834" 
d="M180 1434h631v-115h-492v-1319h-139v1434z" />
    <glyph glyph-name="Atilde" unicode="&#x413;" horiz-adv-x="834" 
d="M180 1434h631v-115h-492v-1319h-139v1434z" />
    <glyph glyph-name="Adieresis" unicode="&#xc4;" horiz-adv-x="1307" 
d="M1106 1434v-1319h172v-402h-129v287h-997v-287h-129v402h8h8c83.333 0 149 49.667 197 149c46 100 69 240 69 420v750h801zM444 684c0 -72.667 -2 -134.668 -6 -186.001c-4 -53.333 -11.333 -104.666 -22 -153.999c-18 -90 -63.667 -166.333 -137 -229h688v1204h-523
v-635z" />
    <glyph glyph-name="Adieresis" unicode="&#x414;" horiz-adv-x="1307" 
d="M1106 1434v-1319h172v-402h-129v287h-997v-287h-129v402h8h8c83.333 0 149 49.667 197 149c46 100 69 240 69 420v750h801zM444 684c0 -72.667 -2 -134.668 -6 -186.001c-4 -53.333 -11.333 -104.666 -22 -153.999c-18 -90 -63.667 -166.333 -137 -229h688v1204h-523
v-635z" />
    <glyph glyph-name="Aring" unicode="&#xc5;" horiz-adv-x="1063" 
d="M180 1434h768v-115h-629v-459h607v-115h-607v-630h629v-115h-768v1434z" />
    <glyph glyph-name="Aring" unicode="&#x415;" horiz-adv-x="1063" 
d="M180 1434h768v-115h-629v-459h607v-115h-607v-630h629v-115h-768v1434z" />
    <glyph glyph-name="AE" unicode="&#xc6;" horiz-adv-x="1733" 
d="M797 702l-588 -702h-186l641 733l-605 701h172l566 -674v674h139v-674l565 674h172l-604 -701l641 -733h-186l-588 702v-702h-139v702z" />
    <glyph glyph-name="AE" unicode="&#x416;" horiz-adv-x="1733" 
d="M797 702l-588 -702h-186l641 733l-605 701h172l566 -674v674h139v-674l565 674h172l-604 -701l641 -733h-186l-588 702v-702h-139v702z" />
    <glyph glyph-name="Ccedilla" unicode="&#xc7;" horiz-adv-x="1118" 
d="M104 1257c36 53.333 88.666 103.336 157.999 150.003c70 45.333 164.333 68 283 68c103.333 0 194 -33 272 -99c76.667 -65.333 115 -154 115 -266c0 -80.667 -20.667 -149.667 -62 -207c-42 -58.667 -97 -98.334 -165 -119.001c82.667 -18.667 153.667 -61 213 -127
c57.333 -65.333 86 -152 86 -260c0 -121.333 -44 -224.333 -132 -309c-87.333 -84.667 -208.666 -127 -363.999 -127c-108 0 -200.333 26.667 -277 80c-76 52 -138.667 125.667 -188 221l119 62c30 -74 77 -134.333 141 -181c64 -46 132.333 -69 205 -69
c95.333 0 177.833 28.667 247.5 86s104.5 140.666 104.5 249.999c0 98 -34 174.333 -102 229c-70 54.667 -157.333 82 -262 82h-146v115h142h34c15.333 0 27 1.33301 35 4c57.333 8 110 31 158 69c46 37.333 69 102.333 69 195c0 69.333 -21.667 129.333 -65 180
c-45.333 50.667 -110.333 76 -195 76l-39 -2c-16 0 -32.333 -1.33301 -49 -4c-17.333 -4 -34.333 -9 -51 -15c-18 -6.66699 -39 -17.334 -63 -32.001c-41.333 -24.667 -79 -65 -113 -121z" />
    <glyph glyph-name="Ccedilla" unicode="&#x417;" horiz-adv-x="1118" 
d="M104 1257c36 53.333 88.666 103.336 157.999 150.003c70 45.333 164.333 68 283 68c103.333 0 194 -33 272 -99c76.667 -65.333 115 -154 115 -266c0 -80.667 -20.667 -149.667 -62 -207c-42 -58.667 -97 -98.334 -165 -119.001c82.667 -18.667 153.667 -61 213 -127
c57.333 -65.333 86 -152 86 -260c0 -121.333 -44 -224.333 -132 -309c-87.333 -84.667 -208.666 -127 -363.999 -127c-108 0 -200.333 26.667 -277 80c-76 52 -138.667 125.667 -188 221l119 62c30 -74 77 -134.333 141 -181c64 -46 132.333 -69 205 -69
c95.333 0 177.833 28.667 247.5 86s104.5 140.666 104.5 249.999c0 98 -34 174.333 -102 229c-70 54.667 -157.333 82 -262 82h-146v115h142h34c15.333 0 27 1.33301 35 4c57.333 8 110 31 158 69c46 37.333 69 102.333 69 195c0 69.333 -21.667 129.333 -65 180
c-45.333 50.667 -110.333 76 -195 76l-39 -2c-16 0 -32.333 -1.33301 -49 -4c-17.333 -4 -34.333 -9 -51 -15c-18 -6.66699 -39 -17.334 -63 -32.001c-41.333 -24.667 -79 -65 -113 -121z" />
    <glyph glyph-name="Egrave" unicode="&#xc8;" horiz-adv-x="1479" 
d="M319 1434v-1135l979 1192v-1491h-139v1135l-979 -1192v1491h139z" />
    <glyph glyph-name="Egrave" unicode="&#x418;" horiz-adv-x="1479" 
d="M319 1434v-1135l979 1192v-1491h-139v1135l-979 -1192v1491h139z" />
    <glyph glyph-name="Eacute" unicode="&#xc9;" horiz-adv-x="1479" 
d="M319 1434v-1135l979 1192v-1491h-139v1135l-979 -1192v1491h139zM557 1743c12 -40 34 -68.6689 66 -86.002c30 -19.333 63.333 -31 100 -35h8h8c52 0 91.667 10.333 119 31c26 20 45 45.333 57 76l3 6l4 8l112 -45c-17.333 -44 -42.666 -80.333 -75.999 -109
c-26.667 -23.333 -58.667 -41 -96 -53c-14.667 -6.66699 -36.334 -12 -65.001 -16l-58 -4l-61 4l-68 18c-34 10.667 -65.333 28.334 -94 53.001s-52 60.334 -70 107.001z" />
    <glyph glyph-name="Eacute" unicode="&#x419;" horiz-adv-x="1479" 
d="M319 1434v-1135l979 1192v-1491h-139v1135l-979 -1192v1491h139zM557 1743c12 -40 34 -68.6689 66 -86.002c30 -19.333 63.333 -31 100 -35h8h8c52 0 91.667 10.333 119 31c26 20 45 45.333 57 76l3 6l4 8l112 -45c-17.333 -44 -42.666 -80.333 -75.999 -109
c-26.667 -23.333 -58.667 -41 -96 -53c-14.667 -6.66699 -36.334 -12 -65.001 -16l-58 -4l-61 4l-68 18c-34 10.667 -65.333 28.334 -94 53.001s-52 60.334 -70 107.001z" />
    <glyph glyph-name="Ecircumflex" unicode="&#xca;" horiz-adv-x="1169" 
d="M180 1434h139v-666l642 666h172l-680 -695l694 -739h-186l-642 696v-696h-139v1434z" />
    <glyph glyph-name="Ecircumflex" unicode="&#x41a;" horiz-adv-x="1169" 
d="M180 1434h139v-666l642 666h172l-680 -695l694 -739h-186l-642 696v-696h-139v1434z" />
    <glyph glyph-name="Edieresis" unicode="&#xcb;" horiz-adv-x="1313" 
d="M1133 1434v-1434h-140v1319h-518v-772c0 -168 -22.5 -302.833 -67.5 -404.5s-138.5 -152.5 -280.5 -152.5l-41 2c-22 0 -46 2.66699 -72 8v115l9 -2l10 -2l10 -2h12c10 -2 16.333 -3.66699 19 -5h18c104 0 171 41.667 201 125c28.667 82 43 186 43 312v893h797z" />
    <glyph glyph-name="Edieresis" unicode="&#x41b;" horiz-adv-x="1313" 
d="M1133 1434v-1434h-140v1319h-518v-772c0 -168 -22.5 -302.833 -67.5 -404.5s-138.5 -152.5 -280.5 -152.5l-41 2c-22 0 -46 2.66699 -72 8v115l9 -2l10 -2l10 -2h12c10 -2 16.333 -3.66699 19 -5h18c104 0 171 41.667 201 125c28.667 82 43 186 43 312v893h797z" />
    <glyph glyph-name="Igrave" unicode="&#xcc;" horiz-adv-x="1757" 
d="M281 1491l598 -1278l598 1278l194 -1491h-129l-137 1061l-526 -1118l-527 1118l-137 -1061h-129z" />
    <glyph glyph-name="Igrave" unicode="&#x41c;" horiz-adv-x="1757" 
d="M281 1491l598 -1278l598 1278l194 -1491h-129l-137 1061l-526 -1118l-527 1118l-137 -1061h-129z" />
    <glyph glyph-name="Iacute" unicode="&#xcd;" horiz-adv-x="1464" 
d="M180 1434h139v-588h826v588h139v-1434h-139v731h-826v-731h-139v1434z" />
    <glyph glyph-name="Iacute" unicode="&#x41d;" horiz-adv-x="1464" 
d="M180 1434h139v-588h826v588h139v-1434h-139v731h-826v-731h-139v1434z" />
    <glyph glyph-name="Icircumflex" unicode="&#xce;" horiz-adv-x="1778" 
d="M324 1249c138.667 150.667 327 226 565 226c206 0 387 -67.667 543 -203c154 -136.667 231 -321.667 231 -555s-77 -417.666 -231 -552.999c-156 -135.333 -337 -203 -543 -203c-207.333 0 -388.333 68.333 -543 205c-154 135.333 -231 319 -231 551
c0 203.333 69.667 380.666 209 531.999zM449 250c124 -117.333 270.667 -175.998 440 -175.998c168 0 314.5 58.667 439.5 176s187.5 273 187.5 467c0 195.333 -62.333 351.666 -187 468.999c-124 116 -270.667 174 -440 174c-168 0 -314 -58.667 -438 -176
c-126 -117.333 -189 -273 -189 -467c0 -192.667 62.333 -348.334 187 -467.001z" />
    <glyph glyph-name="Icircumflex" unicode="&#x41e;" horiz-adv-x="1778" 
d="M324 1249c138.667 150.667 327 226 565 226c206 0 387 -67.667 543 -203c154 -136.667 231 -321.667 231 -555s-77 -417.666 -231 -552.999c-156 -135.333 -337 -203 -543 -203c-207.333 0 -388.333 68.333 -543 205c-154 135.333 -231 319 -231 551
c0 203.333 69.667 380.666 209 531.999zM449 250c124 -117.333 270.667 -175.998 440 -175.998c168 0 314.5 58.667 439.5 176s187.5 273 187.5 467c0 195.333 -62.333 351.666 -187 468.999c-124 116 -270.667 174 -440 174c-168 0 -314 -58.667 -438 -176
c-126 -117.333 -189 -273 -189 -467c0 -192.667 62.333 -348.334 187 -467.001z" />
    <glyph glyph-name="Idieresis" unicode="&#xcf;" horiz-adv-x="1464" 
d="M180 1434h1104v-1434h-139v1319h-826v-1319h-139v1434z" />
    <glyph glyph-name="Idieresis" unicode="&#x41f;" horiz-adv-x="1464" 
d="M180 1434h1104v-1434h-139v1319h-826v-1319h-139v1434z" />
    <glyph glyph-name="Eth" unicode="&#xd0;" horiz-adv-x="1102" 
d="M180 1434h397.999h36c12.667 0 27.667 -1.33301 45 -4c26 0 57.667 -5.66699 95 -17c61.333 -16 119.333 -50.667 174 -104c53.333 -53.333 80 -138 80 -254c0 -113.333 -26 -197.333 -78 -252s-110.667 -91 -176 -109c-16.667 -4 -34 -7.33301 -52 -10
c-17.333 -2.66699 -31.666 -4.66699 -42.999 -6l-81 -4h-259v-674h-139v1434zM318.999 788h252l56 3l67 12c41.333 12 80.333 37.333 117 76c35.333 36.667 53 95.334 53 176.001c0 77.333 -17.667 135.166 -53 173.499s-75 63.833 -119 76.5l-65 10l-56 4h-252v-531z" />
    <glyph glyph-name="Eth" unicode="&#x420;" horiz-adv-x="1102" 
d="M180 1434h397.999h36c12.667 0 27.667 -1.33301 45 -4c26 0 57.667 -5.66699 95 -17c61.333 -16 119.333 -50.667 174 -104c53.333 -53.333 80 -138 80 -254c0 -113.333 -26 -197.333 -78 -252s-110.667 -91 -176 -109c-16.667 -4 -34 -7.33301 -52 -10
c-17.333 -2.66699 -31.666 -4.66699 -42.999 -6l-81 -4h-259v-674h-139v1434zM318.999 788h252l56 3l67 12c41.333 12 80.333 37.333 117 76c35.333 36.667 53 95.334 53 176.001c0 77.333 -17.667 135.166 -53 173.499s-75 63.833 -119 76.5l-65 10l-56 4h-252v-531z" />
    <glyph glyph-name="Ntilde" unicode="&#xd1;" horiz-adv-x="1434" 
d="M1376 127l-49 -35l-78 -43c-16 -6.66699 -38.333 -15.334 -67 -26.001c-30 -11.333 -63.667 -22.333 -101 -33c-68 -19.333 -143.667 -29 -227 -29c-229.333 0 -409.833 75.5 -541.5 226.5s-197.5 327.5 -197.5 529.5c0 233.333 75 418.333 225 555
c150 135.333 321.333 203 514 203c72.667 0 152.667 -10.333 240 -31s181.333 -67.667 282 -141v-162c-64 64 -139.667 116.333 -227 157c-87.333 41.333 -184.333 62 -291 62c-176 0 -317.333 -63.667 -424 -191c-54.667 -65.333 -97 -132.666 -127 -201.999
c-30 -71.333 -45 -143 -45 -215v-19v-16c0 -161.333 54 -309 162 -443c106.667 -133.333 250.667 -200 432 -200c100 0 194.333 19 283 57s167.667 90 237 156v-160z" />
    <glyph glyph-name="Ntilde" unicode="&#x421;" horiz-adv-x="1434" 
d="M1376 127l-49 -35l-78 -43c-16 -6.66699 -38.333 -15.334 -67 -26.001c-30 -11.333 -63.667 -22.333 -101 -33c-68 -19.333 -143.667 -29 -227 -29c-229.333 0 -409.833 75.5 -541.5 226.5s-197.5 327.5 -197.5 529.5c0 233.333 75 418.333 225 555
c150 135.333 321.333 203 514 203c72.667 0 152.667 -10.333 240 -31s181.333 -67.667 282 -141v-162c-64 64 -139.667 116.333 -227 157c-87.333 41.333 -184.333 62 -291 62c-176 0 -317.333 -63.667 -424 -191c-54.667 -65.333 -97 -132.666 -127 -201.999
c-30 -71.333 -45 -143 -45 -215v-19v-16c0 -161.333 54 -309 162 -443c106.667 -133.333 250.667 -200 432 -200c100 0 194.333 19 283 57s167.667 90 237 156v-160z" />
    <glyph glyph-name="Ograve" unicode="&#xd2;" horiz-adv-x="950" 
d="M406 1319h-383v115h905v-115h-383v-1319h-139v1319z" />
    <glyph glyph-name="Ograve" unicode="&#x422;" horiz-adv-x="950" 
d="M406 1319h-383v115h905v-115h-383v-1319h-139v1319z" />
    <glyph glyph-name="Oacute" unicode="&#xd3;" horiz-adv-x="1149" 
d="M551 434l-522 1000h157l435 -854l387 854h141l-655 -1434h-142z" />
    <glyph glyph-name="Oacute" unicode="&#x423;" horiz-adv-x="1149" 
d="M551 434l-522 1000h157l435 -854l387 854h141l-655 -1434h-142z" />
    <glyph glyph-name="Ocircumflex" unicode="&#xd4;" horiz-adv-x="1774" 
d="M817 203l-61.001 -0.000976562c-233.333 0 -400.666 58 -501.999 174c-102.667 114.667 -154 243 -154 385c0 162.667 58 296.334 174 401.001c114.667 104 275.334 156 482.001 156h61v172h139v-172h60c169.333 0 321.666 -44.333 456.999 -133
c133.333 -90 200 -232 200 -426c0 -143.333 -50.5 -272.333 -151.5 -387s-269.5 -172 -505.5 -172h-60v-201h-139v203zM816.999 1204c-221.333 0 -371.5 -44.332 -450.5 -132.999s-118.5 -192.334 -118.5 -311.001c0 -190 54.667 -311.667 164 -365
c53.333 -24.667 115.333 -43.667 186 -57c71.333 -15.333 144.333 -23 219 -23v889zM955.999 315c79.333 0 150.999 7 214.999 21c63.333 12 126.333 31.667 189 59c110.667 49.333 166 171 166 365c0 116 -39.667 219 -119 309s-229.666 135 -450.999 135v-889z" />
    <glyph glyph-name="Ocircumflex" unicode="&#x424;" horiz-adv-x="1774" 
d="M817 203l-61.001 -0.000976562c-233.333 0 -400.666 58 -501.999 174c-102.667 114.667 -154 243 -154 385c0 162.667 58 296.334 174 401.001c114.667 104 275.334 156 482.001 156h61v172h139v-172h60c169.333 0 321.666 -44.333 456.999 -133
c133.333 -90 200 -232 200 -426c0 -143.333 -50.5 -272.333 -151.5 -387s-269.5 -172 -505.5 -172h-60v-201h-139v203zM816.999 1204c-221.333 0 -371.5 -44.332 -450.5 -132.999s-118.5 -192.334 -118.5 -311.001c0 -190 54.667 -311.667 164 -365
c53.333 -24.667 115.333 -43.667 186 -57c71.333 -15.333 144.333 -23 219 -23v889zM955.999 315c79.333 0 150.999 7 214.999 21c63.333 12 126.333 31.667 189 59c110.667 49.333 166 171 166 365c0 116 -39.667 219 -119 309s-229.666 135 -450.999 135v-889z" />
    <glyph glyph-name="Otilde" unicode="&#xd5;" horiz-adv-x="1032" 
d="M170 0h-156l430 731l-397 703h156l313 -586l315 586h156l-399 -703l430 -731h-154l-348 623z" />
    <glyph glyph-name="Otilde" unicode="&#x425;" horiz-adv-x="1032" 
d="M170 0h-156l430 731l-397 703h156l313 -586l315 586h156l-399 -703l430 -731h-154l-348 623z" />
    <glyph glyph-name="Odieresis" unicode="&#xd6;" horiz-adv-x="1464" 
d="M180 1434h139v-1319h811v1319h140v-1319h172v-402h-129v287h-1133v1434z" />
    <glyph glyph-name="Odieresis" unicode="&#x426;" horiz-adv-x="1464" 
d="M180 1434h139v-1319h811v1319h140v-1319h172v-402h-129v287h-1133v1434z" />
    <glyph glyph-name="multiply" unicode="&#xd7;" horiz-adv-x="1225" 
d="M905 645l-26 -2l-27 -2c-24.667 0 -44.334 -1.33301 -59.001 -4l-64 -2c-32.667 0 -58.667 -1.33301 -78 -4h-67c-196.667 0 -319 35.333 -367 106c-49.333 70 -74 156.667 -74 260v437h140v-406c0 -94 17 -164.333 51 -211c34 -48 124.667 -72 272 -72h27h29h32
c12.667 0 24.334 1 35.001 3c9.33301 0 18.333 0.666992 27 2l149 10v674h139v-1434h-139v645z" />
    <glyph glyph-name="multiply" unicode="&#x427;" horiz-adv-x="1225" 
d="M905 645l-26 -2l-27 -2c-24.667 0 -44.334 -1.33301 -59.001 -4l-64 -2c-32.667 0 -58.667 -1.33301 -78 -4h-67c-196.667 0 -319 35.333 -367 106c-49.333 70 -74 156.667 -74 260v437h140v-406c0 -94 17 -164.333 51 -211c34 -48 124.667 -72 272 -72h27h29h32
c12.667 0 24.334 1 35.001 3c9.33301 0 18.333 0.666992 27 2l149 10v674h139v-1434h-139v645z" />
    <glyph glyph-name="Oslash" unicode="&#xd8;" horiz-adv-x="2032" 
d="M180 1434h139v-1319h627v1319h139v-1319h627v1319h139v-1434h-1671v1434z" />
    <glyph glyph-name="Oslash" unicode="&#x428;" horiz-adv-x="2032" 
d="M180 1434h139v-1319h627v1319h139v-1319h627v1319h139v-1434h-1671v1434z" />
    <glyph glyph-name="Ugrave" unicode="&#xd9;" horiz-adv-x="2204" 
d="M180 1434h139v-1319h627v1319h139v-1319h627v1319h139v-1319h172v-402h-129v287h-1714v1434z" />
    <glyph glyph-name="Ugrave" unicode="&#x429;" horiz-adv-x="2204" 
d="M180 1434h139v-1319h627v1319h139v-1319h627v1319h139v-1319h172v-402h-129v287h-1714v1434z" />
    <glyph glyph-name="Uacute" unicode="&#xda;" horiz-adv-x="1329" 
d="M365 1319h-342v115h481v-603h237l99 -4c24.667 0 47.5 -2.66699 68.5 -8s42.5 -11.333 64.5 -18c65.333 -20.667 125.333 -59.667 180 -117c54.667 -58.667 82 -146.667 82 -264c0 -126 -31.333 -217.667 -94 -275c-62.667 -58.667 -133 -98 -211 -118
c-20.667 -6 -42 -10.333 -64 -13c-23.333 -4 -48.333 -7.33301 -75 -10l-109 -4h-317v1319zM705 115l74.999 2.00098c27.333 0 63.5 7.16699 108.5 21.5s90.167 42.333 135.5 84s68 107.5 68 197.5c0 87.333 -20 150.666 -60 189.999c-35.333 40 -77.666 68 -126.999 84
c-14.667 4 -31 8.16699 -49 12.5s-33.667 6.5 -47 6.5l-70 4h-235v-602h201z" />
    <glyph glyph-name="Uacute" unicode="&#x42a;" horiz-adv-x="1329" 
d="M365 1319h-342v115h481v-603h237l99 -4c24.667 0 47.5 -2.66699 68.5 -8s42.5 -11.333 64.5 -18c65.333 -20.667 125.333 -59.667 180 -117c54.667 -58.667 82 -146.667 82 -264c0 -126 -31.333 -217.667 -94 -275c-62.667 -58.667 -133 -98 -211 -118
c-20.667 -6 -42 -10.333 -64 -13c-23.333 -4 -48.333 -7.33301 -75 -10l-109 -4h-317v1319zM705 115l74.999 2.00098c27.333 0 63.5 7.16699 108.5 21.5s90.167 42.333 135.5 84s68 107.5 68 197.5c0 87.333 -20 150.666 -60 189.999c-35.333 40 -77.666 68 -126.999 84
c-14.667 4 -31 8.16699 -49 12.5s-33.667 6.5 -47 6.5l-70 4h-235v-602h201z" />
    <glyph glyph-name="Ucircumflex" unicode="&#xdb;" horiz-adv-x="1528" 
d="M180 1434l139 -0.000976562v-603h240l98 -4c20.667 0 40.5 -2 59.5 -6s42.167 -10 69.5 -18c64.667 -20.667 125 -59.667 181 -117s84 -146 84 -266c0 -127.333 -31.667 -219.666 -95 -276.999c-62.667 -57.333 -133.667 -96 -213 -116c-18.667 -6 -39 -10.333 -61 -13
c-22 -4 -46.667 -7.33301 -74 -10l-108 -4h-320v1434zM522 114.999l76 2.00195c19.333 0 33.666 1.33301 42.999 4c9.33301 1.33301 28.333 6 57 14c52 14 100 42.667 144 86c43.333 41.333 65 107.666 65 198.999c0 87.333 -19 150.666 -57 189.999
c-35.333 40 -77.666 68 -126.999 84l-49.5 12.5c-17.667 4.33301 -33.167 6.5 -46.5 6.5l-70 4h-238v-602h203zM1208 1434h140v-1434h-140v1434z" />
    <glyph glyph-name="Ucircumflex" unicode="&#x42b;" horiz-adv-x="1528" 
d="M180 1434l139 -0.000976562v-603h240l98 -4c20.667 0 40.5 -2 59.5 -6s42.167 -10 69.5 -18c64.667 -20.667 125 -59.667 181 -117s84 -146 84 -266c0 -127.333 -31.667 -219.666 -95 -276.999c-62.667 -57.333 -133.667 -96 -213 -116c-18.667 -6 -39 -10.333 -61 -13
c-22 -4 -46.667 -7.33301 -74 -10l-108 -4h-320v1434zM522 114.999l76 2.00195c19.333 0 33.666 1.33301 42.999 4c9.33301 1.33301 28.333 6 57 14c52 14 100 42.667 144 86c43.333 41.333 65 107.666 65 198.999c0 87.333 -19 150.666 -57 189.999
c-35.333 40 -77.666 68 -126.999 84l-49.5 12.5c-17.667 4.33301 -33.167 6.5 -46.5 6.5l-70 4h-238v-602h203zM1208 1434h140v-1434h-140v1434z" />
    <glyph glyph-name="Udieresis" unicode="&#xdc;" horiz-adv-x="1145" 
d="M180 1434h138.999v-603h238l98 -4c24.667 0 48 -2.66699 70 -8c20.667 -5.33301 41.667 -11.333 63 -18c66 -20.667 126.333 -59.667 181 -117c54.667 -58.667 82 -146.667 82 -264c0 -126 -31.667 -217.667 -95 -275c-62.667 -58.667 -133 -98 -211 -118
c-20 -6 -41 -10.333 -63 -13c-23.333 -4 -48.666 -7.33301 -75.999 -10l-108 -4h-318v1434zM519.999 115l75.999 2.00098c27.333 0 63.5 7.16699 108.5 21.5s90 42.333 135 84s67.5 107.5 67.5 197.5c0 87.333 -19.667 150.666 -59 189.999
c-35.333 40 -77.666 68 -126.999 84l-49.5 12.5c-17.667 4.33301 -33.167 6.5 -46.5 6.5l-70 4h-236v-602h201z" />
    <glyph glyph-name="Udieresis" unicode="&#x42c;" horiz-adv-x="1145" 
d="M180 1434h138.999v-603h238l98 -4c24.667 0 48 -2.66699 70 -8c20.667 -5.33301 41.667 -11.333 63 -18c66 -20.667 126.333 -59.667 181 -117c54.667 -58.667 82 -146.667 82 -264c0 -126 -31.667 -217.667 -95 -275c-62.667 -58.667 -133 -98 -211 -118
c-20 -6 -41 -10.333 -63 -13c-23.333 -4 -48.666 -7.33301 -75.999 -10l-108 -4h-318v1434zM519.999 115l75.999 2.00098c27.333 0 63.5 7.16699 108.5 21.5s90 42.333 135 84s67.5 107.5 67.5 197.5c0 87.333 -19.667 150.666 -59 189.999
c-35.333 40 -77.666 68 -126.999 84l-49.5 12.5c-17.667 4.33301 -33.167 6.5 -46.5 6.5l-70 4h-236v-602h201z" />
    <glyph glyph-name="Yacute" unicode="&#xdd;" horiz-adv-x="1391" 
d="M86 229c24.667 -17.333 53.3301 -35 85.9971 -53c32.667 -17.333 70.334 -35.666 113.001 -54.999c78.667 -31.333 162 -47 250 -47c147.333 0 281.666 56 402.999 168c62.667 57.333 110.334 122 143.001 194c31.333 72.667 47 156.667 47 252h-870v115h866
c0 158 -60 290.333 -180 397c-121.333 106.667 -259.333 160 -414 160h-16h-16c-34.667 0 -69 -3.33301 -103 -10c-35.333 -8.66699 -72.666 -20.334 -111.999 -35.001c-71.333 -24.667 -137 -62.334 -197 -113.001v154c24.667 16 54.667 31.667 90 47l90 35
c24.667 6.66699 49.334 12.667 74.001 18c24.667 4 44.334 7.33301 59.001 10l138 9c240 0 423.167 -75.5 549.5 -226.5s189.5 -328.167 189.5 -531.5c0 -199.333 -65.167 -375.166 -195.5 -527.499s-311.5 -228.5 -543.5 -228.5c-67.333 0 -139 8.33301 -215 25
c-76.667 14.667 -155.334 44 -236.001 88v155z" />
    <glyph glyph-name="Yacute" unicode="&#x42d;" horiz-adv-x="1391" 
d="M86 229c24.667 -17.333 53.3301 -35 85.9971 -53c32.667 -17.333 70.334 -35.666 113.001 -54.999c78.667 -31.333 162 -47 250 -47c147.333 0 281.666 56 402.999 168c62.667 57.333 110.334 122 143.001 194c31.333 72.667 47 156.667 47 252h-870v115h866
c0 158 -60 290.333 -180 397c-121.333 106.667 -259.333 160 -414 160h-16h-16c-34.667 0 -69 -3.33301 -103 -10c-35.333 -8.66699 -72.666 -20.334 -111.999 -35.001c-71.333 -24.667 -137 -62.334 -197 -113.001v154c24.667 16 54.667 31.667 90 47l90 35
c24.667 6.66699 49.334 12.667 74.001 18c24.667 4 44.334 7.33301 59.001 10l138 9c240 0 423.167 -75.5 549.5 -226.5s189.5 -328.167 189.5 -531.5c0 -199.333 -65.167 -375.166 -195.5 -527.499s-311.5 -228.5 -543.5 -228.5c-67.333 0 -139 8.33301 -215 25
c-76.667 14.667 -155.334 44 -236.001 88v155z" />
    <glyph glyph-name="Thorn" unicode="&#xde;" horiz-adv-x="2159" 
d="M500 801l3.99902 47.001l8 47c30 143.333 109.333 275.666 238 396.999c128 122 301.333 183 520 183c208.667 0 390.334 -67.667 545.001 -203c152.667 -136.667 229 -321.667 229 -555c0 -232 -76.333 -415.667 -229 -551c-153.333 -136.667 -335 -205 -545 -205
c-228 0 -411.667 69.667 -551 209c-71.333 72.667 -126 152 -164 238s-57 178.667 -57 278h-179v-686h-139v1434h139v-633h181zM830.999 248.001c127.333 -116 273.667 -174 439 -174c168 0 314.667 58 440 174c124 116 186 272.333 186 469s-62 353 -186 469
s-270.667 174 -440 174c-166.667 0 -312 -58 -436 -174c-126 -116 -189 -272.333 -189 -469s62 -353 186 -469z" />
    <glyph glyph-name="Thorn" unicode="&#x42e;" horiz-adv-x="2159" 
d="M500 801l3.99902 47.001l8 47c30 143.333 109.333 275.666 238 396.999c128 122 301.333 183 520 183c208.667 0 390.334 -67.667 545.001 -203c152.667 -136.667 229 -321.667 229 -555c0 -232 -76.333 -415.667 -229 -551c-153.333 -136.667 -335 -205 -545 -205
c-228 0 -411.667 69.667 -551 209c-71.333 72.667 -126 152 -164 238s-57 178.667 -57 278h-179v-686h-139v1434h139v-633h181zM830.999 248.001c127.333 -116 273.667 -174 439 -174c168 0 314.667 58 440 174c124 116 186 272.333 186 469s-62 353 -186 469
s-270.667 174 -440 174c-166.667 0 -312 -58 -436 -174c-126 -116 -189 -272.333 -189 -469s62 -353 186 -469z" />
    <glyph glyph-name="germandbls" unicode="&#xdf;" horiz-adv-x="1126" 
d="M532 637c-110 0 -206.667 34 -290 102c-84.667 67.333 -127 161.666 -127 282.999l6 76c4 28.667 12 57.334 24 86.001c24.667 62.667 72.5 120 143.5 172s178.167 78 321.5 78h336v-1434h-139v631h-127l-379 -631h-158zM807 1319l-195 -0.000976562l-69 -4
c-30 0 -65.667 -7 -107 -21c-40.667 -13.333 -80.5 -40.166 -119.5 -80.499s-58.5 -100.833 -58.5 -181.5c0 -88.667 19.5 -152.167 58.5 -190.5s84.5 -64.833 136.5 -79.5c31.333 -9.33301 57 -14 77 -14l68 -3h209v574z" />
    <glyph glyph-name="germandbls" unicode="&#x42f;" horiz-adv-x="1126" 
d="M532 637c-110 0 -206.667 34 -290 102c-84.667 67.333 -127 161.666 -127 282.999l6 76c4 28.667 12 57.334 24 86.001c24.667 62.667 72.5 120 143.5 172s178.167 78 321.5 78h336v-1434h-139v631h-127l-379 -631h-158zM807 1319l-195 -0.000976562l-69 -4
c-30 0 -65.667 -7 -107 -21c-40.667 -13.333 -80.5 -40.166 -119.5 -80.499s-58.5 -100.833 -58.5 -181.5c0 -88.667 19.5 -152.167 58.5 -190.5s84.5 -64.833 136.5 -79.5c31.333 -9.33301 57 -14 77 -14l68 -3h209v574z" />
    <glyph glyph-name="agrave" unicode="&#xe0;" horiz-adv-x="1151" 
d="M885 889l113.999 -0.000976562v-889h-114v152c-36 -64.667 -84 -112 -144 -142s-121.333 -45 -184 -45c-120 0 -227 41 -321 123c-94.667 80.667 -142 199.334 -142 356.001c0 134 42.333 248 127 342c83.333 93.333 196 140 338 140l68 -6
c10.667 0 19.834 -0.833008 27.501 -2.5s25.167 -7.16699 52.5 -16.5c27.333 -10.667 58 -31 92 -61c34 -26 62.667 -62.333 86 -109v158zM787.999 161.999c64.667 68 97 162 97 282c0 100 -28.667 188.833 -86 266.5s-136.666 116.5 -237.999 116.5
c-99.333 0 -180 -36.667 -242 -110c-62.667 -75.333 -94 -166.333 -94 -273c0 -98 29.333 -186 88 -264c57.333 -79.333 138.666 -119 243.999 -119c88.667 0 165.667 33.667 231 101z" />
    <glyph glyph-name="agrave" unicode="&#x430;" horiz-adv-x="1151" 
d="M885 889l113.999 -0.000976562v-889h-114v152c-36 -64.667 -84 -112 -144 -142s-121.333 -45 -184 -45c-120 0 -227 41 -321 123c-94.667 80.667 -142 199.334 -142 356.001c0 134 42.333 248 127 342c83.333 93.333 196 140 338 140l68 -6
c10.667 0 19.834 -0.833008 27.501 -2.5s25.167 -7.16699 52.5 -16.5c27.333 -10.667 58 -31 92 -61c34 -26 62.667 -62.333 86 -109v158zM787.999 161.999c64.667 68 97 162 97 282c0 100 -28.667 188.833 -86 266.5s-136.666 116.5 -237.999 116.5
c-99.333 0 -180 -36.667 -242 -110c-62.667 -75.333 -94 -166.333 -94 -273c0 -98 29.333 -186 88 -264c57.333 -79.333 138.666 -119 243.999 -119c88.667 0 165.667 33.667 231 101z" />
    <glyph glyph-name="aacute" unicode="&#xe1;" horiz-adv-x="1155" 
d="M369 866c66.667 40 140.999 59.999 222.999 59.999c126.667 0 234.334 -43.667 323.001 -131c89.333 -87.333 134 -204.333 134 -351c0 -152.667 -46.833 -270.667 -140.5 -354s-205.5 -125 -335.5 -125c-173.333 0 -296 60 -368 180
c-74 120.667 -111 263.334 -111 428.001c0 246 37 423 111 531c73.333 106.667 156.666 180.334 249.999 221.001l108 35l103 20h8l8 4c68 12.667 121.333 27 160 43c36.667 16.667 66 42.667 88 78h131c-36.667 -80.667 -81 -133.834 -133 -159.501
s-112 -46.834 -180 -63.501l-9 -2c-155.333 -32.667 -276.666 -82.667 -363.999 -150c-87.333 -66.667 -141.333 -207.667 -162 -423c20.667 36.667 43.167 67.334 67.5 92.001s53.833 47 88.5 67zM804.999 149.999c52 57.333 86 122.667 102 196l8 49l3 49
c0 100 -30.333 189 -91 267c-60 77.333 -145.333 116 -256 116c-107.333 0 -192 -39.333 -254 -118c-61.333 -79.333 -92 -167.666 -92 -264.999c0 -100.667 30.667 -189.334 92 -266.001c62 -78 146.667 -117 254 -117c102.667 0 180.667 29.667 234 89z" />
    <glyph glyph-name="aacute" unicode="&#x431;" horiz-adv-x="1155" 
d="M369 866c66.667 40 140.999 59.999 222.999 59.999c126.667 0 234.334 -43.667 323.001 -131c89.333 -87.333 134 -204.333 134 -351c0 -152.667 -46.833 -270.667 -140.5 -354s-205.5 -125 -335.5 -125c-173.333 0 -296 60 -368 180
c-74 120.667 -111 263.334 -111 428.001c0 246 37 423 111 531c73.333 106.667 156.666 180.334 249.999 221.001l108 35l103 20h8l8 4c68 12.667 121.333 27 160 43c36.667 16.667 66 42.667 88 78h131c-36.667 -80.667 -81 -133.834 -133 -159.501
s-112 -46.834 -180 -63.501l-9 -2c-155.333 -32.667 -276.666 -82.667 -363.999 -150c-87.333 -66.667 -141.333 -207.667 -162 -423c20.667 36.667 43.167 67.334 67.5 92.001s53.833 47 88.5 67zM804.999 149.999c52 57.333 86 122.667 102 196l8 49l3 49
c0 100 -30.333 189 -91 267c-60 77.333 -145.333 116 -256 116c-107.333 0 -192 -39.333 -254 -118c-61.333 -79.333 -92 -167.666 -92 -264.999c0 -100.667 30.667 -189.334 92 -266.001c62 -78 146.667 -117 254 -117c102.667 0 180.667 29.667 234 89z" />
    <glyph glyph-name="acircumflex" unicode="&#xe2;" horiz-adv-x="940" 
d="M483 889l54.001 -2.00195c16 0 28.667 -0.666992 38 -2c10 -1.33301 24.333 -6.33301 43 -15c37.333 -12 71 -33 101 -63c28.667 -31.333 43 -77.666 43 -138.999l-2 -33c0 -11.333 -3.5 -25.833 -10.5 -43.5s-18.667 -37.667 -35 -60s-41.5 -41.166 -75.5 -56.499
c49.333 -4 93.666 -27 132.999 -69c39.333 -44 59 -95.333 59 -154l-2 -33l-6 -33c-9.33301 -44.667 -37.333 -87 -84 -127c-47.333 -39.333 -123 -59 -227 -59h-360v889h331zM502.001 97.998l30 -0.000976562c15.333 0 27 1.33301 35 4c34 4.66699 65.667 17.667 95 39
c26.667 20.667 40 56.334 40 107.001l-2 26l-6 31c-8 24.667 -25 48.667 -51 72c-27.333 23.333 -72.333 35 -135 35h-234v-314h228zM463.001 509.997c58.667 0 103.666 10.168 134.999 30.501s47 57.166 47 110.499l-2 25l-6 26c-5.33301 19.333 -21 39.333 -47 60
c-27.333 19.333 -69.666 29 -126.999 29h-189v-281h189z" />
    <glyph glyph-name="acircumflex" unicode="&#x432;" horiz-adv-x="940" 
d="M483 889l54.001 -2.00195c16 0 28.667 -0.666992 38 -2c10 -1.33301 24.333 -6.33301 43 -15c37.333 -12 71 -33 101 -63c28.667 -31.333 43 -77.666 43 -138.999l-2 -33c0 -11.333 -3.5 -25.833 -10.5 -43.5s-18.667 -37.667 -35 -60s-41.5 -41.166 -75.5 -56.499
c49.333 -4 93.666 -27 132.999 -69c39.333 -44 59 -95.333 59 -154l-2 -33l-6 -33c-9.33301 -44.667 -37.333 -87 -84 -127c-47.333 -39.333 -123 -59 -227 -59h-360v889h331zM502.001 97.998l30 -0.000976562c15.333 0 27 1.33301 35 4c34 4.66699 65.667 17.667 95 39
c26.667 20.667 40 56.334 40 107.001l-2 26l-6 31c-8 24.667 -25 48.667 -51 72c-27.333 23.333 -72.333 35 -135 35h-234v-314h228zM463.001 509.997c58.667 0 103.666 10.168 134.999 30.501s47 57.166 47 110.499l-2 25l-6 26c-5.33301 19.333 -21 39.333 -47 60
c-27.333 19.333 -69.666 29 -126.999 29h-189v-281h189z" />
    <glyph glyph-name="atilde" unicode="&#xe3;" horiz-adv-x="670" 
d="M152 889h495v-98h-373v-791h-122v889z" />
    <glyph glyph-name="atilde" unicode="&#x433;" horiz-adv-x="670" 
d="M152 889h495v-98h-373v-791h-122v889z" />
    <glyph glyph-name="adieresis" unicode="&#xe4;" horiz-adv-x="979" 
d="M807 889v-791h129v-327h-115v229h-678v-229h-114v327c88.667 0 144.5 36.833 167.5 110.5s34.5 151.5 34.5 233.5v13v434h576zM684 791h-330v-420c0 -56 -8 -107.333 -24 -154c-16.667 -48 -44.667 -87.667 -84 -119h438v693z" />
    <glyph glyph-name="adieresis" unicode="&#x434;" horiz-adv-x="979" 
d="M807 889v-791h129v-327h-115v229h-678v-229h-114v327c88.667 0 144.5 36.833 167.5 110.5s34.5 151.5 34.5 233.5v13v434h576zM684 791h-330v-420c0 -56 -8 -107.333 -24 -154c-16.667 -48 -44.667 -87.667 -84 -119h438v693z" />
    <glyph glyph-name="aring" unicode="&#xe5;" horiz-adv-x="1055" 
d="M961 233c-34.667 -70.667 -84.668 -132.671 -150.001 -186.004c-66.667 -54.667 -153.334 -82 -260.001 -82c-144.667 0 -256.667 49.333 -336 148c-80.667 98 -121 208.333 -121 331c0 28.667 1.33301 51.334 4 68.001c0 13.333 1.83301 26.833 5.5 40.5
s6.83398 24.834 9.50098 33.501c22.667 84.667 69 162.334 139 233.001c69.333 71.333 169 107 299 107c117.333 0 207.333 -33.167 270 -99.5s104.334 -139.833 125.001 -220.5l10 -57l5 -55v-60h-736v-4v-6l2 -37c0 -16.667 1.33301 -29.667 4 -39
c12.667 -69.333 45.667 -134 99 -194c53.333 -62 127 -93 221 -93h37c18.667 4.66699 39 8.33398 61 11.001c20.667 2.66699 48 16.334 82 41.001c22 16 45.333 37 70 63c8 9.33301 16.667 21.666 26 36.999c10 13.333 23 36 39 68zM837.999 531.996
c0 71.333 -25.332 138.333 -75.999 201c-52 62.667 -121.667 94 -209 94s-158.333 -27.333 -213 -82c-54.667 -54 -89.334 -125 -104.001 -213h602z" />
    <glyph glyph-name="aring" unicode="&#x435;" horiz-adv-x="1055" 
d="M961 233c-34.667 -70.667 -84.668 -132.671 -150.001 -186.004c-66.667 -54.667 -153.334 -82 -260.001 -82c-144.667 0 -256.667 49.333 -336 148c-80.667 98 -121 208.333 -121 331c0 28.667 1.33301 51.334 4 68.001c0 13.333 1.83301 26.833 5.5 40.5
s6.83398 24.834 9.50098 33.501c22.667 84.667 69 162.334 139 233.001c69.333 71.333 169 107 299 107c117.333 0 207.333 -33.167 270 -99.5s104.334 -139.833 125.001 -220.5l10 -57l5 -55v-60h-736v-4v-6l2 -37c0 -16.667 1.33301 -29.667 4 -39
c12.667 -69.333 45.667 -134 99 -194c53.333 -62 127 -93 221 -93h37c18.667 4.66699 39 8.33398 61 11.001c20.667 2.66699 48 16.334 82 41.001c22 16 45.333 37 70 63c8 9.33301 16.667 21.666 26 36.999c10 13.333 23 36 39 68zM837.999 531.996
c0 71.333 -25.332 138.333 -75.999 201c-52 62.667 -121.667 94 -209 94s-158.333 -27.333 -213 -82c-54.667 -54 -89.334 -125 -104.001 -213h602z" />
    <glyph glyph-name="ae" unicode="&#xe6;" horiz-adv-x="1286" 
d="M582 463l-402 -463h-157l430 475l-402 414h152l379 -404v404h123v-404l378 404h152l-401 -414l430 -475h-158l-401 463v-463h-123v463z" />
    <glyph glyph-name="ae" unicode="&#x436;" horiz-adv-x="1286" 
d="M582 463l-402 -463h-157l430 475l-402 414h152l379 -404v404h123v-404l378 404h152l-401 -414l430 -475h-158l-401 463v-463h-123v463z" />
    <glyph glyph-name="ccedilla" unicode="&#xe7;" horiz-adv-x="883" 
d="M94 731c22 40 46.002 70.6641 72.002 91.9971c24.667 24.667 50.667 44 78 58c36.667 20 74 32.333 112 37l93 8c81.333 0 152.333 -24 213 -72c58.667 -49.333 88 -114.333 88 -195l-2 -30c0 -11.333 -3 -22.333 -9 -33c-8 -26 -22.333 -50 -43 -72
c-21.333 -21.333 -55.333 -41.666 -102 -60.999l10 -8l10 -2c38.667 -12.667 75 -36 109 -70c34 -35.333 51 -84.333 51 -147c0 -93.333 -35.333 -161.666 -106 -204.999c-72.667 -44 -154 -66 -244 -66c-102.667 0 -183.334 21.333 -242.001 64
c-58.667 40.667 -102.334 88.334 -131.001 143.001l101 51c20 -42 45 -74.667 75 -98c26 -19.333 56 -35 90 -47l56 -15l51 -2c60 0 112 16 156 48c42 30 63 75 63 135c0 44.667 -10.5 78 -31.5 100s-46.5 38.333 -76.5 49l-56 13l-41 2h-112v98h112
c52 0 96.333 12.333 133 37c37.333 23.333 56 63.666 56 120.999l-4 32c0 12.667 -5 27.667 -15 45c-8 20.667 -25 40.667 -51 60c-27.333 17.333 -65.666 26 -114.999 26h-43c-8 -1.33301 -21 -4.66602 -39 -9.99902c-28.667 -4 -59.334 -20.333 -92.001 -49l-41 -41
l-39 -57z" />
    <glyph glyph-name="ccedilla" unicode="&#x437;" horiz-adv-x="883" 
d="M94 731c22 40 46.002 70.6641 72.002 91.9971c24.667 24.667 50.667 44 78 58c36.667 20 74 32.333 112 37l93 8c81.333 0 152.333 -24 213 -72c58.667 -49.333 88 -114.333 88 -195l-2 -30c0 -11.333 -3 -22.333 -9 -33c-8 -26 -22.333 -50 -43 -72
c-21.333 -21.333 -55.333 -41.666 -102 -60.999l10 -8l10 -2c38.667 -12.667 75 -36 109 -70c34 -35.333 51 -84.333 51 -147c0 -93.333 -35.333 -161.666 -106 -204.999c-72.667 -44 -154 -66 -244 -66c-102.667 0 -183.334 21.333 -242.001 64
c-58.667 40.667 -102.334 88.334 -131.001 143.001l101 51c20 -42 45 -74.667 75 -98c26 -19.333 56 -35 90 -47l56 -15l51 -2c60 0 112 16 156 48c42 30 63 75 63 135c0 44.667 -10.5 78 -31.5 100s-46.5 38.333 -76.5 49l-56 13l-41 2h-112v98h112
c52 0 96.333 12.333 133 37c37.333 23.333 56 63.666 56 120.999l-4 32c0 12.667 -5 27.667 -15 45c-8 20.667 -25 40.667 -51 60c-27.333 17.333 -65.666 26 -114.999 26h-43c-8 -1.33301 -21 -4.66602 -39 -9.99902c-28.667 -4 -59.334 -20.333 -92.001 -49l-41 -41
l-39 -57z" />
    <glyph glyph-name="egrave" unicode="&#xe8;" horiz-adv-x="1030" 
d="M274 889v-645l605 696v-940h-123v639l-604 -696v946h122z" />
    <glyph glyph-name="egrave" unicode="&#x438;" horiz-adv-x="1030" 
d="M274 889v-645l605 696v-940h-123v639l-604 -696v946h122z" />
    <glyph glyph-name="eacute" unicode="&#xe9;" horiz-adv-x="1028" 
d="M274 889v-645l603 696v-940h-123v639l-602 -696v946h122zM346 1313l2.00098 -6c8 -36 27.167 -69.667 57.5 -101s71.166 -47 122.499 -47c44 0 78.333 9.66699 103 29c24.667 17.333 43.667 38.333 57 63l14 33l9 29l112 -45c-17.333 -60 -53.333 -109.333 -108 -148
c-56 -39.333 -118.333 -59 -187 -59c-66.667 0 -126.667 18.333 -180 55c-54.667 35.333 -92 86 -112 152z" />
    <glyph glyph-name="eacute" unicode="&#x439;" horiz-adv-x="1028" 
d="M274 889v-645l603 696v-940h-123v639l-602 -696v946h122zM346 1313l2.00098 -6c8 -36 27.167 -69.667 57.5 -101s71.166 -47 122.499 -47c44 0 78.333 9.66699 103 29c24.667 17.333 43.667 38.333 57 63l14 33l9 29l112 -45c-17.333 -60 -53.333 -109.333 -108 -148
c-56 -39.333 -118.333 -59 -187 -59c-66.667 0 -126.667 18.333 -180 55c-54.667 35.333 -92 86 -112 152z" />
    <glyph glyph-name="ecircumflex" unicode="&#xea;" horiz-adv-x="877" 
d="M152 889h122v-397l398 397h147l-428 -414l463 -475h-158l-422 444v-444h-122v889z" />
    <glyph glyph-name="ecircumflex" unicode="&#x43a;" horiz-adv-x="877" 
d="M152 889h122v-397l398 397h147l-428 -414l463 -475h-158l-422 444v-444h-122v889z" />
    <glyph glyph-name="edieresis" unicode="&#xeb;" horiz-adv-x="973" 
d="M821 0l-123.001 -0.000976562v791h-381v-531c0 -69.333 -19.667 -130 -59 -182c-40.667 -52 -115.667 -78 -225 -78h-4h-6v100c74.667 0 122.334 21.333 143.001 64c19.333 40.667 29 97.334 29 170.001v555h626v-889z" />
    <glyph glyph-name="edieresis" unicode="&#x43b;" horiz-adv-x="973" 
d="M821 0l-123.001 -0.000976562v791h-381v-531c0 -69.333 -19.667 -130 -59 -182c-40.667 -52 -115.667 -78 -225 -78h-4h-6v100c74.667 0 122.334 21.333 143.001 64c19.333 40.667 29 97.334 29 170.001v555h626v-889z" />
    <glyph glyph-name="igrave" unicode="&#xec;" horiz-adv-x="1233" 
d="M254 954l362 -782l363 782l211 -954h-123l-127 631l-324 -688l-323 688l-127 -631h-123z" />
    <glyph glyph-name="igrave" unicode="&#x43c;" horiz-adv-x="1233" 
d="M254 954l362 -782l363 782l211 -954h-123l-127 631l-324 -688l-323 688l-127 -631h-123z" />
    <glyph glyph-name="iacute" unicode="&#xed;" horiz-adv-x="1049" 
d="M152 889h122v-385h500v385h123v-889h-123v406h-500v-406h-122v889z" />
    <glyph glyph-name="iacute" unicode="&#x43d;" horiz-adv-x="1049" 
d="M152 889h122v-385h500v385h123v-889h-123v406h-500v-406h-122v889z" />
    <glyph glyph-name="icircumflex" unicode="&#xee;" horiz-adv-x="1155" 
d="M240 90c-97.333 84.667 -146.002 202.666 -146.002 353.999c0 134 44.333 247.833 133 341.5s205.667 140.5 351 140.5c144.667 0 261.334 -46.833 350.001 -140.5s133 -207.5 133 -341.5c0 -133.333 -43.667 -246.666 -131 -339.999
c-87.333 -92.667 -204.666 -139 -351.999 -139h-13c-122.667 0 -231 41.667 -325 125zM837.998 179.999c61.333 80.667 92 168.666 92 263.999c0 96 -30.667 184.333 -92 265c-63.333 78.667 -150 118 -260 118c-110.667 0 -197 -38.667 -259 -116
c-62.667 -79.333 -94 -168.333 -94 -267c0 -95.333 31.333 -182.666 94 -261.999c62 -80.667 148.333 -121 259 -121c110 0 196.667 39.667 260 119z" />
    <glyph glyph-name="icircumflex" unicode="&#x43e;" horiz-adv-x="1155" 
d="M240 90c-97.333 84.667 -146.002 202.666 -146.002 353.999c0 134 44.333 247.833 133 341.5s205.667 140.5 351 140.5c144.667 0 261.334 -46.833 350.001 -140.5s133 -207.5 133 -341.5c0 -133.333 -43.667 -246.666 -131 -339.999
c-87.333 -92.667 -204.666 -139 -351.999 -139h-13c-122.667 0 -231 41.667 -325 125zM837.998 179.999c61.333 80.667 92 168.666 92 263.999c0 96 -30.667 184.333 -92 265c-63.333 78.667 -150 118 -260 118c-110.667 0 -197 -38.667 -259 -116
c-62.667 -79.333 -94 -168.333 -94 -267c0 -95.333 31.333 -182.666 94 -261.999c62 -80.667 148.333 -121 259 -121c110 0 196.667 39.667 260 119z" />
    <glyph glyph-name="idieresis" unicode="&#xef;" 
d="M868 889v-889h-123v791h-471v-791h-122v889h716z" />
    <glyph glyph-name="idieresis" unicode="&#x43f;" 
d="M868 889v-889h-123v791h-471v-791h-122v889h716z" />
    <glyph glyph-name="eth" unicode="&#xf0;" horiz-adv-x="1151" 
d="M266 889l0.000976562 -158c27.333 53.333 68.333 99 123 137c53.333 38.667 123 58 209 58c139.333 0 250.666 -46 333.999 -138c83.333 -91.333 125 -206 125 -344c0 -155.333 -45.667 -274 -137 -356c-93.333 -82 -199.333 -123 -318 -123
c-70.667 0 -128 11.667 -172 35c-43.333 23.333 -80.333 50 -111 80l-26 31l-19 26v-567h-122v1319h114zM842.001 174c56 76.667 83.999 166.667 83.999 270l-2 41l-4 41c-12.667 72.667 -45 141 -97 205c-53.333 64 -132.333 96 -237 96
c-97.333 0 -174.666 -38 -231.999 -114c-58.667 -78 -88 -167.667 -88 -269c0 -120 33.667 -213.333 101 -280c66.667 -68.667 145 -103 235 -103c105.333 0 185.333 37.667 240 113z" />
    <glyph glyph-name="eth" unicode="&#x440;" horiz-adv-x="1151" 
d="M266 889l0.000976562 -158c27.333 53.333 68.333 99 123 137c53.333 38.667 123 58 209 58c139.333 0 250.666 -46 333.999 -138c83.333 -91.333 125 -206 125 -344c0 -155.333 -45.667 -274 -137 -356c-93.333 -82 -199.333 -123 -318 -123
c-70.667 0 -128 11.667 -172 35c-43.333 23.333 -80.333 50 -111 80l-26 31l-19 26v-567h-122v1319h114zM842.001 174c56 76.667 83.999 166.667 83.999 270l-2 41l-4 41c-12.667 72.667 -45 141 -97 205c-53.333 64 -132.333 96 -237 96
c-97.333 0 -174.666 -38 -231.999 -114c-58.667 -78 -88 -167.667 -88 -269c0 -120 33.667 -213.333 101 -280c66.667 -68.667 145 -103 235 -103c105.333 0 185.333 37.667 240 113z" />
    <glyph glyph-name="ntilde" unicode="&#xf1;" horiz-adv-x="936" 
d="M879 43l-19 -10l-18 -10c-27.333 -14 -61.166 -27.167 -101.499 -39.5s-85.833 -18.5 -136.5 -18.5c-152.667 0 -275.334 45.667 -368.001 137c-94.667 90.667 -142 204.667 -142 342c0 139.333 48 255 144 347c94 90 215.333 135 364 135c57.333 0 106 -5.66699 146 -17
c38 -10.667 70.667 -23.667 98 -39l18 -12l15 -8v-121c-58.667 41.333 -108.834 68 -150.501 80s-81.167 18 -118.5 18c-103.333 0 -193.333 -32.667 -270 -98c-76.667 -66.667 -115 -161.667 -115 -285c0 -118.667 37.667 -212 113 -280c74 -68.667 160.667 -103 260 -103
c61.333 0 115.333 11.667 162 35c44.667 22 84.334 47.333 119.001 76v-129z" />
    <glyph glyph-name="ntilde" unicode="&#x441;" horiz-adv-x="936" 
d="M879 43l-19 -10l-18 -10c-27.333 -14 -61.166 -27.167 -101.499 -39.5s-85.833 -18.5 -136.5 -18.5c-152.667 0 -275.334 45.667 -368.001 137c-94.667 90.667 -142 204.667 -142 342c0 139.333 48 255 144 347c94 90 215.333 135 364 135c57.333 0 106 -5.66699 146 -17
c38 -10.667 70.667 -23.667 98 -39l18 -12l15 -8v-121c-58.667 41.333 -108.834 68 -150.501 80s-81.167 18 -118.5 18c-103.333 0 -193.333 -32.667 -270 -98c-76.667 -66.667 -115 -161.667 -115 -285c0 -118.667 37.667 -212 113 -280c74 -68.667 160.667 -103 260 -103
c61.333 0 115.333 11.667 162 35c44.667 22 84.334 47.333 119.001 76v-129z" />
    <glyph glyph-name="ograve" unicode="&#xf2;" horiz-adv-x="799" 
d="M338 791h-315v98h753v-98h-315v-791h-123v791z" />
    <glyph glyph-name="ograve" unicode="&#x442;" horiz-adv-x="799" 
d="M338 791h-315v98h753v-98h-315v-791h-123v791z" />
    <glyph glyph-name="oacute" unicode="&#xf3;" horiz-adv-x="928" 
d="M162 889l334 -752l284 752h125l-524 -1319h-133l184 438l-409 881h139z" />
    <glyph glyph-name="oacute" unicode="&#x443;" horiz-adv-x="928" 
d="M162 889l334 -752l284 752h125l-524 -1319h-133l184 438l-409 881h139z" />
    <glyph glyph-name="ocircumflex" unicode="&#xf4;" horiz-adv-x="1372" 
d="M625 -14l-78.001 5.99902c-23.333 0 -50.666 3.33301 -81.999 10c-91.333 20.667 -176 64.834 -254 132.501s-117 170.834 -117 309.501c0 139.333 38.333 242.666 115 309.999c76.667 65.333 162 109.666 256 132.999l82 12l78 4v531h123v-531
c138.667 0 262 -36.667 370 -110c106.667 -75.333 160 -191.666 160 -348.999c0 -154 -53.333 -268.667 -160 -344c-106.667 -74.667 -230 -112 -370 -112v-418h-123v416zM624.999 804.999l-80 -5.99902c-30 -4 -63.667 -12.333 -101 -25
c-51.333 -20.667 -100.333 -55.334 -147 -104.001c-48 -50.667 -72 -126 -72 -226c0 -96.667 22.5 -171 67.5 -223s95.5 -87.333 151.5 -106c36 -12.667 69.667 -21 101 -25l80 -6v721zM747.999 84l77 5.99805c30 4 64.333 12.333 103 25
c54.667 18.667 105 53.334 151 104.001c45.333 49.333 68 124.333 68 225c0 100 -22.667 175.333 -68 226c-46 48.667 -96.333 83.334 -151 104.001c-36 12.667 -70.333 21 -103 25l-77 6v-721z" />
    <glyph glyph-name="ocircumflex" unicode="&#x444;" horiz-adv-x="1372" 
d="M625 -14l-78.001 5.99902c-23.333 0 -50.666 3.33301 -81.999 10c-91.333 20.667 -176 64.834 -254 132.501s-117 170.834 -117 309.501c0 139.333 38.333 242.666 115 309.999c76.667 65.333 162 109.666 256 132.999l82 12l78 4v531h123v-531
c138.667 0 262 -36.667 370 -110c106.667 -75.333 160 -191.666 160 -348.999c0 -154 -53.333 -268.667 -160 -344c-106.667 -74.667 -230 -112 -370 -112v-418h-123v416zM624.999 804.999l-80 -5.99902c-30 -4 -63.667 -12.333 -101 -25
c-51.333 -20.667 -100.333 -55.334 -147 -104.001c-48 -50.667 -72 -126 -72 -226c0 -96.667 22.5 -171 67.5 -223s95.5 -87.333 151.5 -106c36 -12.667 69.667 -21 101 -25l80 -6v721zM747.999 84l77 5.99805c30 4 64.333 12.333 103 25
c54.667 18.667 105 53.334 151 104.001c45.333 49.333 68 124.333 68 225c0 100 -22.667 175.333 -68 226c-46 48.667 -96.333 83.334 -151 104.001c-36 12.667 -70.333 21 -103 25l-77 6v-721z" />
    <glyph glyph-name="otilde" unicode="&#xf5;" horiz-adv-x="854" 
d="M352 457l-315 432h158l237 -346l221 346h144l-295 -430l329 -459h-155l-252 373l-244 -373h-157z" />
    <glyph glyph-name="otilde" unicode="&#x445;" horiz-adv-x="854" 
d="M352 457l-315 432h158l237 -346l221 346h144l-295 -430l329 -459h-155l-252 373l-244 -373h-157z" />
    <glyph glyph-name="odieresis" unicode="&#xf6;" horiz-adv-x="1012" 
d="M152 889h122v-791h443v791h123v-791h143v-327h-115v229h-716v889z" />
    <glyph glyph-name="odieresis" unicode="&#x446;" horiz-adv-x="1012" 
d="M152 889h122v-791h443v791h123v-791h143v-327h-115v229h-716v889z" />
    <glyph glyph-name="divide" unicode="&#xf7;" horiz-adv-x="920" 
d="M645 356l-51 -8.00098l-57 -4c-30 0 -53.333 -1.33301 -70 -4l-55 -2c-113.333 0 -190 22.667 -230 68c-39.333 44.667 -59 116.334 -59 215.001v268h123v-268c0 -83.333 15.667 -136 47 -158c30 -18 66 -27 108 -27h21h22h17h16l62 2l106 13v438h123v-889h-123v356z" />
    <glyph glyph-name="divide" unicode="&#x447;" horiz-adv-x="920" 
d="M645 356l-51 -8.00098l-57 -4c-30 0 -53.333 -1.33301 -70 -4l-55 -2c-113.333 0 -190 22.667 -230 68c-39.333 44.667 -59 116.334 -59 215.001v268h123v-268c0 -83.333 15.667 -136 47 -158c30 -18 66 -27 108 -27h21h22h17h16l62 2l106 13v438h123v-889h-123v356z" />
    <glyph glyph-name="oslash" unicode="&#xf8;" horiz-adv-x="1503" 
d="M152 889h122v-791h416v791h123v-791h416v791h123v-889h-1200v889z" />
    <glyph glyph-name="oslash" unicode="&#x448;" horiz-adv-x="1503" 
d="M152 889h122v-791h416v791h123v-791h416v791h123v-889h-1200v889z" />
    <glyph glyph-name="ugrave" unicode="&#xf9;" horiz-adv-x="1526" 
d="M152 889h122v-791h416v791h123v-791h416v791h123v-791h145v-327h-115v229h-1230v889z" />
    <glyph glyph-name="ugrave" unicode="&#x449;" horiz-adv-x="1526" 
d="M152 889h122v-791h416v791h123v-791h416v791h123v-791h145v-327h-115v229h-1230v889z" />
    <glyph glyph-name="uacute" unicode="&#xfa;" horiz-adv-x="946" 
d="M537 528c120 0 202.334 -21.666 247.001 -64.999c48 -41.333 76.667 -88.333 86 -141l2 -29l2 -29c0 -88.667 -29.333 -154.834 -88 -198.501s-142.334 -65.5 -251.001 -65.5h-297v791h-215v98h337v-361h177zM526.001 98.001l42.999 0.000976562
c18 0 35.333 2.66699 52 8c27.333 6 54.333 20.667 81 44c27.333 22.667 41 60.667 41 114c0 49.333 -12.167 85.666 -36.5 108.999s-52.166 39 -83.499 47l-54 8l-41 2h-168v-332h166z" />
    <glyph glyph-name="uacute" unicode="&#x44a;" horiz-adv-x="946" 
d="M537 528c120 0 202.334 -21.666 247.001 -64.999c48 -41.333 76.667 -88.333 86 -141l2 -29l2 -29c0 -88.667 -29.333 -154.834 -88 -198.501s-142.334 -65.5 -251.001 -65.5h-297v791h-215v98h337v-361h177zM526.001 98.001l42.999 0.000976562
c18 0 35.333 2.66699 52 8c27.333 6 54.333 20.667 81 44c27.333 22.667 41 60.667 41 114c0 49.333 -12.167 85.666 -36.5 108.999s-52.166 39 -83.499 47l-54 8l-41 2h-168v-332h166z" />
    <glyph glyph-name="ucircumflex" unicode="&#xfb;" horiz-adv-x="1178" 
d="M451 528l55 -1.99902h26c7.33301 0 19 -2.66699 35 -8c53.333 -8 104 -31 152 -69c46 -38.667 69 -100.334 69 -185.001c0 -86 -24.333 -148.667 -73 -188c-48 -35.333 -100.667 -58 -158 -68l-57 -6l-51 -2h-297v889h122v-361h177zM440 98.001h38.998l45 6
c32.667 4.66699 63.334 18.334 92.001 41.001c27.333 23.333 41 63 41 119c0 49.333 -12.167 85.666 -36.5 108.999s-52.166 39 -83.499 47l-54 8l-41 2h-168v-332h166zM902.998 889.001h123v-889h-123v889z" />
    <glyph glyph-name="ucircumflex" unicode="&#x44b;" horiz-adv-x="1178" 
d="M451 528l55 -1.99902h26c7.33301 0 19 -2.66699 35 -8c53.333 -8 104 -31 152 -69c46 -38.667 69 -100.334 69 -185.001c0 -86 -24.333 -148.667 -73 -188c-48 -35.333 -100.667 -58 -158 -68l-57 -6l-51 -2h-297v889h122v-361h177zM440 98.001h38.998l45 6
c32.667 4.66699 63.334 18.334 92.001 41.001c27.333 23.333 41 63 41 119c0 49.333 -12.167 85.666 -36.5 108.999s-52.166 39 -83.499 47l-54 8l-41 2h-168v-332h166zM902.998 889.001h123v-889h-123v889z" />
    <glyph glyph-name="udieresis" unicode="&#xfc;" horiz-adv-x="860" 
d="M451 528l55 -1.99902h26c7.33301 0 19 -2.66699 35 -8c53.333 -8 104 -31 152 -69c46 -38.667 69 -100.334 69 -185.001c0 -86 -24.333 -148.667 -73 -188c-48 -35.333 -100.667 -58 -158 -68l-57 -6l-51 -2h-297v889h122v-361h177zM440 98.001h38.998l45 6
c32.667 4.66699 63.334 18.334 92.001 41.001c27.333 23.333 41 63 41 119c0 49.333 -12.167 85.666 -36.5 108.999s-52.166 39 -83.499 47l-54 8l-41 2h-168v-332h166z" />
    <glyph glyph-name="udieresis" unicode="&#x44c;" horiz-adv-x="860" 
d="M451 528l55 -1.99902h26c7.33301 0 19 -2.66699 35 -8c53.333 -8 104 -31 152 -69c46 -38.667 69 -100.334 69 -185.001c0 -86 -24.333 -148.667 -73 -188c-48 -35.333 -100.667 -58 -158 -68l-57 -6l-51 -2h-297v889h122v-361h177zM440 98.001h38.998l45 6
c32.667 4.66699 63.334 18.334 92.001 41.001c27.333 23.333 41 63 41 119c0 49.333 -12.167 85.666 -36.5 108.999s-52.166 39 -83.499 47l-54 8l-41 2h-168v-332h166z" />
    <glyph glyph-name="yacute" unicode="&#xfd;" horiz-adv-x="862" 
d="M57 123c40 -26 77.667 -43.001 113 -51.001c32.667 -6 53.667 -9 63 -9c10 -1.33301 21 -2 33 -2c109.333 0 191.333 26.667 246 80c53.333 52 90.333 110.667 111 176l8 45l6 46h-479v98h477l-12 57c-4.66699 23.333 -11.667 44 -21 62
c-20.667 48.667 -58.334 95 -113.001 139c-55.333 42 -134.333 63 -237 63c-10.667 0 -23 -0.666992 -37 -2c-13.333 -1.33301 -28.333 -4 -45 -8c-30 -4 -67.667 -16.333 -113 -37v109l17 6l20 6l74 17l104 8c153.333 0 274.333 -44.333 363 -133
c88.667 -90.667 133 -207 133 -349s-39 -250.333 -117 -325c-79.333 -76.667 -167.333 -124 -264 -142l-57 -8l-56 -4c-39.333 0 -72 2.66699 -98 8c-31.333 4.66699 -54.666 10.334 -69.999 17.001l-28 10l-21 8v115z" />
    <glyph glyph-name="yacute" unicode="&#x44d;" horiz-adv-x="862" 
d="M57 123c40 -26 77.667 -43.001 113 -51.001c32.667 -6 53.667 -9 63 -9c10 -1.33301 21 -2 33 -2c109.333 0 191.333 26.667 246 80c53.333 52 90.333 110.667 111 176l8 45l6 46h-479v98h477l-12 57c-4.66699 23.333 -11.667 44 -21 62
c-20.667 48.667 -58.334 95 -113.001 139c-55.333 42 -134.333 63 -237 63c-10.667 0 -23 -0.666992 -37 -2c-13.333 -1.33301 -28.333 -4 -45 -8c-30 -4 -67.667 -16.333 -113 -37v109l17 6l20 6l74 17l104 8c153.333 0 274.333 -44.333 363 -133
c88.667 -90.667 133 -207 133 -349s-39 -250.333 -117 -325c-79.333 -76.667 -167.333 -124 -264 -142l-57 -8l-56 -4c-39.333 0 -72 2.66699 -98 8c-31.333 4.66699 -54.666 10.334 -69.999 17.001l-28 10l-21 8v115z" />
    <glyph glyph-name="thorn" unicode="&#xfe;" horiz-adv-x="1499" 
d="M152 889h121.998v-383h166c16.667 117.333 66.667 217 150 299c82 80.667 192.667 121 332 121c144.667 0 261.334 -46.833 350.001 -140.5s133 -207.5 133 -341.5c0 -133.333 -43.667 -246.666 -131 -339.999c-87.333 -92.667 -204.666 -139 -351.999 -139
c-136.667 0 -244.667 37.667 -324 113c-79.333 73.333 -129 156.666 -149 249.999l-7 39l-2 41h-166v-408h-122v889zM1182 180c61.333 80.667 92.001 168.666 92.001 263.999c0 96 -30.667 184.333 -92 265c-63.333 78.667 -150 118 -260 118
c-110.667 0 -196.834 -39.5 -258.501 -118.5s-92.5 -167.167 -92.5 -264.5c0 -95.333 31 -182.666 93 -261.999c61.333 -80.667 147.333 -121 258 -121c110 0 196.667 39.667 260 119z" />
    <glyph glyph-name="thorn" unicode="&#x44e;" horiz-adv-x="1499" 
d="M152 889h121.998v-383h166c16.667 117.333 66.667 217 150 299c82 80.667 192.667 121 332 121c144.667 0 261.334 -46.833 350.001 -140.5s133 -207.5 133 -341.5c0 -133.333 -43.667 -246.666 -131 -339.999c-87.333 -92.667 -204.666 -139 -351.999 -139
c-136.667 0 -244.667 37.667 -324 113c-79.333 73.333 -129 156.666 -149 249.999l-7 39l-2 41h-166v-408h-122v889zM1182 180c61.333 80.667 92.001 168.666 92.001 263.999c0 96 -30.667 184.333 -92 265c-63.333 78.667 -150 118 -260 118
c-110.667 0 -196.834 -39.5 -258.501 -118.5s-92.5 -167.167 -92.5 -264.5c0 -95.333 31 -182.666 93 -261.999c61.333 -80.667 147.333 -121 258 -121c110 0 196.667 39.667 260 119z" />
    <glyph glyph-name="ydieresis" unicode="&#xff;" horiz-adv-x="877" 
d="M315 383c-58.667 6.66699 -110.501 30.501 -155.501 71.501s-67.5 99.833 -67.5 176.5l2 45c2.66699 17.333 7.66699 33.666 15 48.999c12 39.333 41.333 77 88 113c44.667 34 114.334 51 209.001 51h319v-889h-123v373h-172l-235 -373h-138zM601.999 791.001
l-178 0.000976562l-41 -3c-15.333 0 -31 -2.66699 -47 -8c-27.333 -5.33301 -54 -19 -80 -41c-27.333 -22.667 -41 -58.667 -41 -108c0 -46.667 12.333 -82.334 37 -107.001c24.667 -20 52.667 -34.333 84 -43l47 -8l41 -2h178v320z" />
    <glyph glyph-name="ydieresis" unicode="&#x44f;" horiz-adv-x="877" 
d="M315 383c-58.667 6.66699 -110.501 30.501 -155.501 71.501s-67.5 99.833 -67.5 176.5l2 45c2.66699 17.333 7.66699 33.666 15 48.999c12 39.333 41.333 77 88 113c44.667 34 114.334 51 209.001 51h319v-889h-123v373h-172l-235 -373h-138zM601.999 791.001
l-178 0.000976562l-41 -3c-15.333 0 -31 -2.66699 -47 -8c-27.333 -5.33301 -54 -19 -80 -41c-27.333 -22.667 -41 -58.667 -41 -108c0 -46.667 12.333 -82.334 37 -107.001c24.667 -20 52.667 -34.333 84 -43l47 -8l41 -2h178v320z" />
    <glyph glyph-name="endash.0" unicode="&#x2013;" horiz-adv-x="631" 
d="M545 590v-123h-459v123h459z" />
    <glyph glyph-name="emdash.0" unicode="&#x2014;" horiz-adv-x="1180" 
d="M1097 590v-123h-1011v123h1011z" />
    <glyph glyph-name="quotedblleft.0" unicode="&#x201c;" horiz-adv-x="889" 
d="M393 883l86 -58l-268 -374l268 -377l-86 -58l-307 435zM709 883l86 -58l-269 -374l269 -377l-86 -58l-308 435z" />
    <glyph glyph-name="quotedblright.1" unicode="&#x201d;" horiz-adv-x="889" 
d="M180 16l-86 58l268 375l-268 376l86 58l307 -434zM496 16l-86 58l268 375l-268 376l86 58l307 -434z" />
    <glyph glyph-name="quotedblbase.0" unicode="&#x201e;" horiz-adv-x="889" 
d="M393 883l86 -58l-268 -374l268 -377l-86 -58l-307 435zM709 883l86 -58l-269 -374l269 -377l-86 -58l-308 435z" />
    <glyph glyph-name=".null" horiz-adv-x="0" 
 />
    <glyph glyph-name="nonmarkingreturn" horiz-adv-x="719" 
 />
    <glyph glyph-name="quotesinglbase" horiz-adv-x="518" 
d="M281 229l143 -67l-256 -471l-74 35z" />
    <glyph glyph-name="florin" horiz-adv-x="670" 
d="M152 889h495v-98h-373v-791h-122v889z" />
    <glyph glyph-name="quotedblbase" horiz-adv-x="776" 
d="M553 201l129 -64l-272 -446l-72 35zM309 215l129 -63l-272 -447l-72 35z" />
    <glyph glyph-name="ellipsis" horiz-adv-x="1425" 
d="M170 139c20.667 18 43.333 27.001 68 27.001c27.333 0 49.666 -9 66.999 -27c18 -18.667 27 -41 27 -67c0 -24.667 -9 -46 -27 -64c-17.333 -18.667 -39.666 -28 -66.999 -28c-26 0 -48 8.66699 -66 26c-19.333 18 -29 40 -29 66c0 27.333 9 49.666 27 66.999z
M644.999 139.001c20.667 18 43.3311 27.001 67.998 27.001s46.334 -8.33301 65.001 -25c19.333 -17.333 29 -40.333 29 -69c0 -24.667 -9 -46 -27 -64c-17.333 -18.667 -39.666 -28 -66.999 -28c-26 0 -48 8.66699 -66 26c-19.333 18 -29 40 -29 66
c0 27.333 9 49.666 27 66.999zM1120 139.002c20.667 18 43.333 27.001 68 27.001c27.333 0 49.666 -9 66.999 -27c18 -18.667 27 -41 27 -67c0 -24.667 -9 -46 -27 -64c-17.333 -18.667 -39.666 -28 -66.999 -28c-26 0 -48 8.66699 -66 26c-18.667 18 -28 40 -28 66
c0 27.333 8.66699 49.666 26 66.999z" />
    <glyph glyph-name="dagger" horiz-adv-x="1106" 
d="M483 903h-389v115h389v487h140v-487h389v-115h-389v-1333h-140v1333z" />
    <glyph glyph-name="daggerdbl" horiz-adv-x="1161" 
d="M57 47l17.001 13.998l16 17c46.667 38 96 68 148 90c50 19.333 103 29 159 29c11.333 18.667 20.333 39.667 27 63c5.33301 23.333 8 47.333 8 72c0 22 -2 46.667 -6 74c-5.33301 26.667 -17 54.334 -35 83.001h-291v99h238l-19 24l-16 21l-6 6l-14 12l-15 19l-16 16
l-14 19c-30 34 -56.667 73.833 -80 119.5s-35 101.834 -35 168.501c0 131.333 42.333 244.5 127 339.5s206.667 142.5 366 142.5c127.333 0 223.666 -28 288.999 -84c66 -57.333 113.333 -120.333 142 -189c6.66699 -13.333 11.334 -24.5 14.001 -33.5
s7.33398 -27.167 14.001 -54.5l15 -80l-123 -37c0 22 -3.66699 46 -11 72c-4 27.333 -12 56.666 -24 87.999c-20.667 49.333 -55 95.666 -103 138.999c-22.667 20.667 -52 36.334 -88 47.001c-35.333 11.333 -77 17 -125 17c-108.667 0 -194.834 -36.5 -258.501 -109.5
s-95.5 -158.167 -95.5 -255.5c0 -31.333 2.66699 -58 8 -80c4 -22.667 13 -45.667 27 -69c10.667 -24.667 25 -49.334 43 -74.001l68 -78l16 -18l16 -19l13 -16l14 -16l10 -19l12 -18h328v-99h-285l11 -32l8 -33l6 -51l2 -47l-2 -19v-18
c-2.66699 -20.667 -7.33398 -40 -14.001 -58l-23 -51l41 -14l29 -10l4 -4l20 -9l23 -10l29 -14l28 -13l45 -14l54 -6l61 6c27.333 4 57.333 18.333 90 43l33 33l33 43l94 -70c-28.667 -46 -70.334 -87.667 -125.001 -125c-56 -36.667 -115.333 -55 -178 -55
c-37.333 0 -67.5 3.83301 -90.5 11.5l-51.5 17.5c-10.667 2.66699 -23.334 7.33398 -38.001 14.001l-25 10l-23 11c-9.33301 4 -23.666 9.33301 -42.999 16c-18.667 6.66699 -37.667 12.667 -57 18c-20.667 4.66699 -37.667 8.33398 -51 11.001c-15.333 2.66699 -31 4 -47 4
c-18 0 -32.333 -1.33301 -43 -4l-45 -13c-27.333 -8 -54 -21 -80 -39c-27.333 -17.333 -50.666 -36.333 -69.999 -57z" />
    <glyph glyph-name="circumflex" 
 />
    <glyph glyph-name="perthousand" horiz-adv-x="2404" 
d="M1155 1477h100l-845 -1520h-101zM1008 563c64 64 141.666 95.999 232.999 95.999c88.667 0 165.834 -31.333 231.501 -94s98.5 -141 98.5 -235c0 -86 -32 -162.667 -96 -230c-64.667 -66.667 -142.667 -100 -234 -100s-169 32 -233 96
c-64.667 64.667 -97 142.667 -97 234c0 92.667 32.333 170.334 97 233.001zM1087 167.999c42.667 -46.667 93.999 -69.998 153.999 -69.998c57.333 0 108 22 152 66c42 46 63 101.333 63 166c0 61.333 -21.167 115.166 -63.5 161.499s-92.833 69.5 -151.5 69.5
c-61.333 0 -112.666 -22.333 -153.999 -67c-40.667 -46.667 -61 -101.334 -61 -164.001c0 -60 20.333 -114 61 -162zM1790 563.001c64 64 141.667 95.999 233 95.999c89.333 0 166.666 -31.333 232 -94c65.333 -62.667 98 -141 98 -235c0 -86 -32 -162.667 -96 -230
c-64 -66.667 -142 -100 -234 -100c-91.333 0 -169 32 -233 96c-64 64.667 -96 142.667 -96 234c0 92.667 32 170.334 96 233.001zM1874 162c46.667 -42.667 96.333 -63.998 149 -63.998c57.333 0 108 22 152 66c42 46 63 101.333 63 166
c0 61.333 -21.167 115.166 -63.5 161.499s-92.833 69.5 -151.5 69.5c-61.333 0 -112.333 -22.333 -153 -67c-41.333 -46.667 -62 -101.334 -62 -164.001c0 -68.667 22 -124.667 66 -168zM146.997 1366c64.667 64 142.667 95.999 234 95.999
c88.667 0 165.667 -31.333 231 -94c66 -62.667 99 -141 99 -235c0 -86 -32.333 -162.667 -97 -230c-64 -66.667 -141.667 -100 -233 -100s-169.333 32 -234 96c-64 64 -96 142 -96 234c0 92.667 32 170.334 96 233.001zM228.997 967.001
c41.333 -44 92.001 -66.001 152.001 -66.001c57.333 0 107.666 22 150.999 66c42.667 46 64 101.333 64 166c0 65.333 -20.333 120.333 -61 165c-42.667 44 -94 66 -154 66c-56 0 -106.667 -22.667 -152 -68c-42 -44.667 -63 -99 -63 -163
c0 -67.333 21 -122.666 63 -165.999z" />
    <glyph glyph-name="Scaron" horiz-adv-x="1958" 
d="M1133 1434l-0.000976562 -603h237l98 -4c24.667 0 48 -2.66699 70 -8c20.667 -5.33301 42 -11.333 64 -18c65.333 -20.667 125.333 -59.667 180 -117c54.667 -58.667 82 -146.667 82 -264c0 -126 -31.667 -217.667 -95 -275c-62.667 -58.667 -132.667 -98 -210 -118
c-20.667 -6 -42 -10.333 -64 -13c-23.333 -4 -48.666 -7.33301 -75.999 -10l-108 -4h-318v1319h-518v-772c0 -168 -22.5 -302.833 -67.5 -404.5s-138.5 -152.5 -280.5 -152.5l-41 2c-22 0 -46 2.66699 -72 8v115l9 -2l10 -2l10 -2h12c10 -2 16.333 -3.66699 19 -5h18
c104 0 171 41.667 201 125c28.667 82 43 186 43 312v893h797zM1333 115l75.999 2.00098c27.333 0 63.5 7.16699 108.5 21.5s90 42.333 135 84s67.5 107.5 67.5 197.5c0 87.333 -19.667 150.666 -59 189.999c-35.333 40 -77.666 68 -126.999 84l-49.5 12.5
c-17.667 4.33301 -33.167 6.5 -46.5 6.5l-70 4h-235v-602h200z" />
    <glyph glyph-name="guilsinglleft" horiz-adv-x="575" 
d="M393 883l88 -58l-268 -374l268 -377l-88 -58l-307 435z" />
    <glyph glyph-name="OE" horiz-adv-x="2109" 
d="M180 1434h138.999v-603h826v603h139v-603h238l98 -4c24.667 0 48 -2.66699 70 -8c20 -5.33301 41 -11.333 63 -18c65.333 -20.667 125.333 -59.667 180 -117c54.667 -58.667 82 -146.667 82 -264c0 -126 -31.333 -217.667 -94 -275c-62.667 -58.667 -133 -98 -211 -118
c-20.667 -6 -41.667 -10.333 -63 -13c-23.333 -4 -48.666 -7.33301 -75.999 -10l-109 -4h-317v717h-826v-717h-139v1434zM1485 115l76 2.00098c27.333 0 63.333 7.33301 108 22c45.333 14 90.333 42 135 84c45.333 41.333 68 107 68 197c0 87.333 -20 150.666 -60 189.999
c-35.333 40 -77.333 68 -126 84l-50 13c-17.333 4 -33 6 -47 6l-69 4h-236v-602h201z" />
    <glyph glyph-name="quoteleft" horiz-adv-x="532" 
d="M223 969l-129 63l273 445l71 -33z" />
    <glyph glyph-name="quoteright" horiz-adv-x="532" 
d="M309 1477l129 -64l-272 -444l-72 32z" />
    <glyph glyph-name="quotedblleft" horiz-adv-x="776" 
d="M467 954l-129 64l272 444l72 -32zM223 969l-129 63l273 445l71 -33z" />
    <glyph glyph-name="quotedblright" horiz-adv-x="776" 
d="M553 1462l129 -63l-272 -445l-72 33zM309 1477l129 -64l-272 -444l-72 32z" />
    <glyph glyph-name="bullet" horiz-adv-x="696" 
d="M174 852c48 49.333 106 74.001 174 74.001c67.333 0 125.333 -24 174 -72c48 -49.333 72 -107.333 72 -174s-24 -124 -72 -172c-47.333 -49.333 -105.333 -74 -174 -74c-68 0 -126 24.667 -174 74s-72 106.666 -72 171.999c0 66.667 24 124 72 172z" />
    <glyph glyph-name="endash" horiz-adv-x="1229" 
d="M102 774h1024v-115h-1024v115z" />
    <glyph glyph-name="emdash" horiz-adv-x="1679" 
d="M1599 508v-98h-1519v98h1519z" />
    <glyph glyph-name="tilde" 
 />
    <glyph glyph-name="trademark" horiz-adv-x="1335" 
d="M246 1319h-144v115h410v-115h-143v-459h-123v459zM1008 1434h135l90 -574h-127l-57 373l-121 -373h-90l-121 373l-58 -373h-127l91 574h135l125 -392z" />
    <glyph glyph-name="scaron" horiz-adv-x="1407" 
d="M821 528l176 0.000976562l56 -2h26c7.33301 0 19 -2.66699 35 -8c53.333 -8 104 -31 152 -69c46 -38.667 69 -100.334 69 -185.001c0 -86 -24.333 -148.667 -73 -188c-48 -35.333 -100.667 -58 -158 -68l-57 -6l-52 -2h-297v791h-381v-531
c0 -69.333 -19.667 -130 -59 -182c-40.667 -52 -115.667 -78 -225 -78h-4h-6v98h6h4c70.667 0 115.667 22.667 135 68c18 49.333 27 105.333 27 168v555h626v-361zM987 98.001l39 0.000976562l47 6c31.333 4.66699 61.333 19 90 43c27.333 23.333 41 62.333 41 117
c0 49.333 -12.333 85.666 -37 108.999s-52.667 39 -84 47l-53 8l-41 2h-168v-332h166z" />
    <glyph glyph-name="guilsinglright" horiz-adv-x="575" 
d="M182 16l-88 58l268 375l-268 376l88 58l307 -434z" />
    <glyph glyph-name="oe" horiz-adv-x="1483" 
d="M152 889h121.998v-361h500v361h123v-361h176l55 -2h27c6.66699 0 18.334 -2.66699 35.001 -8c53.333 -8 103.5 -31.167 150.5 -69.5s70.5 -99.833 70.5 -184.5c0 -86 -24.667 -148.667 -74 -188c-47.333 -35.333 -99.666 -58 -156.999 -68l-58 -6l-51 -2h-297v430h-500
v-430h-122v889zM1063 98h38.999l45 6c32.667 4.66699 63.334 18.334 92.001 41.001c27.333 23.333 41 63 41 119c0 49.333 -12.333 85.666 -37 108.999s-52.667 39 -84 47l-53 8l-41 2h-168v-332h166z" />
    <glyph glyph-name="periodcentered" horiz-adv-x="475" 
d="M170 596c20.667 18 43.332 27 67.999 27c24 0 45.667 -8.33301 65 -25c19.333 -18 29 -41.333 29 -70c0 -26 -9 -47.667 -27 -65c-19.333 -19.333 -41.666 -29 -66.999 -29c-26 0 -48.667 9 -68 27c-18 20.667 -27 43 -27 67c0 27.333 9 50 27 68z" />
    <glyph glyph-name="c283" 
 />
    <glyph glyph-name="s.0" 
 />
    <glyph glyph-name="backslash.0" 
 />
    <glyph glyph-name="Gbreve" 
 />
    <glyph glyph-name="gbreve" 
 />
    <glyph glyph-name="Y.0" 
 />
    <glyph glyph-name="X.0" 
 />
    <glyph glyph-name="asciicircum.0" 
 />
    <glyph glyph-name="semicolon.0" 
 />
    <glyph glyph-name="equal.0" 
 />
    <glyph glyph-name="exclam.0" 
 />
    <glyph glyph-name="five.0" 
 />
    <glyph glyph-name="Q.0" 
 />
    <glyph glyph-name="quotedblright.0" 
 />
    <glyph glyph-name="hyphen.0" 
 />
    <glyph glyph-name="space.1" 
 />
    <glyph glyph-name="E.0" 
 />
    <glyph glyph-name="M.0" 
 />
    <glyph glyph-name="plus.0" 
 />
    <glyph glyph-name="c302" 
 />
    <glyph glyph-name="c303" 
 />
    <glyph glyph-name="Idotaccent" 
 />
    <glyph glyph-name="dotlessi" 
 />
    <glyph glyph-name="c306" 
 />
    <glyph glyph-name="c307" 
 />
    <glyph glyph-name="c308" 
 />
    <glyph glyph-name="c309" 
 />
    <glyph glyph-name="c310" 
 />
    <glyph glyph-name="c311" 
 />
    <glyph glyph-name="c312" 
 />
    <glyph glyph-name="c313" 
 />
    <glyph glyph-name="c314" 
 />
    <glyph glyph-name="c315" 
 />
    <glyph glyph-name="c316" 
 />
    <glyph glyph-name="c317" 
 />
    <glyph glyph-name="c318" 
 />
    <glyph glyph-name="c319" 
 />
    <glyph glyph-name="c320" 
 />
    <glyph glyph-name="Lslash" 
 />
    <glyph glyph-name="lslash" 
 />
    <glyph glyph-name="c323" 
 />
    <glyph glyph-name="c324" 
 />
    <glyph glyph-name="c325" 
 />
    <glyph glyph-name="c326" 
 />
    <glyph glyph-name="c327" 
 />
    <glyph glyph-name="c328" 
 />
    <glyph glyph-name="c329" 
 />
    <glyph glyph-name="c330" 
 />
    <glyph glyph-name="c331" 
 />
    <glyph glyph-name="c332" 
 />
    <glyph glyph-name="c333" 
 />
    <glyph glyph-name="c334" 
 />
    <glyph glyph-name="c335" 
 />
    <glyph glyph-name="c336" 
 />
    <glyph glyph-name="c337" 
 />
    <glyph glyph-name="OE.0" 
 />
    <glyph glyph-name="oe.0" 
 />
    <glyph glyph-name="c340" 
 />
    <glyph glyph-name="c341" 
 />
    <glyph glyph-name="c342" 
 />
    <glyph glyph-name="c343" 
 />
    <glyph glyph-name="c344" 
 />
    <glyph glyph-name="c345" 
 />
    <glyph glyph-name="c346" 
 />
    <glyph glyph-name="c347" 
 />
    <glyph glyph-name="c348" 
 />
    <glyph glyph-name="c349" 
 />
    <glyph glyph-name="Scedilla" 
 />
    <glyph glyph-name="scedilla" 
 />
    <glyph glyph-name="Scaron.0" 
 />
    <glyph glyph-name="scaron.0" 
 />
    <glyph glyph-name="c354" 
 />
    <glyph glyph-name="c355" 
 />
    <glyph glyph-name="c356" 
 />
    <glyph glyph-name="c357" 
 />
    <glyph glyph-name="c358" 
 />
    <glyph glyph-name="c359" 
 />
    <glyph glyph-name="c360" 
 />
    <glyph glyph-name="c361" 
 />
    <glyph glyph-name="c362" 
 />
    <glyph glyph-name="c363" 
 />
    <glyph glyph-name="c364" 
 />
    <glyph glyph-name="c365" 
 />
    <glyph glyph-name="c366" 
 />
    <glyph glyph-name="c367" 
 />
    <glyph glyph-name="c368" 
 />
    <glyph glyph-name="c369" 
 />
    <glyph glyph-name="c370" 
 />
    <glyph glyph-name="c371" 
 />
    <glyph glyph-name="c372" 
 />
    <glyph glyph-name="c373" 
 />
    <glyph glyph-name="c374" 
 />
    <glyph glyph-name="c375" 
 />
    <glyph glyph-name="Ydieresis" 
 />
    <glyph glyph-name="c377" 
 />
    <glyph glyph-name="c378" 
 />
    <glyph glyph-name="c379" 
 />
    <glyph glyph-name="c380" 
 />
    <glyph glyph-name="Zcaron" 
 />
    <glyph glyph-name="zcaron" 
 />
    <glyph glyph-name="c383" 
 />
    <glyph glyph-name="c384" 
 />
    <glyph glyph-name="c385" 
 />
    <glyph glyph-name="c386" 
 />
    <glyph glyph-name="c387" 
 />
    <glyph glyph-name="c388" 
 />
    <glyph glyph-name="c389" 
 />
    <glyph glyph-name="c390" 
 />
    <glyph glyph-name="c391" 
 />
    <glyph glyph-name="c392" 
 />
    <glyph glyph-name="c393" 
 />
    <glyph glyph-name="c394" 
 />
    <glyph glyph-name="c395" 
 />
    <glyph glyph-name="c396" 
 />
    <glyph glyph-name="c397" 
 />
    <glyph glyph-name="c398" 
 />
    <glyph glyph-name="c399" 
 />
    <glyph glyph-name="c400" 
 />
    <glyph glyph-name="c401" 
 />
    <glyph glyph-name="florin.0" 
 />
    <glyph glyph-name="c403" 
 />
    <glyph glyph-name="c404" 
 />
    <glyph glyph-name="c405" 
 />
    <glyph glyph-name="c406" 
 />
    <glyph glyph-name="c407" 
 />
    <glyph glyph-name="c408" 
 />
    <glyph glyph-name="c409" 
 />
    <glyph glyph-name="c410" 
 />
    <glyph glyph-name="c411" 
 />
    <glyph glyph-name="c412" 
 />
    <glyph glyph-name="c413" 
 />
    <glyph glyph-name="c414" 
 />
    <glyph glyph-name="c415" 
 />
    <glyph glyph-name="c416" 
 />
    <glyph glyph-name="c417" 
 />
    <glyph glyph-name="c418" 
 />
    <glyph glyph-name="c419" 
 />
    <glyph glyph-name="c420" 
 />
    <glyph glyph-name="c421" 
 />
    <glyph glyph-name="c422" 
 />
    <glyph glyph-name="c423" 
 />
    <glyph glyph-name="c424" 
 />
    <glyph glyph-name="c425" 
 />
    <glyph glyph-name="c426" 
 />
    <glyph glyph-name="c427" 
 />
    <glyph glyph-name="c428" 
 />
    <glyph glyph-name="c429" 
 />
    <glyph glyph-name="c430" 
 />
    <glyph glyph-name="c431" 
 />
    <glyph glyph-name="c432" 
 />
    <glyph glyph-name="c433" 
 />
    <glyph glyph-name="c434" 
 />
    <glyph glyph-name="c435" 
 />
    <glyph glyph-name="c436" 
 />
    <glyph glyph-name="c437" 
 />
    <glyph glyph-name="c438" 
 />
    <glyph glyph-name="c439" 
 />
    <glyph glyph-name="c440" 
 />
    <glyph glyph-name="c441" 
 />
    <glyph glyph-name="c442" 
 />
    <glyph glyph-name="c443" 
 />
    <glyph glyph-name="c444" 
 />
    <glyph glyph-name="c445" 
 />
    <glyph glyph-name="c446" 
 />
    <glyph glyph-name="c447" 
 />
    <glyph glyph-name="c448" 
 />
    <glyph glyph-name="c449" 
 />
    <glyph glyph-name="c450" 
 />
    <glyph glyph-name="c451" 
 />
    <glyph glyph-name="c452" 
 />
    <glyph glyph-name="c453" 
 />
    <glyph glyph-name="c454" 
 />
    <glyph glyph-name="c455" 
 />
    <glyph glyph-name="c456" 
 />
    <glyph glyph-name="c457" 
 />
    <glyph glyph-name="c458" 
 />
    <glyph glyph-name="c459" 
 />
    <glyph glyph-name="c460" 
 />
    <glyph glyph-name="c461" 
 />
    <glyph glyph-name="c462" 
 />
    <glyph glyph-name="c463" 
 />
    <glyph glyph-name="c464" 
 />
    <glyph glyph-name="c465" 
 />
    <glyph glyph-name="c466" 
 />
    <glyph glyph-name="c467" 
 />
    <glyph glyph-name="c468" 
 />
    <glyph glyph-name="c469" 
 />
    <glyph glyph-name="c470" 
 />
    <glyph glyph-name="c471" 
 />
    <glyph glyph-name="c472" 
 />
    <glyph glyph-name="c473" 
 />
    <glyph glyph-name="c474" 
 />
    <glyph glyph-name="c475" 
 />
    <glyph glyph-name="c476" 
 />
    <glyph glyph-name="c477" 
 />
    <glyph glyph-name="c478" 
 />
    <glyph glyph-name="c479" 
 />
    <glyph glyph-name="c480" 
 />
    <glyph glyph-name="c481" 
 />
    <glyph glyph-name="c482" 
 />
    <glyph glyph-name="c483" 
 />
    <glyph glyph-name="c484" 
 />
    <glyph glyph-name="c485" 
 />
    <glyph glyph-name="c486" 
 />
    <glyph glyph-name="c487" 
 />
    <glyph glyph-name="c488" 
 />
    <glyph glyph-name="c489" 
 />
    <glyph glyph-name="c490" 
 />
    <glyph glyph-name="c491" 
 />
    <glyph glyph-name="c492" 
 />
    <glyph glyph-name="c493" 
 />
    <glyph glyph-name="c494" 
 />
    <glyph glyph-name="c495" 
 />
    <glyph glyph-name="c496" 
 />
    <glyph glyph-name="c497" 
 />
    <glyph glyph-name="c498" 
 />
    <glyph glyph-name="c499" 
 />
    </font>
</defs>
</svg>
